<svg xmlns="http://www.w3.org/2000/svg" xmlns:xlink="http://www.w3.org/1999/xlink" width="40" zoomAndPan="magnify" viewBox="0 0 30 30.000001" height="40" preserveAspectRatio="xMidYMid meet" version="1.0"><defs><clipPath id="39ab846621"><path d="M 0.484375 0.691406 L 29 0.691406 L 29 28.273438 L 0.484375 28.273438 Z M 0.484375 0.691406 " clip-rule="nonzero"/></clipPath></defs><g clip-path="url(#39ab846621)"><path fill="#ffffff" d="M 28.136719 21.316406 L 28.136719 25.464844 C 28.136719 25.851562 28.058594 26.230469 27.902344 26.582031 C 27.75 26.9375 27.523438 27.253906 27.238281 27.511719 C 26.957031 27.773438 26.621094 27.972656 26.257812 28.09375 C 25.890625 28.21875 25.503906 28.265625 25.121094 28.230469 C 20.867188 27.765625 16.78125 26.3125 13.191406 23.984375 C 9.851562 21.863281 7.019531 19.03125 4.894531 15.691406 C 2.558594 12.085938 1.105469 7.976562 0.652344 3.707031 C 0.617188 3.324219 0.664062 2.9375 0.785156 2.574219 C 0.90625 2.210938 1.105469 1.875 1.363281 1.59375 C 1.621094 1.308594 1.9375 1.082031 2.289062 0.925781 C 2.640625 0.773438 3.019531 0.691406 3.402344 0.691406 L 7.550781 0.691406 C 8.222656 0.683594 8.871094 0.921875 9.378906 1.359375 C 9.890625 1.796875 10.222656 2.40625 10.316406 3.070312 C 10.492188 4.394531 10.816406 5.699219 11.28125 6.953125 C 11.46875 7.449219 11.507812 7.988281 11.398438 8.503906 C 11.289062 9.019531 11.03125 9.496094 10.660156 9.871094 L 8.90625 11.625 C 10.875 15.085938 13.738281 17.953125 17.199219 19.921875 L 18.957031 18.164062 C 19.332031 17.792969 19.804688 17.539062 20.324219 17.425781 C 20.839844 17.316406 21.378906 17.355469 21.871094 17.542969 C 23.125 18.011719 24.429688 18.335938 25.757812 18.511719 C 26.429688 18.605469 27.042969 18.945312 27.480469 19.460938 C 27.917969 19.980469 28.152344 20.640625 28.136719 21.316406 Z M 28.136719 21.316406 " fill-opacity="1" fill-rule="nonzero"/></g></svg>