<svg xmlns="http://www.w3.org/2000/svg" xmlns:xlink="http://www.w3.org/1999/xlink" width="256" zoomAndPan="magnify" viewBox="0 0 192 191.999996" height="256" preserveAspectRatio="xMidYMid meet" version="1.0"><path fill="#ffffff" d="M 95.933594 0.175781 C 42.621094 0.355469 0.015625 43.703125 0.710938 97.007812 C 0.773438 102.375 1.285156 107.695312 2.25 112.976562 C 3.214844 118.253906 4.613281 123.414062 6.453125 128.457031 C 8.289062 133.5 10.535156 138.351562 13.195312 143.015625 C 15.851562 147.675781 18.882812 152.082031 22.285156 156.230469 C 22.824219 156.886719 23.25 157.609375 23.570312 158.398438 C 23.890625 159.183594 24.085938 160 24.160156 160.84375 C 24.234375 161.691406 24.183594 162.527344 24.003906 163.359375 C 23.824219 164.1875 23.53125 164.972656 23.117188 165.714844 L 14.882812 180.464844 C 12.601562 184.554688 16.320312 189.390625 20.859375 188.234375 L 48.738281 181.136719 C 49.710938 180.890625 50.695312 180.816406 51.695312 180.917969 C 52.691406 181.023438 53.644531 181.292969 54.542969 181.730469 C 60.710938 184.726562 67.125 187.027344 73.785156 188.636719 C 80.449219 190.246094 87.207031 191.121094 94.058594 191.269531 C 147.660156 192.480469 191.652344 149.652344 191.820312 96.039062 C 191.988281 43.015625 148.960938 -0.00390625 95.933594 0.175781 Z M 96.261719 179.519531 C 94.890625 179.519531 93.519531 179.484375 92.152344 179.417969 C 90.78125 179.351562 89.414062 179.25 88.050781 179.117188 C 86.683594 178.980469 85.324219 178.8125 83.96875 178.613281 C 82.613281 178.410156 81.261719 178.175781 79.917969 177.910156 C 78.570312 177.640625 77.234375 177.34375 75.902344 177.007812 C 74.574219 176.675781 73.253906 176.308594 71.941406 175.910156 C 70.628906 175.515625 69.328125 175.085938 68.035156 174.621094 C 66.746094 174.160156 65.464844 173.667969 64.199219 173.140625 C 62.933594 172.617188 61.679688 172.0625 60.4375 171.476562 C 59.199219 170.890625 57.976562 170.273438 56.765625 169.625 C 55.554688 168.980469 54.363281 168.304688 53.1875 167.601562 C 52.011719 166.894531 50.855469 166.160156 49.714844 165.398438 C 48.574219 164.636719 47.453125 163.847656 46.351562 163.03125 C 45.25 162.214844 44.167969 161.371094 43.109375 160.5 C 42.050781 159.632812 41.011719 158.738281 39.996094 157.816406 C 38.980469 156.894531 37.988281 155.949219 37.015625 154.980469 C 36.046875 154.011719 35.101562 153.019531 34.179688 152 C 33.261719 150.984375 32.363281 149.949219 31.496094 148.886719 C 30.625 147.828125 29.78125 146.746094 28.964844 145.644531 C 28.148438 144.542969 27.359375 143.421875 26.597656 142.285156 C 25.835938 141.144531 25.101562 139.984375 24.398438 138.808594 C 23.691406 137.632812 23.015625 136.441406 22.371094 135.230469 C 21.722656 134.023438 21.105469 132.796875 20.519531 131.558594 C 19.933594 130.316406 19.378906 129.066406 18.855469 127.796875 C 18.328125 126.53125 17.835938 125.253906 17.375 123.960938 C 16.914062 122.671875 16.484375 121.367188 16.085938 120.054688 C 15.6875 118.746094 15.320312 117.421875 14.988281 116.09375 C 14.65625 114.761719 14.355469 113.425781 14.085938 112.082031 C 13.820312 110.734375 13.585938 109.386719 13.382812 108.027344 C 13.183594 106.671875 13.015625 105.3125 12.878906 103.945312 C 12.746094 102.582031 12.644531 101.214844 12.578125 99.847656 C 12.511719 98.476562 12.476562 97.105469 12.476562 95.734375 C 12.476562 49.460938 49.988281 11.949219 96.261719 11.949219 C 142.355469 11.949219 179.753906 49.171875 180.042969 95.195312 C 180.335938 141.375 142.445312 179.519531 96.261719 179.519531 Z M 96.261719 179.519531 " fill-opacity="1" fill-rule="nonzero"/><path fill="#1b71a1" d="M 180.046875 95.734375 C 180.046875 97.105469 180.011719 98.476562 179.945312 99.847656 C 179.878906 101.214844 179.777344 102.582031 179.644531 103.945312 C 179.507812 105.3125 179.339844 106.671875 179.140625 108.027344 C 178.9375 109.382812 178.703125 110.734375 178.4375 112.082031 C 178.167969 113.425781 177.867188 114.761719 177.535156 116.09375 C 177.203125 117.421875 176.835938 118.742188 176.4375 120.054688 C 176.039062 121.367188 175.609375 122.667969 175.148438 123.960938 C 174.6875 125.25 174.195312 126.53125 173.667969 127.796875 C 173.144531 129.066406 172.589844 130.316406 172.003906 131.558594 C 171.414062 132.796875 170.800781 134.019531 170.152344 135.230469 C 169.507812 136.441406 168.832031 137.632812 168.125 138.808594 C 167.421875 139.984375 166.6875 141.144531 165.925781 142.28125 C 165.164062 143.421875 164.375 144.542969 163.558594 145.644531 C 162.742188 146.746094 161.898438 147.828125 161.027344 148.886719 C 160.160156 149.945312 159.261719 150.984375 158.34375 152 C 157.421875 153.015625 156.476562 154.011719 155.507812 154.980469 C 154.535156 155.949219 153.542969 156.894531 152.527344 157.816406 C 151.511719 158.734375 150.472656 159.632812 149.414062 160.5 C 148.355469 161.371094 147.273438 162.214844 146.171875 163.03125 C 145.070312 163.847656 143.949219 164.636719 142.808594 165.398438 C 141.667969 166.160156 140.511719 166.894531 139.335938 167.597656 C 138.160156 168.304688 136.96875 168.980469 135.757812 169.625 C 134.546875 170.273438 133.324219 170.890625 132.085938 171.476562 C 130.84375 172.0625 129.589844 172.617188 128.324219 173.140625 C 127.058594 173.667969 125.777344 174.160156 124.488281 174.621094 C 123.195312 175.082031 121.894531 175.511719 120.582031 175.910156 C 119.269531 176.308594 117.949219 176.675781 116.621094 177.007812 C 115.289062 177.339844 113.953125 177.640625 112.605469 177.910156 C 111.261719 178.175781 109.910156 178.410156 108.554688 178.613281 C 107.199219 178.8125 105.839844 178.980469 104.472656 179.117188 C 103.109375 179.25 101.742188 179.351562 100.371094 179.417969 C 99.003906 179.484375 97.632812 179.519531 96.261719 179.519531 C 94.890625 179.519531 93.519531 179.484375 92.152344 179.417969 C 90.78125 179.351562 89.414062 179.25 88.050781 179.117188 C 86.683594 178.980469 85.324219 178.8125 83.96875 178.613281 C 82.613281 178.410156 81.261719 178.175781 79.917969 177.910156 C 78.570312 177.640625 77.234375 177.339844 75.902344 177.007812 C 74.574219 176.675781 73.253906 176.308594 71.941406 175.910156 C 70.628906 175.511719 69.328125 175.082031 68.035156 174.621094 C 66.746094 174.160156 65.464844 173.667969 64.199219 173.140625 C 62.933594 172.617188 61.679688 172.0625 60.4375 171.476562 C 59.199219 170.890625 57.976562 170.273438 56.765625 169.625 C 55.554688 168.980469 54.363281 168.304688 53.1875 167.597656 C 52.011719 166.894531 50.851562 166.160156 49.714844 165.398438 C 48.574219 164.636719 47.453125 163.847656 46.351562 163.03125 C 45.25 162.214844 44.167969 161.371094 43.109375 160.5 C 42.050781 159.632812 41.011719 158.734375 39.996094 157.816406 C 38.980469 156.894531 37.988281 155.949219 37.015625 154.980469 C 36.046875 154.011719 35.101562 153.015625 34.179688 152 C 33.261719 150.984375 32.363281 149.945312 31.496094 148.886719 C 30.625 147.828125 29.78125 146.746094 28.964844 145.644531 C 28.148438 144.542969 27.359375 143.421875 26.597656 142.28125 C 25.835938 141.144531 25.101562 139.984375 24.398438 138.808594 C 23.691406 137.632812 23.015625 136.441406 22.371094 135.230469 C 21.722656 134.019531 21.105469 132.796875 20.519531 131.558594 C 19.933594 130.316406 19.378906 129.066406 18.855469 127.796875 C 18.328125 126.53125 17.835938 125.25 17.375 123.960938 C 16.914062 122.667969 16.484375 121.367188 16.085938 120.054688 C 15.6875 118.742188 15.320312 117.421875 14.988281 116.09375 C 14.65625 114.761719 14.355469 113.425781 14.085938 112.082031 C 13.820312 110.734375 13.585938 109.382812 13.382812 108.027344 C 13.183594 106.671875 13.015625 105.3125 12.878906 103.945312 C 12.746094 102.582031 12.644531 101.214844 12.578125 99.847656 C 12.511719 98.476562 12.476562 97.105469 12.476562 95.734375 C 12.476562 94.363281 12.511719 92.992188 12.578125 91.625 C 12.644531 90.253906 12.746094 88.886719 12.878906 87.523438 C 13.015625 86.15625 13.183594 84.796875 13.382812 83.441406 C 13.585938 82.085938 13.820312 80.734375 14.085938 79.390625 C 14.355469 78.042969 14.65625 76.707031 14.988281 75.375 C 15.320312 74.046875 15.6875 72.726562 16.085938 71.414062 C 16.484375 70.101562 16.914062 68.800781 17.375 67.507812 C 17.835938 66.21875 18.328125 64.9375 18.855469 63.671875 C 19.378906 62.40625 19.933594 61.152344 20.519531 59.910156 C 21.105469 58.671875 21.722656 57.449219 22.371094 56.238281 C 23.015625 55.03125 23.691406 53.835938 24.398438 52.660156 C 25.101562 51.484375 25.835938 50.328125 26.597656 49.1875 C 27.359375 48.046875 28.148438 46.925781 28.964844 45.824219 C 29.78125 44.722656 30.625 43.640625 31.496094 42.582031 C 32.363281 41.523438 33.261719 40.484375 34.179688 39.46875 C 35.101562 38.453125 36.046875 37.460938 37.015625 36.488281 C 37.988281 35.519531 38.980469 34.574219 39.996094 33.652344 C 41.011719 32.734375 42.050781 31.839844 43.109375 30.96875 C 44.167969 30.097656 45.25 29.253906 46.351562 28.4375 C 47.453125 27.621094 48.574219 26.832031 49.714844 26.070312 C 50.851562 25.308594 52.011719 24.574219 53.1875 23.871094 C 54.363281 23.164062 55.554688 22.488281 56.765625 21.84375 C 57.976562 21.195312 59.199219 20.582031 60.4375 19.992188 C 61.679688 19.40625 62.933594 18.851562 64.199219 18.328125 C 65.464844 17.804688 66.746094 17.308594 68.035156 16.847656 C 69.328125 16.386719 70.628906 15.957031 71.941406 15.558594 C 73.253906 15.160156 74.574219 14.792969 75.902344 14.460938 C 77.234375 14.128906 78.570312 13.828125 79.917969 13.558594 C 81.261719 13.292969 82.613281 13.058594 83.96875 12.855469 C 85.324219 12.65625 86.683594 12.488281 88.050781 12.351562 C 89.414062 12.21875 90.78125 12.117188 92.152344 12.050781 C 93.519531 11.984375 94.890625 11.949219 96.261719 11.949219 C 97.632812 11.949219 99.003906 11.984375 100.371094 12.050781 C 101.742188 12.117188 103.109375 12.21875 104.472656 12.351562 C 105.839844 12.488281 107.199219 12.65625 108.554688 12.855469 C 109.910156 13.058594 111.261719 13.292969 112.605469 13.558594 C 113.953125 13.828125 115.289062 14.128906 116.621094 14.460938 C 117.949219 14.792969 119.269531 15.160156 120.582031 15.558594 C 121.894531 15.957031 123.195312 16.386719 124.488281 16.847656 C 125.777344 17.308594 127.058594 17.804688 128.324219 18.328125 C 129.589844 18.851562 130.84375 19.40625 132.085938 19.992188 C 133.324219 20.582031 134.546875 21.195312 135.757812 21.84375 C 136.96875 22.488281 138.160156 23.164062 139.335938 23.871094 C 140.511719 24.574219 141.667969 25.308594 142.808594 26.070312 C 143.949219 26.832031 145.070312 27.621094 146.171875 28.4375 C 147.273438 29.253906 148.355469 30.097656 149.414062 30.96875 C 150.472656 31.839844 151.511719 32.734375 152.527344 33.652344 C 153.542969 34.574219 154.535156 35.519531 155.507812 36.488281 C 156.476562 37.460938 157.421875 38.453125 158.34375 39.46875 C 159.261719 40.484375 160.160156 41.523438 161.027344 42.582031 C 161.898438 43.640625 162.742188 44.722656 163.558594 45.824219 C 164.375 46.925781 165.164062 48.046875 165.925781 49.1875 C 166.6875 50.328125 167.421875 51.484375 168.125 52.660156 C 168.832031 53.835938 169.507812 55.03125 170.152344 56.238281 C 170.800781 57.449219 171.414062 58.671875 172.003906 59.910156 C 172.589844 61.152344 173.144531 62.40625 173.667969 63.671875 C 174.195312 64.9375 174.6875 66.21875 175.148438 67.507812 C 175.609375 68.800781 176.039062 70.101562 176.4375 71.414062 C 176.835938 72.726562 177.203125 74.046875 177.535156 75.375 C 177.867188 76.707031 178.167969 78.042969 178.4375 79.390625 C 178.703125 80.734375 178.9375 82.085938 179.140625 83.441406 C 179.339844 84.796875 179.507812 86.15625 179.644531 87.523438 C 179.777344 88.886719 179.878906 90.253906 179.945312 91.625 C 180.011719 92.992188 180.046875 94.363281 180.046875 95.734375 Z M 180.046875 95.734375 " fill-opacity="1" fill-rule="nonzero"/><path fill="#ffffff" d="M 81.289062 55 L 81.324219 55.078125 L 86.324219 64.988281 C 86.589844 65.523438 86.816406 66.074219 86.996094 66.640625 C 87.175781 67.210938 87.308594 67.792969 87.394531 68.382812 C 87.480469 68.972656 87.519531 69.566406 87.507812 70.164062 C 87.5 70.761719 87.441406 71.351562 87.335938 71.941406 C 87.230469 72.527344 87.082031 73.101562 86.882812 73.667969 C 86.683594 74.230469 86.441406 74.773438 86.15625 75.296875 C 85.871094 75.820312 85.546875 76.320312 85.179688 76.789062 C 84.8125 77.261719 84.410156 77.699219 83.976562 78.109375 C 83.539062 78.511719 83.140625 78.949219 82.773438 79.414062 C 82.410156 79.882812 82.085938 80.378906 81.800781 80.898438 C 81.515625 81.417969 81.273438 81.957031 81.074219 82.515625 C 80.875 83.074219 80.722656 83.648438 80.613281 84.230469 C 80.507812 84.816406 80.449219 85.402344 80.4375 85.996094 C 80.421875 86.589844 80.457031 87.179688 80.539062 87.769531 C 80.625 88.355469 80.753906 88.933594 80.929688 89.5 C 81.101562 90.066406 81.324219 90.617188 81.585938 91.148438 C 84.585938 97.171875 89.785156 105.476562 97.714844 111.464844 C 98.605469 112.140625 99.570312 112.671875 100.621094 113.054688 C 101.667969 113.4375 102.75 113.65625 103.863281 113.714844 C 104.980469 113.773438 106.078125 113.667969 107.160156 113.394531 C 108.242188 113.125 109.261719 112.699219 110.214844 112.121094 L 113.433594 110.160156 C 114.15625 109.722656 114.917969 109.371094 115.71875 109.105469 C 116.519531 108.839844 117.34375 108.667969 118.183594 108.589844 C 119.027344 108.511719 119.863281 108.53125 120.703125 108.644531 C 121.539062 108.757812 122.351562 108.964844 123.140625 109.265625 L 135.933594 114.128906 C 136.613281 114.390625 137.265625 114.710938 137.882812 115.097656 C 138.5 115.484375 139.074219 115.929688 139.601562 116.429688 C 140.132812 116.929688 140.609375 117.476562 141.03125 118.070312 C 141.453125 118.664062 141.816406 119.292969 142.113281 119.957031 C 142.414062 120.621094 142.644531 121.308594 142.804688 122.019531 C 142.96875 122.730469 143.0625 123.449219 143.082031 124.175781 C 143.105469 124.90625 143.054688 125.628906 142.933594 126.347656 C 142.8125 127.066406 142.621094 127.765625 142.363281 128.445312 C 142.214844 128.839844 142.042969 129.21875 141.851562 129.589844 L 138.308594 136.460938 C 138.019531 137.015625 137.6875 137.542969 137.3125 138.042969 C 136.9375 138.542969 136.519531 139.007812 136.066406 139.4375 C 135.613281 139.867188 135.125 140.253906 134.605469 140.601562 C 134.085938 140.949219 133.539062 141.25 132.96875 141.503906 C 132.394531 141.761719 131.808594 141.964844 131.203125 142.121094 C 130.597656 142.277344 129.980469 142.378906 129.359375 142.433594 C 128.734375 142.484375 128.113281 142.484375 127.488281 142.429688 C 126.867188 142.375 126.253906 142.269531 125.648438 142.113281 C 105.558594 136.914062 57.675781 118.847656 53.820312 64.214844 C 53.742188 63.132812 53.824219 62.058594 54.0625 60.996094 C 54.300781 59.9375 54.683594 58.933594 55.21875 57.984375 C 55.75 57.039062 56.410156 56.1875 57.191406 55.433594 C 57.976562 54.679688 58.851562 54.054688 59.816406 53.558594 L 66.339844 50.207031 C 66.988281 49.871094 67.664062 49.605469 68.363281 49.40625 C 69.066406 49.203125 69.777344 49.074219 70.503906 49.015625 C 71.230469 48.953125 71.957031 48.964844 72.679688 49.050781 C 73.402344 49.132812 74.113281 49.285156 74.808594 49.507812 C 75.5 49.730469 76.167969 50.019531 76.804688 50.371094 C 77.441406 50.726562 78.039062 51.136719 78.59375 51.609375 C 79.148438 52.082031 79.652344 52.601562 80.105469 53.171875 C 80.5625 53.742188 80.953125 54.351562 81.289062 55 Z M 81.289062 55 " fill-opacity="1" fill-rule="nonzero"/></svg>