<svg xmlns="http://www.w3.org/2000/svg" xmlns:xlink="http://www.w3.org/1999/xlink" width="256" zoomAndPan="magnify" viewBox="0 0 192 191.999996" height="256" preserveAspectRatio="xMidYMid meet" version="1.0"><path fill="#000000" d="M 61.636719 167.558594 C 58.742188 165.523438 56.398438 162.566406 55.03125 159.511719 L 58.109375 159.511719 C 62.371094 159.425781 66.566406 159.324219 70.726562 158.71875 C 70.824219 158.679688 70.925781 158.628906 71.011719 158.59375 C 75.753906 163.671875 81.480469 167.109375 87.066406 168.066406 C 86.296875 168.253906 85.503906 168.414062 84.746094 168.601562 C 82.96875 168.984375 81.179688 169.394531 79.40625 169.742188 C 71.644531 171.207031 65.671875 170.476562 61.636719 167.558594 Z M 187.933594 48.515625 C 187.609375 42.949219 187.175781 37.25 185.226562 31.6875 C 184.628906 29.914062 183.636719 27.652344 181.636719 26.0625 C 180.84375 25.429688 179.984375 25.046875 179.128906 24.699219 L 177.117188 8.554688 C 177.03125 7.785156 176.894531 6.742188 176.320312 5.75 C 175.476562 4.257812 173.886719 3.441406 172.347656 3.625 C 171.40625 3.75 169.144531 4.457031 168.671875 8.257812 C 168.003906 13.796875 167.582031 19.382812 167.394531 24.984375 C 167.046875 25.121094 166.660156 25.246094 166.3125 25.429688 C 161.582031 28.039062 160.566406 32.644531 159.992188 36.742188 C 159.359375 41.039062 159.0625 44.15625 158.839844 48.476562 C 158.789062 48.515625 158.691406 48.539062 158.613281 48.574219 C 156.082031 50.066406 154.515625 53.082031 154.394531 56.609375 C 154.269531 60.210938 155.660156 63.453125 158.117188 65.128906 C 158.144531 65.164062 158.179688 65.203125 158.242188 65.203125 C 158.75 77.050781 159.632812 89.007812 160.875 100.765625 C 161.261719 104.417969 161.96875 108.527344 165.109375 111.257812 C 163.582031 130.269531 159.160156 147.28125 151.539062 163.175781 C 149.601562 167.171875 146.261719 170.824219 142.347656 173.144531 C 137.332031 176.164062 130.898438 176.238281 122.667969 173.34375 C 120.855469 172.710938 119.054688 171.976562 117.242188 171.269531 C 111.949219 169.210938 106.488281 167.109375 100.640625 166.664062 C 104.363281 165.039062 107.730469 162.378906 110.585938 158.59375 C 111.230469 157.796875 111.800781 156.941406 112.375 156.070312 C 113.703125 154.074219 115.003906 152.199219 116.757812 151.09375 C 119.203125 149.589844 122.730469 149.527344 127.570312 150.929688 L 129.285156 151.402344 C 133 152.519531 136.808594 153.664062 141.042969 153.253906 C 146.917969 152.683594 152.394531 148.996094 155.347656 143.617188 C 158.367188 138.054688 158.367188 132.492188 157.957031 127.785156 C 157.546875 122.832031 155.984375 118.101562 154.394531 113.480469 C 154.59375 113.234375 154.816406 113.007812 154.964844 112.722656 C 156.332031 110.425781 156.179688 107.820312 156.042969 106.140625 C 155.1875 92.980469 153.761719 79.730469 151.761719 66.65625 C 151.984375 66.445312 152.207031 66.222656 152.394531 65.960938 C 154.019531 63.515625 153.597656 60.65625 153.375 58.96875 C 153.089844 56.933594 152.617188 53.53125 150.046875 51.34375 C 149.5 50.859375 148.929688 50.511719 148.320312 50.253906 C 146.570312 44.628906 144.535156 39.039062 142.285156 33.636719 C 141.332031 31.402344 140.125 28.917969 137.640625 27.429688 C 136.5 26.757812 135.296875 26.410156 134.078125 26.289062 L 128.515625 9.226562 C 128.292969 8.519531 127.945312 7.4375 127.050781 6.542969 C 125.882812 5.375 124.09375 4.890625 122.605469 5.300781 C 121.871094 5.5 119.464844 6.480469 119.773438 10.167969 C 120.28125 16.652344 121.238281 23.207031 122.542969 29.628906 C 122.132812 29.976562 121.710938 30.359375 121.339844 30.808594 C 119.464844 33.09375 119.101562 35.921875 118.980469 38.628906 C 118.792969 43.933594 119.101562 49.273438 119.972656 54.488281 C 119.648438 54.710938 119.328125 54.898438 119.015625 55.144531 C 116.792969 57.058594 115.738281 60.296875 116.222656 63.800781 C 116.695312 67.324219 118.667969 70.320312 121.339844 71.585938 C 121.648438 71.710938 122.007812 71.832031 122.320312 71.933594 C 125.375 83.628906 128.800781 95.425781 132.613281 106.972656 C 133.769531 110.5 135.359375 114.472656 139.132812 116.4375 C 139.640625 116.722656 140.210938 116.882812 140.757812 117.042969 C 143.464844 123.5625 144.632812 129.152344 144.1875 133.957031 C 144.125 134.976562 143.714844 136.914062 142 138.316406 C 140.472656 139.582031 138.722656 139.257812 135.519531 138.5625 L 134.425781 138.316406 C 133.484375 138.117188 132.425781 137.867188 131.320312 137.609375 C 128.777344 137 125.90625 136.304688 123.300781 135.957031 C 120.097656 135.507812 115.390625 135.507812 111.195312 137.929688 C 107.097656 140.253906 104.300781 142.984375 101.78125 146.984375 C 97.648438 153.5625 94.320312 154.332031 92.15625 154.332031 C 90.308594 154.332031 88.246094 153.601562 86.335938 152.398438 C 94.195312 146.0625 97.597656 135.855469 99.808594 126.617188 C 107.929688 92.980469 111.070312 65.289062 109.726562 39.425781 C 109.441406 33.5625 108.523438 24.984375 103.980469 17.894531 C 99.535156 10.902344 91.613281 5.6875 82.273438 3.5625 C 72.699219 1.402344 64.246094 0.410156 57.152344 0.734375 L 56.644531 0.734375 C 48.101562 1.082031 40.019531 1.402344 31.824219 3.402344 C 21.578125 5.875 13.222656 11.164062 8.265625 18.214844 C 2.382812 26.609375 1.238281 36.902344 0.917969 46.761719 C 0.0351562 72.988281 4.257812 108.6875 10.527344 128.046875 C 13 135.671875 15.828125 144.324219 22.3125 150.460938 C 26.261719 154.136719 31.214844 156.617188 37.449219 158.046875 L 37.570312 158.046875 C 38.527344 164.316406 40.402344 169.171875 44.539062 173.976562 C 50.511719 180.90625 59.5 185.226562 68.628906 185.511719 C 74.375 185.636719 79.976562 184.371094 85.378906 183.105469 C 91.613281 181.640625 97.496094 180.273438 103.371094 181.066406 C 108.140625 181.726562 112.597656 183.761719 117.265625 185.960938 C 118.347656 186.433594 119.425781 186.941406 120.507812 187.425781 C 126.453125 190.058594 131.570312 191.363281 136.339844 191.363281 C 137.640625 191.363281 138.945312 191.238281 140.210938 191.050781 C 149.300781 189.648438 158.714844 182.621094 163.679688 173.53125 C 172.707031 157.003906 178.519531 135.285156 180.171875 112.277344 C 180.65625 111.953125 181.128906 111.570312 181.539062 111.132812 C 183.351562 109.160156 183.734375 106.589844 183.996094 104.902344 C 185.859375 92.085938 187.222656 79.058594 188.019531 66.121094 C 188.601562 65.800781 189.136719 65.425781 189.644531 64.90625 C 191.683594 62.78125 191.78125 59.886719 191.804688 58.175781 C 191.867188 56.136719 191.96875 52.710938 189.832031 50.101562 C 189.261719 49.394531 188.628906 48.886719 187.933594 48.515625 " fill-opacity="1" fill-rule="nonzero"/><path fill="#7fcac9" d="M 129.210938 26.757812 C 128.902344 26.832031 128.589844 26.894531 128.265625 26.984375 C 127.84375 27.121094 127.433594 27.242188 127 27.367188 C 126.105469 22.734375 125.335938 18.015625 124.828125 13.347656 L 129.210938 26.757812 " fill-opacity="1" fill-rule="nonzero"/><path fill="#7fcac9" d="M 174.199219 23.878906 L 174.039062 23.878906 C 173.464844 23.878906 172.871094 23.878906 172.222656 23.902344 C 172.347656 20.402344 172.570312 16.875 172.894531 13.386719 L 174.199219 23.878906 " fill-opacity="1" fill-rule="nonzero"/><path fill="#394d5c" d="M 181.476562 47.199219 C 175.441406 46.625 170.347656 46.503906 165.554688 46.851562 C 165.496094 46.851562 165.394531 46.886719 165.296875 46.886719 C 165.496094 43.707031 165.765625 41.0625 166.289062 37.660156 C 166.785156 34.109375 167.394531 32.097656 169.367188 31.03125 C 170.710938 30.296875 172.546875 30.199219 173.976562 30.234375 C 175.15625 30.261719 176.804688 30.359375 177.6875 31.054688 C 178.394531 31.625 178.90625 32.804688 179.226562 33.789062 C 180.71875 38.023438 181.191406 42.628906 181.476562 47.199219 " fill-opacity="1" fill-rule="nonzero"/><path fill="#e4544f" d="M 141.515625 49.90625 C 135.542969 50.328125 130.613281 51.046875 126.03125 52.164062 C 125.4375 47.78125 125.1875 43.324219 125.335938 38.878906 C 125.410156 37.289062 125.558594 35.664062 126.253906 34.84375 C 126.964844 33.984375 128.515625 33.5 129.917969 33.117188 C 131.472656 32.707031 133.382812 32.296875 134.402344 32.894531 C 135.222656 33.414062 135.828125 34.742188 136.402344 36.109375 C 138.3125 40.59375 139.988281 45.234375 141.515625 49.90625 " fill-opacity="1" fill-rule="nonzero"/><path fill="#ff6e6e" d="M 147.117188 62.398438 C 146.992188 62.59375 146.570312 62.878906 145.328125 63.289062 C 140.1875 64.980469 134.648438 65.574219 128.960938 66.085938 C 127 66.269531 125.238281 66.371094 124.03125 65.800781 C 123.4375 65.550781 122.730469 64.46875 122.503906 62.941406 C 122.320312 61.453125 122.703125 60.359375 123.152344 59.988281 C 124.070312 59.21875 125.683594 58.808594 127.125 58.460938 C 131.507812 57.34375 136.3125 56.648438 142.222656 56.238281 C 142.632812 56.199219 143.042969 56.164062 143.464844 56.113281 C 143.9375 56.074219 144.609375 55.976562 145.105469 55.976562 C 145.488281 55.976562 145.777344 56.015625 145.875 56.113281 C 146.644531 56.773438 146.894531 58.648438 147.078125 59.863281 C 147.140625 60.460938 147.363281 61.988281 147.117188 62.398438 " fill-opacity="1" fill-rule="nonzero"/><path fill="#7d8d9c" d="M 185.449219 57.976562 C 185.449219 58.648438 185.386719 60.136719 185.0625 60.523438 C 184.914062 60.65625 184.46875 60.882812 183.164062 61.066406 C 177.789062 61.863281 172.261719 61.503906 166.5625 61.066406 C 164.5625 60.90625 162.847656 60.707031 161.746094 59.914062 C 161.199219 59.539062 160.6875 58.359375 160.726562 56.832031 C 160.789062 55.34375 161.359375 54.351562 161.867188 54.039062 C 162.886719 53.429688 164.5 53.308594 166.027344 53.207031 C 167.679688 53.082031 169.394531 53.023438 171.179688 53.023438 C 174.261719 53.023438 177.5625 53.207031 181.289062 53.59375 L 182.53125 53.691406 C 183.351562 53.730469 184.691406 53.816406 184.914062 54.101562 C 185.546875 54.898438 185.484375 56.773438 185.449219 57.976562 " fill-opacity="1" fill-rule="nonzero"/><path fill="#394d5c" d="M 181.539062 67.613281 C 180.742188 79.753906 179.449219 91.960938 177.6875 103.980469 C 177.539062 104.902344 177.339844 106.304688 176.84375 106.800781 C 176.546875 107.125 175.824219 107.507812 173.9375 107.570312 C 171.777344 107.667969 170.261719 107.320312 169.332031 106.550781 C 167.878906 105.308594 167.457031 102.703125 167.207031 100.09375 C 166.027344 89.230469 165.234375 78.191406 164.722656 67.265625 C 165.171875 67.324219 165.644531 67.363281 166.066406 67.386719 C 169.429688 67.675781 172.769531 67.898438 176.097656 67.898438 C 177.910156 67.898438 179.722656 67.808594 181.539062 67.613281 " fill-opacity="1" fill-rule="nonzero"/><path fill="#e4544f" d="M 149.5 109.484375 C 149.277344 109.855469 148.644531 110.402344 146.832031 110.847656 C 144.734375 111.382812 143.144531 111.382812 142.101562 110.8125 C 140.410156 109.929688 139.457031 107.445312 138.660156 104.960938 C 135.132812 94.257812 131.917969 83.34375 129.0625 72.480469 C 129.210938 72.441406 129.410156 72.441406 129.570312 72.441406 C 135.097656 71.933594 140.511719 71.300781 145.777344 69.746094 C 147.5625 81.953125 148.890625 94.285156 149.722656 106.550781 C 149.785156 107.546875 149.847656 108.875 149.5 109.484375 " fill-opacity="1" fill-rule="nonzero"/><path fill="#ff9292" d="M 66.46875 152.746094 C 63.699219 152.96875 60.867188 153.09375 58.011719 153.152344 C 56.746094 153.152344 55.441406 153.191406 54.160156 153.191406 L 53.566406 153.191406 C 53.402344 151.15625 53.441406 149.09375 53.589844 146.859375 C 53.886719 146.859375 54.160156 146.894531 54.421875 146.894531 C 55.441406 146.894531 56.457031 146.859375 57.441406 146.859375 C 59.191406 146.832031 60.964844 146.757812 62.71875 146.636719 C 63.351562 147.753906 64.019531 148.832031 64.652344 149.886719 L 65.734375 151.664062 C 65.957031 152.011719 66.21875 152.359375 66.46875 152.746094 " fill-opacity="1" fill-rule="nonzero"/><path fill="#5a6470" d="M 175.253906 113.828125 C 173.503906 135.445312 167.964844 155.761719 159.484375 171.269531 C 155.289062 178.96875 147.054688 185.164062 139.492188 186.34375 C 134.585938 187.101562 129.160156 186.058594 122.445312 183.066406 C 121.402344 182.59375 120.34375 182.109375 119.265625 181.640625 C 114.472656 179.417969 109.515625 177.09375 104.003906 176.324219 C 97.238281 175.40625 90.65625 176.957031 84.273438 178.460938 C 78.957031 179.726562 73.941406 180.929688 68.789062 180.746094 C 60.964844 180.496094 53.28125 176.808594 48.152344 170.898438 C 43.074219 164.949219 41.96875 158.976562 41.546875 148.609375 C 41.484375 147.019531 41.445312 145.691406 41.445312 144.375 C 42.726562 145.167969 44.179688 145.617188 45.644531 145.617188 C 46.785156 145.617188 47.941406 145.367188 48.945312 144.859375 C 48.984375 144.859375 48.984375 144.859375 48.984375 144.859375 C 48.574219 149.566406 48.449219 153.6875 49.46875 157.984375 C 50.671875 163.074219 54.199219 168.09375 58.84375 171.433594 C 63.996094 175.121094 71.171875 176.136719 80.300781 174.425781 C 82.136719 174.078125 83.988281 173.65625 85.800781 173.246094 C 90.628906 172.128906 95.175781 171.121094 99.757812 171.332031 C 105.097656 171.617188 110.136719 173.628906 115.488281 175.726562 C 117.363281 176.460938 119.238281 177.179688 121.078125 177.828125 C 130.75 181.230469 138.5 181.03125 144.792969 177.253906 C 149.5625 174.425781 153.472656 170.128906 155.820312 165.199219 C 163.457031 149.304688 167.964844 132.367188 169.691406 113.519531 C 170.832031 113.765625 172.039062 113.953125 173.402344 113.953125 C 173.664062 113.953125 173.914062 113.929688 174.199219 113.929688 C 174.546875 113.929688 174.894531 113.867188 175.253906 113.828125 " fill-opacity="1" fill-rule="nonzero"/><path fill="#e33e5c" d="M 151.152344 141.332031 C 148.992188 145.269531 144.832031 148.101562 140.558594 148.511719 C 137.292969 148.796875 134.054688 147.875 130.652344 146.859375 L 128.902344 146.324219 C 122.703125 144.535156 117.898438 144.796875 114.25 147.058594 C 111.640625 148.671875 109.988281 151.09375 108.398438 153.414062 C 107.890625 154.210938 107.382812 154.96875 106.808594 155.699219 C 101.980469 162.058594 95.90625 164.601562 88.246094 163.449219 C 81.703125 162.503906 74.449219 156.902344 69.832031 149.21875 L 68.726562 147.367188 C 68.09375 146.386719 67.484375 145.332031 66.914062 144.324219 L 67.011719 144.324219 C 68.117188 144.324219 69.234375 144.066406 70.21875 143.582031 C 71.109375 143.144531 71.84375 142.476562 72.476562 141.742188 C 74.003906 144.535156 75.617188 147.429688 77.554688 150.386719 C 80.300781 154.582031 86.050781 159.101562 92.15625 159.101562 C 97.300781 159.101562 101.78125 155.984375 105.816406 149.503906 C 107.929688 146.164062 110.136719 144.003906 113.539062 142.066406 C 115.925781 140.699219 119.179688 140.214844 122.667969 140.699219 C 125.027344 141.011719 127.796875 141.679688 130.230469 142.25 C 131.382812 142.511719 132.464844 142.761719 133.40625 142.984375 L 134.464844 143.207031 C 137.988281 144.003906 141.679688 144.796875 145.054688 141.992188 C 147.304688 140.128906 148.667969 137.421875 148.953125 134.402344 C 149.402344 129.375 148.457031 123.789062 146.097656 117.453125 C 146.832031 117.355469 147.589844 117.230469 148.382812 117.007812 C 149.078125 116.859375 149.722656 116.636719 150.359375 116.375 C 151.722656 120.347656 152.867188 124.234375 153.226562 128.207031 C 153.699219 133.859375 153.089844 137.769531 151.152344 141.332031 " fill-opacity="1" fill-rule="nonzero"/><path fill="#e33e5c" d="M 69.523438 136.949219 C 69.582031 137.867188 68.988281 138.886719 68.117188 139.296875 C 67.261719 139.742188 66.058594 139.605469 65.261719 138.949219 C 64.789062 138.5625 64.492188 137.929688 64.40625 137.296875 C 64.40625 137.074219 64.367188 136.851562 64.367188 136.625 C 64.429688 136.277344 64.53125 135.894531 64.691406 135.546875 C 65.261719 134.714844 66.34375 134.613281 66.753906 134.613281 C 66.875 134.589844 69.335938 134.613281 69.523438 136.949219 " fill-opacity="1" fill-rule="nonzero"/><path fill="#e33e5c" d="M 48.351562 138.015625 C 48.449219 139.035156 47.777344 140.128906 46.859375 140.601562 C 45.902344 141.046875 44.625 140.886719 43.769531 140.214844 C 43.074219 139.644531 42.625 138.664062 42.726562 137.792969 L 42.726562 137.769531 C 42.886719 135.671875 44.785156 135.507812 45.394531 135.507812 C 45.679688 135.507812 48.1875 135.546875 48.351562 138.015625 " fill-opacity="1" fill-rule="nonzero"/><path fill="#7d8d9c" d="M 85.066406 56.425781 C 84.78125 59.117188 84.210938 61.925781 82.238281 64.023438 C 79.890625 66.496094 76.511719 67.101562 74.164062 67.324219 C 68.191406 67.898438 62.023438 68.183594 54.992188 68.183594 C 51.019531 68.183594 46.761719 68.082031 42.117188 67.898438 C 39.410156 67.808594 35.695312 67.648438 32.742188 65.613281 C 30.234375 63.863281 28.457031 60.882812 27.875 57.378906 C 27.140625 52.796875 26.917969 45.78125 27.363281 40.714844 L 27.363281 40.652344 C 27.589844 37.835938 27.910156 34.296875 30.394531 31.824219 C 32.257812 29.976562 34.902344 28.871094 38.304688 28.484375 C 49.59375 27.242188 61.734375 27.503906 72.476562 27.714844 C 75.121094 27.777344 79.976562 28.421875 82.84375 32.171875 C 84.523438 34.359375 84.90625 37.003906 85.128906 39.324219 C 85.726562 44.988281 85.699219 50.738281 85.066406 56.425781 Z M 80.957031 106.75 C 77.28125 117.492188 67.96875 124.011719 57.214844 124.011719 C 55.179688 124.011719 53.144531 123.789062 51.058594 123.304688 C 37.347656 120.222656 30.542969 105.632812 32.804688 93.9375 C 34.070312 87.253906 38.367188 81.058594 43.96875 77.757812 C 52.609375 72.628906 64.21875 72.988281 72.191406 78.574219 C 80.648438 84.550781 84.433594 96.644531 80.957031 106.75 Z M 27.214844 84.335938 C 26.894531 84.808594 26.382812 85.070312 25.875 85.070312 C 25.550781 85.070312 25.265625 84.972656 24.980469 84.773438 C 24.261719 84.300781 24.0625 83.320312 24.535156 82.585938 C 26 80.328125 28.035156 78.414062 30.394531 77.085938 C 31.152344 76.640625 32.132812 76.898438 32.582031 77.65625 C 33.003906 78.414062 32.742188 79.40625 31.984375 79.816406 C 30.046875 80.933594 28.382812 82.488281 27.214844 84.335938 Z M 30.296875 89.105469 L 27.464844 91.292969 C 27.179688 91.515625 26.832031 91.613281 26.484375 91.613281 C 26 91.613281 25.550781 91.429688 25.242188 91.003906 C 24.695312 90.308594 24.832031 89.316406 25.527344 88.78125 L 28.320312 86.585938 C 29.027344 86.050781 30.011719 86.175781 30.542969 86.882812 C 31.089844 87.542969 30.992188 88.558594 30.296875 89.105469 Z M 22.882812 78.960938 C 22.25 78.363281 22.222656 77.371094 22.796875 76.738281 L 26.570312 72.664062 C 27.179688 72.03125 28.195312 72.007812 28.804688 72.578125 C 29.464844 73.175781 29.5 74.191406 28.890625 74.824219 L 25.140625 78.898438 C 24.832031 79.210938 24.386719 79.40625 23.960938 79.40625 C 23.589844 79.40625 23.207031 79.246094 22.882812 78.960938 Z M 91.648438 45.992188 C 91.425781 41.609375 90.816406 35.226562 87.960938 30.199219 C 85.253906 25.429688 80.363281 21.867188 74.574219 20.402344 C 67.769531 18.664062 61.835938 17.929688 56.929688 18.117188 L 56.546875 18.152344 C 50.101562 18.441406 44.5 18.6875 38.8125 20.253906 C 32.234375 22.027344 26.917969 25.714844 23.8125 30.644531 C 20.0625 36.679688 19.332031 44.539062 19.070312 52.140625 C 18.4375 73.398438 21.578125 103.433594 26.125 119.105469 C 27.847656 124.992188 29.75 131.636719 33.820312 135.894531 C 34.777344 136.914062 35.859375 137.707031 37.027344 138.464844 C 37.632812 134.042969 40.589844 129.574219 45.269531 129.535156 L 45.296875 129.535156 C 48.351562 129.535156 51.367188 131.734375 52.769531 134.976562 C 53.691406 137.171875 54.097656 139.605469 53.976562 142.089844 L 57.339844 142.089844 C 58.394531 142.066406 59.476562 141.992188 60.519531 141.964844 C 60.109375 140.785156 59.761719 139.558594 59.664062 138.214844 C 59.574219 137.746094 59.5 137.296875 59.5 136.8125 C 59.5 136.652344 59.5 136.464844 59.539062 136.304688 C 59.636719 135.261719 59.921875 134.304688 60.371094 133.472656 C 61.539062 130.863281 63.921875 129.003906 66.601562 128.777344 C 71.074219 128.457031 72.699219 131.820312 73.621094 133.859375 C 73.84375 134.367188 74.066406 134.839844 74.328125 135.324219 C 74.738281 136.019531 75.121094 136.726562 75.53125 137.421875 C 80.484375 133.0625 82.746094 125.300781 84.273438 118.25 C 90.269531 90.335938 92.605469 67.363281 91.648438 45.992188 " fill-opacity="1" fill-rule="nonzero"/><path fill="#5a6470" d="M 70.539062 109.136719 C 67.96875 112.539062 64.121094 114.746094 59.921875 115.292969 L 59.699219 115.292969 C 58.90625 115.292969 58.234375 114.722656 58.136719 113.929688 C 58.011719 113.035156 58.621094 112.238281 59.5 112.152344 C 62.816406 111.707031 65.996094 109.890625 67.996094 107.222656 C 69.992188 104.589844 70.925781 101.027344 70.402344 97.710938 C 70.277344 96.855469 70.886719 96.058594 71.78125 95.898438 C 72.601562 95.8125 73.433594 96.382812 73.558594 97.265625 C 74.191406 101.4375 73.085938 105.792969 70.539062 109.136719 Z M 49.269531 110.625 C 48.796875 111.132812 48.152344 111.382812 47.53125 111.382812 C 46.945312 111.382812 46.375 111.160156 45.902344 110.75 C 44.949219 109.832031 44.886719 108.339844 45.804688 107.382812 C 52 100.765625 58.136719 93.875 64.019531 86.882812 C 64.878906 85.863281 66.378906 85.726562 67.398438 86.585938 C 68.378906 87.453125 68.503906 88.945312 67.671875 89.925781 C 61.734375 96.992188 55.527344 103.945312 49.269531 110.625 Z M 69.460938 82.488281 C 65.808594 79.917969 61.636719 78.863281 57.664062 78.863281 C 53.402344 78.863281 49.367188 80.078125 46.375 81.855469 C 41.992188 84.460938 38.492188 89.539062 37.472656 94.855469 C 35.660156 104.367188 41.097656 116.1875 52.101562 118.671875 C 62.878906 121.082031 72.925781 115.542969 76.449219 105.1875 C 79.21875 97.175781 76.140625 87.195312 69.460938 82.488281 " fill-opacity="1" fill-rule="nonzero"/><path fill="#f4f4e6" d="M 70.378906 45.558594 L 66.304688 54.933594 C 66.058594 55.503906 65.484375 55.890625 64.839844 55.890625 C 64.652344 55.890625 64.429688 55.816406 64.246094 55.753906 C 63.425781 55.40625 63.066406 54.449219 63.386719 53.65625 L 67.449219 44.28125 C 67.808594 43.484375 68.726562 43.101562 69.558594 43.449219 C 70.351562 43.808594 70.726562 44.726562 70.378906 45.558594 Z M 60.554688 44.765625 L 56.707031 54.609375 C 56.457031 55.21875 55.851562 55.628906 55.21875 55.628906 C 55.03125 55.628906 54.832031 55.59375 54.644531 55.503906 C 53.8125 55.183594 53.402344 54.261719 53.75 53.429688 L 57.5625 43.609375 C 57.886719 42.789062 58.804688 42.378906 59.636719 42.726562 C 60.457031 43.039062 60.867188 43.96875 60.554688 44.765625 Z M 50.574219 44.539062 L 46.539062 53.691406 C 46.289062 54.300781 45.71875 54.648438 45.109375 54.648438 C 44.886719 54.648438 44.664062 54.574219 44.4375 54.488281 C 43.644531 54.140625 43.296875 53.207031 43.644531 52.414062 L 47.679688 43.261719 C 48.027344 42.46875 48.945312 42.082031 49.777344 42.46875 C 50.574219 42.816406 50.921875 43.746094 50.574219 44.539062 Z M 80.386719 39.796875 C 80.238281 38.144531 79.976562 36.269531 79.058594 35.066406 C 77.34375 32.84375 73.804688 32.519531 72.351562 32.484375 C 68.09375 32.398438 63.574219 32.296875 59.003906 32.296875 C 52.261719 32.296875 45.359375 32.484375 38.8125 33.214844 C 36.527344 33.476562 34.839844 34.136719 33.761719 35.226562 C 32.519531 36.457031 32.292969 38.777344 32.109375 41.0625 L 32.109375 41.136719 C 31.722656 45.78125 31.910156 52.449219 32.582031 56.609375 C 32.929688 58.84375 33.984375 60.683594 35.4375 61.699219 C 37.125 62.84375 39.445312 63.042969 42.277344 63.128906 C 54.871094 63.636719 64.566406 63.453125 73.71875 62.558594 C 76.191406 62.335938 77.816406 61.761719 78.773438 60.746094 C 79.789062 59.664062 80.113281 57.753906 80.324219 55.890625 C 80.90625 50.550781 80.933594 45.136719 80.386719 39.796875 " fill-opacity="1" fill-rule="nonzero"/><path fill="#f9bb4b" d="M 93.648438 125.117188 C 91.613281 133.609375 88.59375 142.945312 81.703125 148 C 81.664062 147.9375 81.601562 147.875 81.566406 147.777344 C 80.199219 145.742188 79.019531 143.679688 77.914062 141.679688 C 77.976562 141.617188 78.039062 141.582031 78.101562 141.519531 C 84.523438 136.304688 87.191406 127.339844 88.90625 119.265625 C 95.015625 90.90625 97.398438 67.585938 96.378906 45.78125 C 96.15625 40.914062 95.484375 33.726562 92.082031 27.816406 C 88.753906 21.964844 82.808594 17.582031 75.753906 15.769531 C 68.503906 13.917969 62.109375 13.125 56.707031 13.386719 L 56.320312 13.386719 C 49.878906 13.671875 43.769531 13.957031 37.546875 15.632812 C 29.824219 17.746094 23.492188 22.191406 19.765625 28.125 C 15.417969 35.089844 14.5625 43.707031 14.300781 51.964844 C 13.632812 74.03125 16.808594 104.105469 21.554688 120.445312 C 23.390625 126.84375 25.527344 134.082031 30.359375 139.195312 C 32.132812 141.070312 34.292969 142.539062 36.679688 143.71875 C 36.652344 145.429688 36.714844 147.058594 36.777344 148.832031 C 36.816406 149.691406 36.875 150.484375 36.902344 151.277344 C 32.742188 150.097656 29.339844 148.324219 26.667969 145.816406 C 21.355469 140.824219 18.820312 133 16.585938 126.097656 C 10.589844 107.632812 6.417969 72.132812 7.273438 46.988281 C 7.570312 38.082031 8.554688 28.894531 13.484375 21.867188 C 17.542969 16.054688 24.570312 11.695312 33.3125 9.574219 C 40.914062 7.722656 48.324219 7.4375 56.894531 7.089844 L 57.414062 7.054688 C 63.921875 6.804688 71.84375 7.722656 80.871094 9.761719 C 88.59375 11.535156 95.039062 15.734375 98.601562 21.296875 C 102.363281 27.144531 103.121094 34.621094 103.40625 39.734375 C 104.675781 64.980469 101.59375 92.125 93.648438 125.117188 " fill-opacity="1" fill-rule="nonzero"/><path fill="#000000" d="M 76.449219 105.1875 C 72.925781 115.542969 62.878906 121.082031 52.101562 118.671875 C 41.097656 116.1875 35.660156 104.367188 37.472656 94.855469 C 38.492188 89.539062 41.992188 84.460938 46.375 81.855469 C 49.367188 80.078125 53.402344 78.863281 57.664062 78.863281 C 61.636719 78.863281 65.808594 79.917969 69.460938 82.488281 C 76.140625 87.195312 79.21875 97.175781 76.449219 105.1875 Z M 72.191406 78.574219 C 64.21875 72.988281 52.609375 72.628906 43.96875 77.757812 C 38.367188 81.058594 34.070312 87.253906 32.804688 93.9375 C 30.542969 105.632812 37.347656 120.222656 51.058594 123.304688 C 53.144531 123.789062 55.179688 124.011719 57.214844 124.011719 C 67.96875 124.011719 77.28125 117.492188 80.957031 106.75 C 84.433594 96.644531 80.648438 84.550781 72.191406 78.574219 " fill-opacity="1" fill-rule="nonzero"/><path fill="#000000" d="M 80.324219 55.890625 C 80.113281 57.753906 79.789062 59.664062 78.773438 60.746094 C 77.816406 61.761719 76.191406 62.335938 73.71875 62.558594 C 64.566406 63.453125 54.871094 63.636719 42.277344 63.128906 C 39.445312 63.042969 37.125 62.84375 35.4375 61.699219 C 33.984375 60.683594 32.929688 58.84375 32.582031 56.609375 C 31.910156 52.449219 31.722656 45.78125 32.109375 41.136719 L 32.109375 41.0625 C 32.292969 38.777344 32.519531 36.457031 33.761719 35.226562 C 34.839844 34.136719 36.527344 33.476562 38.8125 33.214844 C 45.359375 32.484375 52.261719 32.296875 59.003906 32.296875 C 63.574219 32.296875 68.09375 32.398438 72.351562 32.484375 C 73.804688 32.519531 77.34375 32.84375 79.058594 35.066406 C 79.976562 36.269531 80.238281 38.144531 80.386719 39.796875 C 80.933594 45.136719 80.90625 50.550781 80.324219 55.890625 Z M 85.128906 39.324219 C 84.90625 37.003906 84.523438 34.359375 82.84375 32.171875 C 79.976562 28.421875 75.121094 27.777344 72.476562 27.714844 C 61.734375 27.503906 49.59375 27.242188 38.304688 28.484375 C 34.902344 28.871094 32.257812 29.976562 30.394531 31.824219 C 27.910156 34.296875 27.589844 37.835938 27.363281 40.652344 L 27.363281 40.714844 C 26.917969 45.78125 27.140625 52.796875 27.875 57.378906 C 28.457031 60.882812 30.234375 63.863281 32.742188 65.613281 C 35.695312 67.648438 39.410156 67.808594 42.117188 67.898438 C 46.761719 68.082031 51.019531 68.183594 54.992188 68.183594 C 62.023438 68.183594 68.191406 67.898438 74.164062 67.324219 C 76.511719 67.101562 79.890625 66.496094 82.238281 64.023438 C 84.210938 61.925781 84.78125 59.117188 85.066406 56.425781 C 85.699219 50.738281 85.726562 44.988281 85.128906 39.324219 " fill-opacity="1" fill-rule="nonzero"/><path fill="#000000" d="M 67.671875 89.925781 C 61.734375 96.992188 55.527344 103.945312 49.269531 110.625 C 48.796875 111.132812 48.152344 111.382812 47.53125 111.382812 C 46.945312 111.382812 46.375 111.160156 45.902344 110.75 C 44.949219 109.832031 44.886719 108.339844 45.804688 107.382812 C 52 100.765625 58.136719 93.875 64.019531 86.882812 C 64.878906 85.863281 66.378906 85.726562 67.398438 86.585938 C 68.378906 87.453125 68.503906 88.945312 67.671875 89.925781 " fill-opacity="1" fill-rule="nonzero"/><path fill="#000000" d="M 185.449219 57.976562 C 185.449219 58.648438 185.386719 60.136719 185.0625 60.523438 C 184.914062 60.65625 184.46875 60.882812 183.164062 61.066406 C 177.789062 61.863281 172.261719 61.503906 166.5625 61.066406 C 164.5625 60.90625 162.847656 60.707031 161.746094 59.914062 C 161.199219 59.539062 160.6875 58.359375 160.726562 56.832031 C 160.789062 55.34375 161.359375 54.351562 161.867188 54.039062 C 162.886719 53.429688 164.5 53.308594 166.027344 53.207031 C 167.679688 53.082031 169.394531 53.023438 171.179688 53.023438 C 174.261719 53.023438 177.5625 53.207031 181.289062 53.59375 L 182.53125 53.691406 C 183.351562 53.730469 184.691406 53.816406 184.914062 54.101562 C 185.546875 54.898438 185.484375 56.773438 185.449219 57.976562 Z M 177.6875 103.980469 C 177.539062 104.902344 177.339844 106.304688 176.84375 106.800781 C 176.546875 107.125 175.824219 107.507812 173.9375 107.570312 C 171.777344 107.667969 170.261719 107.320312 169.332031 106.550781 C 167.878906 105.308594 167.457031 102.703125 167.207031 100.09375 C 166.027344 89.230469 165.234375 78.191406 164.722656 67.265625 C 165.171875 67.324219 165.644531 67.363281 166.066406 67.386719 C 169.429688 67.675781 172.769531 67.898438 176.097656 67.898438 C 177.910156 67.898438 179.722656 67.808594 181.539062 67.613281 C 180.742188 79.753906 179.449219 91.960938 177.6875 103.980469 Z M 159.484375 171.269531 C 155.289062 178.96875 147.054688 185.164062 139.492188 186.34375 C 134.585938 187.101562 129.160156 186.058594 122.445312 183.066406 C 121.402344 182.59375 120.34375 182.109375 119.265625 181.640625 C 114.472656 179.417969 109.515625 177.09375 104.003906 176.324219 C 97.238281 175.40625 90.65625 176.957031 84.273438 178.460938 C 78.957031 179.726562 73.941406 180.929688 68.789062 180.746094 C 60.964844 180.496094 53.28125 176.808594 48.152344 170.898438 C 43.074219 164.949219 41.96875 158.976562 41.546875 148.609375 C 41.484375 147.019531 41.445312 145.691406 41.445312 144.375 C 42.726562 145.167969 44.179688 145.617188 45.644531 145.617188 C 46.785156 145.617188 47.941406 145.367188 48.945312 144.859375 C 48.984375 144.859375 48.984375 144.859375 48.984375 144.859375 C 48.574219 149.566406 48.449219 153.6875 49.46875 157.984375 C 50.671875 163.074219 54.199219 168.09375 58.84375 171.433594 C 63.996094 175.121094 71.171875 176.136719 80.300781 174.425781 C 82.136719 174.078125 83.988281 173.65625 85.800781 173.246094 C 90.628906 172.128906 95.175781 171.121094 99.757812 171.332031 C 105.097656 171.617188 110.136719 173.628906 115.488281 175.726562 C 117.363281 176.460938 119.238281 177.179688 121.078125 177.828125 C 130.75 181.230469 138.5 181.03125 144.792969 177.253906 C 149.5625 174.425781 153.472656 170.128906 155.820312 165.199219 C 163.457031 149.304688 167.964844 132.367188 169.691406 113.519531 C 170.832031 113.765625 172.039062 113.953125 173.402344 113.953125 C 173.664062 113.953125 173.914062 113.929688 174.199219 113.929688 C 174.546875 113.929688 174.894531 113.867188 175.253906 113.828125 C 173.503906 135.445312 167.964844 155.761719 159.484375 171.269531 Z M 48.351562 138.015625 C 48.449219 139.035156 47.777344 140.128906 46.859375 140.601562 C 45.902344 141.046875 44.625 140.886719 43.769531 140.214844 C 43.074219 139.644531 42.625 138.664062 42.726562 137.792969 L 42.726562 137.769531 C 42.886719 135.671875 44.785156 135.507812 45.394531 135.507812 C 45.679688 135.507812 48.1875 135.546875 48.351562 138.015625 Z M 37.027344 138.464844 C 35.859375 137.707031 34.777344 136.914062 33.820312 135.894531 C 29.75 131.636719 27.847656 124.992188 26.125 119.105469 C 21.578125 103.433594 18.4375 73.398438 19.070312 52.140625 C 19.332031 44.539062 20.0625 36.679688 23.8125 30.644531 C 26.917969 25.714844 32.234375 22.027344 38.8125 20.253906 C 44.5 18.6875 50.101562 18.441406 56.546875 18.152344 L 56.929688 18.117188 C 61.835938 17.929688 67.769531 18.664062 74.574219 20.402344 C 80.363281 21.867188 85.253906 25.429688 87.960938 30.199219 C 90.816406 35.226562 91.425781 41.609375 91.648438 45.992188 C 92.605469 67.363281 90.269531 90.335938 84.273438 118.25 C 82.746094 125.300781 80.484375 133.0625 75.53125 137.421875 C 75.121094 136.726562 74.738281 136.019531 74.328125 135.324219 C 74.066406 134.839844 73.84375 134.367188 73.621094 133.859375 C 72.699219 131.820312 71.074219 128.457031 66.601562 128.777344 C 63.921875 129.003906 61.539062 130.863281 60.371094 133.472656 C 59.921875 134.304688 59.636719 135.261719 59.539062 136.304688 C 59.5 136.464844 59.5 136.652344 59.5 136.8125 C 59.5 137.296875 59.574219 137.746094 59.664062 138.214844 C 59.761719 139.558594 60.109375 140.785156 60.519531 141.964844 C 59.476562 141.992188 58.394531 142.066406 57.339844 142.089844 L 53.976562 142.089844 C 54.097656 139.605469 53.691406 137.171875 52.769531 134.976562 C 51.367188 131.734375 48.351562 129.535156 45.296875 129.535156 L 45.269531 129.535156 C 40.589844 129.574219 37.632812 134.042969 37.027344 138.464844 Z M 26.667969 145.816406 C 21.355469 140.824219 18.820312 133 16.585938 126.097656 C 10.589844 107.632812 6.417969 72.132812 7.273438 46.988281 C 7.570312 38.082031 8.554688 28.894531 13.484375 21.867188 C 17.542969 16.054688 24.570312 11.695312 33.3125 9.574219 C 40.914062 7.722656 48.324219 7.4375 56.894531 7.089844 L 57.414062 7.054688 C 63.921875 6.804688 71.84375 7.722656 80.871094 9.761719 C 88.59375 11.535156 95.039062 15.734375 98.601562 21.296875 C 102.363281 27.144531 103.121094 34.621094 103.40625 39.734375 C 104.675781 64.980469 101.59375 92.125 93.648438 125.117188 C 91.613281 133.609375 88.59375 142.945312 81.703125 148 C 81.664062 147.9375 81.601562 147.875 81.566406 147.777344 C 80.199219 145.742188 79.019531 143.679688 77.914062 141.679688 C 77.976562 141.617188 78.039062 141.582031 78.101562 141.519531 C 84.523438 136.304688 87.191406 127.339844 88.90625 119.265625 C 95.015625 90.90625 97.398438 67.585938 96.378906 45.78125 C 96.15625 40.914062 95.484375 33.726562 92.082031 27.816406 C 88.753906 21.964844 82.808594 17.582031 75.753906 15.769531 C 68.503906 13.917969 62.109375 13.125 56.707031 13.386719 L 56.320312 13.386719 C 49.878906 13.671875 43.769531 13.957031 37.546875 15.632812 C 29.824219 17.746094 23.492188 22.191406 19.765625 28.125 C 15.417969 35.089844 14.5625 43.707031 14.300781 51.964844 C 13.632812 74.03125 16.808594 104.105469 21.554688 120.445312 C 23.390625 126.84375 25.527344 134.082031 30.359375 139.195312 C 32.132812 141.070312 34.292969 142.539062 36.679688 143.71875 C 36.652344 145.429688 36.714844 147.058594 36.777344 148.832031 C 36.816406 149.691406 36.875 150.484375 36.902344 151.277344 C 32.742188 150.097656 29.339844 148.324219 26.667969 145.816406 Z M 58.109375 159.511719 C 62.371094 159.425781 66.566406 159.324219 70.726562 158.71875 C 70.824219 158.679688 70.925781 158.628906 71.011719 158.59375 C 75.753906 163.671875 81.480469 167.109375 87.066406 168.066406 C 86.296875 168.253906 85.503906 168.414062 84.746094 168.601562 C 82.96875 168.984375 81.179688 169.394531 79.40625 169.742188 C 71.644531 171.207031 65.671875 170.476562 61.636719 167.558594 C 58.742188 165.523438 56.398438 162.566406 55.03125 159.511719 Z M 64.367188 136.625 C 64.429688 136.277344 64.53125 135.894531 64.691406 135.546875 C 65.261719 134.714844 66.34375 134.613281 66.753906 134.613281 C 66.875 134.589844 69.335938 134.613281 69.523438 136.949219 C 69.582031 137.867188 68.988281 138.886719 68.117188 139.296875 C 67.261719 139.742188 66.058594 139.605469 65.261719 138.949219 C 64.789062 138.5625 64.492188 137.929688 64.40625 137.296875 C 64.40625 137.074219 64.367188 136.851562 64.367188 136.625 Z M 64.652344 149.886719 L 65.734375 151.664062 C 65.957031 152.011719 66.21875 152.359375 66.46875 152.746094 C 63.699219 152.96875 60.867188 153.09375 58.011719 153.152344 C 56.746094 153.152344 55.441406 153.191406 54.160156 153.191406 L 53.566406 153.191406 C 53.402344 151.15625 53.441406 149.09375 53.589844 146.859375 C 53.886719 146.859375 54.160156 146.894531 54.421875 146.894531 C 55.441406 146.894531 56.457031 146.859375 57.441406 146.859375 C 59.191406 146.832031 60.964844 146.757812 62.71875 146.636719 C 63.351562 147.753906 64.019531 148.832031 64.652344 149.886719 Z M 92.15625 159.101562 C 97.300781 159.101562 101.78125 155.984375 105.816406 149.503906 C 107.929688 146.164062 110.136719 144.003906 113.539062 142.066406 C 115.925781 140.699219 119.179688 140.214844 122.667969 140.699219 C 125.027344 141.011719 127.796875 141.679688 130.230469 142.25 C 131.382812 142.511719 132.464844 142.761719 133.40625 142.984375 L 134.464844 143.207031 C 137.988281 144.003906 141.679688 144.796875 145.054688 141.992188 C 147.304688 140.128906 148.667969 137.421875 148.953125 134.402344 C 149.402344 129.375 148.457031 123.789062 146.097656 117.453125 C 146.832031 117.355469 147.589844 117.230469 148.382812 117.007812 C 149.078125 116.859375 149.722656 116.636719 150.359375 116.375 C 151.722656 120.347656 152.867188 124.234375 153.226562 128.207031 C 153.699219 133.859375 153.089844 137.769531 151.152344 141.332031 C 148.992188 145.269531 144.832031 148.101562 140.558594 148.511719 C 137.292969 148.796875 134.054688 147.875 130.652344 146.859375 L 128.902344 146.324219 C 122.703125 144.535156 117.898438 144.796875 114.25 147.058594 C 111.640625 148.671875 109.988281 151.09375 108.398438 153.414062 C 107.890625 154.210938 107.382812 154.96875 106.808594 155.699219 C 101.980469 162.058594 95.90625 164.601562 88.246094 163.449219 C 81.703125 162.503906 74.449219 156.902344 69.832031 149.21875 L 68.726562 147.367188 C 68.09375 146.386719 67.484375 145.332031 66.914062 144.324219 L 67.011719 144.324219 C 68.117188 144.324219 69.234375 144.066406 70.21875 143.582031 C 71.109375 143.144531 71.84375 142.476562 72.476562 141.742188 C 74.003906 144.535156 75.617188 147.429688 77.554688 150.386719 C 80.300781 154.582031 86.050781 159.101562 92.15625 159.101562 Z M 142.101562 110.8125 C 140.410156 109.929688 139.457031 107.445312 138.660156 104.960938 C 135.132812 94.257812 131.917969 83.34375 129.0625 72.480469 C 129.210938 72.441406 129.410156 72.441406 129.570312 72.441406 C 135.097656 71.933594 140.511719 71.300781 145.777344 69.746094 C 147.5625 81.953125 148.890625 94.285156 149.722656 106.550781 C 149.785156 107.546875 149.847656 108.875 149.5 109.484375 C 149.277344 109.855469 148.644531 110.402344 146.832031 110.847656 C 144.734375 111.382812 143.144531 111.382812 142.101562 110.8125 Z M 124.03125 65.800781 C 123.4375 65.550781 122.730469 64.46875 122.503906 62.941406 C 122.320312 61.453125 122.703125 60.359375 123.152344 59.988281 C 124.070312 59.21875 125.683594 58.808594 127.125 58.460938 C 131.507812 57.34375 136.3125 56.648438 142.222656 56.238281 C 142.632812 56.199219 143.042969 56.164062 143.464844 56.113281 C 143.9375 56.074219 144.609375 55.976562 145.105469 55.976562 C 145.488281 55.976562 145.777344 56.015625 145.875 56.113281 C 146.644531 56.773438 146.894531 58.648438 147.078125 59.863281 C 147.140625 60.460938 147.363281 61.988281 147.117188 62.398438 C 146.992188 62.59375 146.570312 62.878906 145.328125 63.289062 C 140.1875 64.980469 134.648438 65.574219 128.960938 66.085938 C 127 66.269531 125.238281 66.371094 124.03125 65.800781 Z M 129.210938 26.757812 C 128.902344 26.832031 128.589844 26.894531 128.265625 26.984375 C 127.84375 27.121094 127.433594 27.242188 127 27.367188 C 126.105469 22.734375 125.335938 18.015625 124.828125 13.347656 Z M 134.402344 32.894531 C 135.222656 33.414062 135.828125 34.742188 136.402344 36.109375 C 138.3125 40.59375 139.988281 45.234375 141.515625 49.90625 C 135.542969 50.328125 130.613281 51.046875 126.03125 52.164062 C 125.4375 47.78125 125.1875 43.324219 125.335938 38.878906 C 125.410156 37.289062 125.558594 35.664062 126.253906 34.84375 C 126.964844 33.984375 128.515625 33.5 129.917969 33.117188 C 131.472656 32.707031 133.382812 32.296875 134.402344 32.894531 Z M 166.289062 37.660156 C 166.785156 34.109375 167.394531 32.097656 169.367188 31.03125 C 170.710938 30.296875 172.546875 30.199219 173.976562 30.234375 C 175.15625 30.261719 176.804688 30.359375 177.6875 31.054688 C 178.394531 31.625 178.90625 32.804688 179.226562 33.789062 C 180.71875 38.023438 181.191406 42.628906 181.476562 47.199219 C 175.441406 46.625 170.347656 46.503906 165.554688 46.851562 C 165.496094 46.851562 165.394531 46.886719 165.296875 46.886719 C 165.496094 43.707031 165.765625 41.0625 166.289062 37.660156 Z M 172.894531 13.386719 L 174.199219 23.878906 L 174.039062 23.878906 C 173.464844 23.878906 172.871094 23.878906 172.222656 23.902344 C 172.347656 20.402344 172.570312 16.875 172.894531 13.386719 Z M 189.832031 50.101562 C 189.261719 49.394531 188.628906 48.886719 187.933594 48.515625 C 187.609375 42.949219 187.175781 37.25 185.226562 31.6875 C 184.628906 29.914062 183.636719 27.652344 181.636719 26.0625 C 180.84375 25.429688 179.984375 25.046875 179.128906 24.699219 L 177.117188 8.554688 C 177.03125 7.785156 176.894531 6.742188 176.320312 5.75 C 175.476562 4.257812 173.886719 3.441406 172.347656 3.625 C 171.40625 3.75 169.144531 4.457031 168.671875 8.257812 C 168.003906 13.796875 167.582031 19.382812 167.394531 24.984375 C 167.046875 25.121094 166.660156 25.246094 166.3125 25.429688 C 161.582031 28.039062 160.566406 32.644531 159.992188 36.742188 C 159.359375 41.039062 159.0625 44.15625 158.839844 48.476562 C 158.789062 48.515625 158.691406 48.539062 158.613281 48.574219 C 156.082031 50.066406 154.515625 53.082031 154.394531 56.609375 C 154.269531 60.210938 155.660156 63.453125 158.117188 65.128906 C 158.144531 65.164062 158.179688 65.203125 158.242188 65.203125 C 158.75 77.050781 159.632812 89.007812 160.875 100.765625 C 161.261719 104.417969 161.96875 108.527344 165.109375 111.257812 C 163.582031 130.269531 159.160156 147.28125 151.539062 163.175781 C 149.601562 167.171875 146.261719 170.824219 142.347656 173.144531 C 137.332031 176.164062 130.898438 176.238281 122.667969 173.34375 C 120.855469 172.710938 119.054688 171.976562 117.242188 171.269531 C 111.949219 169.210938 106.488281 167.109375 100.640625 166.664062 C 104.363281 165.039062 107.730469 162.378906 110.585938 158.59375 C 111.230469 157.796875 111.800781 156.941406 112.375 156.070312 C 113.703125 154.074219 115.003906 152.199219 116.757812 151.09375 C 119.203125 149.589844 122.730469 149.527344 127.570312 150.929688 L 129.285156 151.402344 C 133 152.519531 136.808594 153.664062 141.042969 153.253906 C 146.917969 152.683594 152.394531 148.996094 155.347656 143.617188 C 158.367188 138.054688 158.367188 132.492188 157.957031 127.785156 C 157.546875 122.832031 155.984375 118.101562 154.394531 113.480469 C 154.59375 113.234375 154.816406 113.007812 154.964844 112.722656 C 156.332031 110.425781 156.179688 107.820312 156.042969 106.140625 C 155.1875 92.980469 153.761719 79.730469 151.761719 66.65625 C 151.984375 66.445312 152.207031 66.222656 152.394531 65.960938 C 154.019531 63.515625 153.597656 60.65625 153.375 58.96875 C 153.089844 56.933594 152.617188 53.53125 150.046875 51.34375 C 149.5 50.859375 148.929688 50.511719 148.320312 50.253906 C 146.570312 44.628906 144.535156 39.039062 142.285156 33.636719 C 141.332031 31.402344 140.125 28.917969 137.640625 27.429688 C 136.5 26.757812 135.296875 26.410156 134.078125 26.289062 L 128.515625 9.226562 C 128.292969 8.519531 127.945312 7.4375 127.050781 6.542969 C 125.882812 5.375 124.09375 4.890625 122.605469 5.300781 C 121.871094 5.5 119.464844 6.480469 119.773438 10.167969 C 120.28125 16.652344 121.238281 23.207031 122.542969 29.628906 C 122.132812 29.976562 121.710938 30.359375 121.339844 30.808594 C 119.464844 33.09375 119.101562 35.921875 118.980469 38.628906 C 118.792969 43.933594 119.101562 49.273438 119.972656 54.488281 C 119.648438 54.710938 119.328125 54.898438 119.015625 55.144531 C 116.792969 57.058594 115.738281 60.296875 116.222656 63.800781 C 116.695312 67.324219 118.667969 70.320312 121.339844 71.585938 C 121.648438 71.710938 122.007812 71.832031 122.320312 71.933594 C 125.375 83.628906 128.800781 95.425781 132.613281 106.972656 C 133.769531 110.5 135.359375 114.472656 139.132812 116.4375 C 139.640625 116.722656 140.210938 116.882812 140.757812 117.042969 C 143.464844 123.5625 144.632812 129.152344 144.1875 133.957031 C 144.125 134.976562 143.714844 136.914062 142 138.316406 C 140.472656 139.582031 138.722656 139.257812 135.519531 138.5625 L 134.425781 138.316406 C 133.484375 138.117188 132.425781 137.867188 131.320312 137.609375 C 128.777344 137 125.90625 136.304688 123.300781 135.957031 C 120.097656 135.507812 115.390625 135.507812 111.195312 137.929688 C 107.097656 140.253906 104.300781 142.984375 101.78125 146.984375 C 97.648438 153.5625 94.320312 154.332031 92.15625 154.332031 C 90.308594 154.332031 88.246094 153.601562 86.335938 152.398438 C 94.195312 146.0625 97.597656 135.855469 99.808594 126.617188 C 107.929688 92.980469 111.070312 65.289062 109.726562 39.425781 C 109.441406 33.5625 108.523438 24.984375 103.980469 17.894531 C 99.535156 10.902344 91.613281 5.6875 82.273438 3.5625 C 72.699219 1.402344 64.246094 0.410156 57.152344 0.734375 L 56.644531 0.734375 C 48.101562 1.082031 40.019531 1.402344 31.824219 3.402344 C 21.578125 5.875 13.222656 11.164062 8.265625 18.214844 C 2.382812 26.609375 1.238281 36.902344 0.917969 46.761719 C 0.0351562 72.988281 4.257812 108.6875 10.527344 128.046875 C 13 135.671875 15.828125 144.324219 22.3125 150.460938 C 26.261719 154.136719 31.214844 156.617188 37.449219 158.046875 L 37.570312 158.046875 C 38.527344 164.316406 40.402344 169.171875 44.539062 173.976562 C 50.511719 180.90625 59.5 185.226562 68.628906 185.511719 C 74.375 185.636719 79.976562 184.371094 85.378906 183.105469 C 91.613281 181.640625 97.496094 180.273438 103.371094 181.066406 C 108.140625 181.726562 112.597656 183.761719 117.265625 185.960938 C 118.347656 186.433594 119.425781 186.941406 120.507812 187.425781 C 126.453125 190.058594 131.570312 191.363281 136.339844 191.363281 C 137.640625 191.363281 138.945312 191.238281 140.210938 191.050781 C 149.300781 189.648438 158.714844 182.621094 163.679688 173.53125 C 172.707031 157.003906 178.519531 135.285156 180.171875 112.277344 C 180.65625 111.953125 181.128906 111.570312 181.539062 111.132812 C 183.351562 109.160156 183.734375 106.589844 183.996094 104.902344 C 185.859375 92.085938 187.222656 79.058594 188.019531 66.121094 C 188.601562 65.800781 189.136719 65.425781 189.644531 64.90625 C 191.683594 62.78125 191.78125 59.886719 191.804688 58.175781 C 191.867188 56.136719 191.96875 52.710938 189.832031 50.101562 " fill-opacity="1" fill-rule="nonzero"/><path fill="#000000" d="M 50.574219 44.539062 L 46.539062 53.691406 C 46.289062 54.300781 45.71875 54.648438 45.109375 54.648438 C 44.886719 54.648438 44.664062 54.574219 44.4375 54.488281 C 43.644531 54.140625 43.296875 53.207031 43.644531 52.414062 L 47.679688 43.261719 C 48.027344 42.46875 48.945312 42.082031 49.777344 42.46875 C 50.574219 42.816406 50.921875 43.746094 50.574219 44.539062 " fill-opacity="1" fill-rule="nonzero"/><path fill="#000000" d="M 60.554688 44.765625 L 56.707031 54.609375 C 56.457031 55.21875 55.851562 55.628906 55.21875 55.628906 C 55.03125 55.628906 54.832031 55.59375 54.644531 55.503906 C 53.8125 55.183594 53.402344 54.261719 53.75 53.429688 L 57.5625 43.609375 C 57.886719 42.789062 58.804688 42.378906 59.636719 42.726562 C 60.457031 43.039062 60.867188 43.96875 60.554688 44.765625 " fill-opacity="1" fill-rule="nonzero"/><path fill="#000000" d="M 70.378906 45.558594 L 66.304688 54.933594 C 66.058594 55.503906 65.484375 55.890625 64.839844 55.890625 C 64.652344 55.890625 64.429688 55.816406 64.246094 55.753906 C 63.425781 55.40625 63.066406 54.449219 63.386719 53.65625 L 67.449219 44.28125 C 67.808594 43.484375 68.726562 43.101562 69.558594 43.449219 C 70.351562 43.808594 70.726562 44.726562 70.378906 45.558594 " fill-opacity="1" fill-rule="nonzero"/><path fill="#000000" d="M 28.890625 74.824219 L 25.140625 78.898438 C 24.832031 79.210938 24.386719 79.40625 23.960938 79.40625 C 23.589844 79.40625 23.207031 79.246094 22.882812 78.960938 C 22.25 78.363281 22.222656 77.371094 22.796875 76.738281 L 26.570312 72.664062 C 27.179688 72.03125 28.195312 72.007812 28.804688 72.578125 C 29.464844 73.175781 29.5 74.191406 28.890625 74.824219 " fill-opacity="1" fill-rule="nonzero"/><path fill="#000000" d="M 31.984375 79.816406 C 30.046875 80.933594 28.382812 82.488281 27.214844 84.335938 C 26.894531 84.808594 26.382812 85.070312 25.875 85.070312 C 25.550781 85.070312 25.265625 84.972656 24.980469 84.773438 C 24.261719 84.300781 24.0625 83.320312 24.535156 82.585938 C 26 80.328125 28.035156 78.414062 30.394531 77.085938 C 31.152344 76.640625 32.132812 76.898438 32.582031 77.65625 C 33.003906 78.414062 32.742188 79.40625 31.984375 79.816406 " fill-opacity="1" fill-rule="nonzero"/><path fill="#000000" d="M 30.296875 89.105469 L 27.464844 91.292969 C 27.179688 91.515625 26.832031 91.613281 26.484375 91.613281 C 26 91.613281 25.550781 91.429688 25.242188 91.003906 C 24.695312 90.308594 24.832031 89.316406 25.527344 88.78125 L 28.320312 86.585938 C 29.027344 86.050781 30.011719 86.175781 30.542969 86.882812 C 31.089844 87.542969 30.992188 88.558594 30.296875 89.105469 " fill-opacity="1" fill-rule="nonzero"/><path fill="#000000" d="M 70.539062 109.136719 C 67.96875 112.539062 64.121094 114.746094 59.921875 115.292969 L 59.699219 115.292969 C 58.90625 115.292969 58.234375 114.722656 58.136719 113.929688 C 58.011719 113.035156 58.621094 112.238281 59.5 112.152344 C 62.816406 111.707031 65.996094 109.890625 67.996094 107.222656 C 69.992188 104.589844 70.925781 101.027344 70.402344 97.710938 C 70.277344 96.855469 70.886719 96.058594 71.78125 95.898438 C 72.601562 95.8125 73.433594 96.382812 73.558594 97.265625 C 74.191406 101.4375 73.085938 105.792969 70.539062 109.136719 " fill-opacity="1" fill-rule="nonzero"/></svg>