<svg xmlns="http://www.w3.org/2000/svg" xmlns:xlink="http://www.w3.org/1999/xlink" width="40" zoomAndPan="magnify" viewBox="0 0 30 30.000001" height="40" preserveAspectRatio="xMidYMid meet" version="1.0"><defs><clipPath id="df3ca34656"><path d="M 0.484375 0.144531 L 29.515625 0.144531 L 29.515625 29.03125 L 0.484375 29.03125 Z M 0.484375 0.144531 " clip-rule="nonzero"/></clipPath></defs><g clip-path="url(#df3ca34656)"><path fill="#ffffff" d="M 14.925781 29.03125 C 14.746094 29.03125 14.589844 28.964844 14.460938 28.835938 L 11.816406 26.191406 L 8.203125 27.160156 C 8.027344 27.207031 7.863281 27.1875 7.703125 27.09375 C 7.546875 27.003906 7.445312 26.871094 7.398438 26.695312 L 6.429688 23.082031 L 2.816406 22.113281 C 2.640625 22.066406 2.507812 21.964844 2.417969 21.808594 C 2.328125 21.652344 2.304688 21.484375 2.351562 21.3125 L 3.320312 17.695312 L 0.675781 15.050781 C 0.546875 14.921875 0.484375 14.769531 0.484375 14.585938 C 0.484375 14.40625 0.546875 14.25 0.675781 14.125 L 3.320312 11.476562 L 2.351562 7.863281 C 2.304688 7.6875 2.328125 7.523438 2.417969 7.367188 C 2.507812 7.210938 2.640625 7.109375 2.816406 7.0625 L 6.429688 6.09375 L 7.398438 2.480469 C 7.445312 2.304688 7.546875 2.171875 7.703125 2.078125 C 7.863281 1.988281 8.027344 1.96875 8.203125 2.015625 L 11.816406 2.984375 L 14.460938 0.335938 C 14.589844 0.210938 14.746094 0.144531 14.925781 0.144531 C 15.109375 0.144531 15.261719 0.210938 15.390625 0.335938 L 18.035156 2.984375 L 21.648438 2.015625 C 21.824219 1.96875 21.992188 1.988281 22.148438 2.078125 C 22.304688 2.171875 22.40625 2.304688 22.453125 2.480469 L 23.421875 6.09375 L 27.035156 7.0625 C 27.210938 7.109375 27.34375 7.210938 27.433594 7.367188 C 27.523438 7.523438 27.546875 7.6875 27.5 7.863281 L 26.53125 11.476562 L 29.175781 14.125 C 29.304688 14.25 29.367188 14.40625 29.367188 14.585938 C 29.367188 14.769531 29.304688 14.921875 29.175781 15.050781 L 26.53125 17.699219 L 27.5 21.3125 C 27.546875 21.484375 27.523438 21.652344 27.433594 21.808594 C 27.34375 21.964844 27.210938 22.066406 27.035156 22.113281 L 23.421875 23.082031 L 22.453125 26.695312 C 22.40625 26.871094 22.304688 27.003906 22.148438 27.09375 C 21.992188 27.1875 21.824219 27.207031 21.648438 27.160156 L 18.035156 26.191406 L 15.390625 28.839844 C 15.261719 28.964844 15.109375 29.03125 14.925781 29.03125 Z M 12.011719 24.804688 C 12.195312 24.804688 12.347656 24.867188 12.476562 24.996094 L 14.925781 27.445312 L 17.375 24.996094 C 17.554688 24.816406 17.765625 24.761719 18.007812 24.824219 L 21.355469 25.722656 L 22.25 22.378906 C 22.316406 22.132812 22.472656 21.976562 22.714844 21.914062 L 26.0625 21.015625 L 25.164062 17.671875 C 25.097656 17.425781 25.15625 17.214844 25.335938 17.035156 L 27.785156 14.585938 L 25.335938 12.136719 C 25.15625 11.960938 25.097656 11.75 25.164062 11.503906 L 26.0625 8.160156 L 22.714844 7.261719 C 22.472656 7.195312 22.316406 7.042969 22.25 6.796875 L 21.355469 3.453125 L 18.007812 4.347656 C 17.765625 4.414062 17.554688 4.359375 17.375 4.179688 L 14.925781 1.730469 L 12.476562 4.179688 C 12.296875 4.359375 12.085938 4.414062 11.84375 4.347656 L 8.496094 3.453125 L 7.601562 6.796875 C 7.535156 7.042969 7.382812 7.195312 7.136719 7.261719 L 3.792969 8.160156 L 4.6875 11.503906 C 4.753906 11.75 4.695312 11.960938 4.519531 12.136719 L 2.070312 14.585938 L 4.519531 17.035156 C 4.695312 17.214844 4.753906 17.425781 4.6875 17.671875 L 3.792969 21.015625 L 7.136719 21.914062 C 7.382812 21.976562 7.535156 22.132812 7.601562 22.378906 L 8.496094 25.722656 L 11.84375 24.824219 C 11.898438 24.8125 11.957031 24.804688 12.011719 24.804688 Z M 12.011719 24.804688 " fill-opacity="1" fill-rule="nonzero"/></g><path fill="#ffffff" d="M 11.644531 13.929688 C 11.296875 13.929688 10.960938 13.863281 10.640625 13.730469 C 10.316406 13.597656 10.035156 13.410156 9.789062 13.160156 C 9.539062 12.914062 9.351562 12.632812 9.21875 12.308594 C 9.085938 11.988281 9.019531 11.652344 9.019531 11.304688 C 9.019531 10.957031 9.085938 10.621094 9.21875 10.300781 C 9.351562 9.980469 9.539062 9.695312 9.789062 9.449219 C 10.035156 9.203125 10.316406 9.011719 10.640625 8.878906 C 10.960938 8.746094 11.296875 8.679688 11.644531 8.679688 C 11.992188 8.679688 12.328125 8.746094 12.648438 8.878906 C 12.96875 9.011719 13.253906 9.203125 13.5 9.449219 C 13.746094 9.695312 13.9375 9.980469 14.070312 10.300781 C 14.203125 10.621094 14.269531 10.957031 14.269531 11.304688 C 14.269531 11.652344 14.203125 11.988281 14.070312 12.308594 C 13.9375 12.632812 13.746094 12.914062 13.5 13.160156 C 13.253906 13.40625 12.96875 13.597656 12.648438 13.730469 C 12.328125 13.863281 11.992188 13.929688 11.644531 13.929688 Z M 11.644531 9.992188 C 11.46875 9.992188 11.300781 10.027344 11.140625 10.09375 C 10.980469 10.160156 10.839844 10.253906 10.714844 10.375 C 10.59375 10.5 10.496094 10.640625 10.429688 10.804688 C 10.363281 10.964844 10.332031 11.132812 10.332031 11.304688 C 10.332031 11.480469 10.363281 11.648438 10.429688 11.808594 C 10.496094 11.96875 10.59375 12.109375 10.714844 12.234375 C 10.839844 12.355469 10.980469 12.453125 11.140625 12.519531 C 11.300781 12.585938 11.46875 12.617188 11.644531 12.617188 C 11.816406 12.617188 11.984375 12.585938 12.144531 12.519531 C 12.308594 12.453125 12.449219 12.355469 12.574219 12.234375 C 12.695312 12.109375 12.789062 11.96875 12.855469 11.808594 C 12.921875 11.648438 12.957031 11.480469 12.957031 11.304688 C 12.957031 11.132812 12.921875 10.964844 12.855469 10.804688 C 12.789062 10.640625 12.695312 10.5 12.570312 10.378906 C 12.449219 10.253906 12.308594 10.160156 12.144531 10.09375 C 11.984375 10.027344 11.816406 9.992188 11.644531 9.992188 Z M 11.644531 9.992188 " fill-opacity="1" fill-rule="nonzero"/><path fill="#ffffff" d="M 18.207031 20.496094 C 17.859375 20.496094 17.527344 20.429688 17.203125 20.296875 C 16.882812 20.164062 16.597656 19.972656 16.351562 19.726562 C 16.105469 19.480469 15.914062 19.195312 15.78125 18.875 C 15.648438 18.554688 15.582031 18.21875 15.582031 17.871094 C 15.582031 17.523438 15.648438 17.1875 15.78125 16.863281 C 15.914062 16.542969 16.105469 16.257812 16.351562 16.011719 C 16.597656 15.765625 16.882812 15.578125 17.203125 15.445312 C 17.527344 15.3125 17.859375 15.242188 18.207031 15.242188 C 18.558594 15.242188 18.890625 15.3125 19.214844 15.445312 C 19.535156 15.578125 19.820312 15.765625 20.066406 16.011719 C 20.3125 16.257812 20.5 16.542969 20.632812 16.863281 C 20.769531 17.1875 20.835938 17.523438 20.835938 17.871094 C 20.835938 18.21875 20.765625 18.554688 20.632812 18.875 C 20.5 19.195312 20.3125 19.480469 20.066406 19.726562 C 19.820312 19.972656 19.535156 20.160156 19.214844 20.296875 C 18.890625 20.429688 18.558594 20.496094 18.207031 20.496094 Z M 18.207031 16.558594 C 18.035156 16.558594 17.867188 16.589844 17.707031 16.65625 C 17.546875 16.722656 17.402344 16.820312 17.28125 16.941406 C 17.15625 17.066406 17.0625 17.207031 16.996094 17.367188 C 16.929688 17.527344 16.894531 17.695312 16.894531 17.871094 C 16.894531 18.042969 16.929688 18.210938 16.996094 18.371094 C 17.0625 18.535156 17.15625 18.675781 17.28125 18.796875 C 17.402344 18.921875 17.546875 19.015625 17.707031 19.082031 C 17.867188 19.148438 18.035156 19.183594 18.207031 19.183594 C 18.382812 19.183594 18.550781 19.148438 18.710938 19.082031 C 18.871094 19.015625 19.015625 18.921875 19.136719 18.796875 C 19.261719 18.675781 19.355469 18.535156 19.421875 18.371094 C 19.488281 18.210938 19.523438 18.042969 19.523438 17.871094 C 19.519531 17.695312 19.488281 17.527344 19.421875 17.367188 C 19.355469 17.207031 19.257812 17.066406 19.136719 16.941406 C 19.011719 16.820312 18.871094 16.722656 18.710938 16.65625 C 18.550781 16.589844 18.382812 16.558594 18.207031 16.558594 Z M 18.207031 16.558594 " fill-opacity="1" fill-rule="nonzero"/><path fill="#ffffff" d="M 10.988281 20.496094 C 10.714844 20.496094 10.519531 20.375 10.398438 20.132812 C 10.28125 19.890625 10.300781 19.660156 10.460938 19.445312 L 18.339844 8.941406 C 18.449219 8.796875 18.59375 8.710938 18.773438 8.6875 C 18.953125 8.660156 19.113281 8.703125 19.257812 8.8125 C 19.402344 8.917969 19.488281 9.0625 19.515625 9.242188 C 19.539062 9.421875 19.5 9.585938 19.390625 9.730469 L 11.511719 20.234375 C 11.382812 20.410156 11.207031 20.496094 10.988281 20.496094 Z M 10.988281 20.496094 " fill-opacity="1" fill-rule="nonzero"/></svg>