<svg xmlns="http://www.w3.org/2000/svg" xmlns:xlink="http://www.w3.org/1999/xlink" width="40" zoomAndPan="magnify" viewBox="0 0 30 30.000001" height="40" preserveAspectRatio="xMidYMid meet" version="1.0"><defs><clipPath id="36d6e33e27"><path d="M 0.484375 0 L 29.515625 0 L 29.515625 29.03125 L 0.484375 29.03125 Z M 0.484375 0 " clip-rule="nonzero"/></clipPath></defs><g clip-path="url(#36d6e33e27)"><path fill="#000000" d="M 17.675781 14.414062 C 17.605469 14.277344 17.464844 14.1875 17.3125 14.1875 L 15.390625 14.1875 L 15.914062 12.765625 C 15.957031 12.640625 15.941406 12.5 15.863281 12.390625 C 15.785156 12.28125 15.660156 12.214844 15.527344 12.214844 L 13.882812 12.214844 C 13.707031 12.214844 13.550781 12.324219 13.496094 12.492188 L 12.308594 16.003906 C 12.265625 16.128906 12.285156 16.265625 12.363281 16.375 C 12.4375 16.480469 12.5625 16.546875 12.695312 16.546875 L 14.332031 16.546875 L 13.71875 18.855469 C 13.667969 19.046875 13.757812 19.246094 13.9375 19.332031 C 13.992188 19.359375 14.054688 19.371094 14.113281 19.371094 C 14.242188 19.371094 14.363281 19.3125 14.445312 19.203125 L 17.640625 14.84375 C 17.730469 14.71875 17.746094 14.554688 17.675781 14.414062 Z M 15.066406 16.96875 L 15.257812 16.242188 C 15.292969 16.117188 15.265625 15.984375 15.1875 15.882812 C 15.109375 15.78125 14.992188 15.722656 14.863281 15.722656 L 13.265625 15.722656 L 14.175781 13.035156 L 14.941406 13.035156 L 14.417969 14.457031 C 14.375 14.585938 14.390625 14.726562 14.46875 14.835938 C 14.542969 14.945312 14.671875 15.011719 14.804688 15.011719 L 16.5 15.011719 Z M 20.21875 15.792969 C 20.21875 12.90625 17.878906 10.558594 15.003906 10.558594 C 12.128906 10.558594 9.789062 12.90625 9.789062 15.792969 C 9.789062 18.679688 12.128906 21.027344 15.003906 21.027344 C 17.878906 21.027344 20.21875 18.679688 20.21875 15.792969 Z M 10.605469 15.792969 C 10.605469 13.359375 12.578125 11.378906 15.003906 11.378906 C 17.425781 11.378906 19.398438 13.359375 19.398438 15.792969 C 19.398438 18.226562 17.425781 20.207031 15.003906 20.207031 C 12.578125 20.207031 10.605469 18.226562 10.605469 15.792969 Z M 29.128906 24.953125 L 25.488281 24.25 C 25.367188 24.226562 25.246094 24.257812 25.152344 24.335938 L 25.066406 24.402344 L 25.066406 12.828125 L 26.851562 14.28125 C 26.925781 14.339844 27.015625 14.371094 27.109375 14.371094 C 27.121094 14.371094 27.136719 14.371094 27.152344 14.371094 C 27.257812 14.359375 27.359375 14.304688 27.425781 14.21875 L 29.371094 11.8125 C 29.511719 11.636719 29.488281 11.378906 29.3125 11.234375 L 23.820312 6.765625 L 23.820312 3.105469 L 24.203125 3.105469 C 24.429688 3.105469 24.609375 2.921875 24.609375 2.695312 C 24.609375 2.46875 24.429688 2.285156 24.203125 2.285156 L 20.125 2.285156 C 19.898438 2.285156 19.714844 2.46875 19.714844 2.695312 C 19.714844 2.921875 19.898438 3.105469 20.125 3.105469 L 20.507812 3.105469 L 20.507812 4.070312 L 16.253906 0.605469 C 15.539062 0.0078125 14.496094 0 13.769531 0.589844 L 0.695312 11.234375 C 0.519531 11.378906 0.492188 11.636719 0.636719 11.8125 L 2.578125 14.21875 C 2.648438 14.304688 2.746094 14.359375 2.855469 14.371094 C 2.960938 14.382812 3.070312 14.347656 3.15625 14.28125 L 4.9375 12.828125 L 4.9375 23.957031 L 3.070312 23.957031 C 1.675781 23.957031 0.542969 25.097656 0.542969 26.496094 C 0.542969 27.894531 1.675781 29.03125 3.070312 29.03125 L 14.5 29.03125 C 14.726562 29.03125 14.910156 28.847656 14.910156 28.621094 L 14.910156 27.695312 L 23.976562 27.695312 L 25.152344 28.652344 C 25.222656 28.714844 25.316406 28.746094 25.410156 28.746094 C 25.433594 28.746094 25.460938 28.742188 25.488281 28.738281 L 29.128906 28.035156 C 29.324219 28 29.460938 27.828125 29.460938 27.632812 L 29.460938 25.359375 C 29.460938 25.160156 29.324219 24.992188 29.128906 24.953125 Z M 21.328125 3.105469 L 23 3.105469 L 23 6.097656 L 21.328125 4.738281 Z M 2.957031 13.382812 L 1.53125 11.613281 L 14.289062 1.230469 C 14.707031 0.886719 15.316406 0.890625 15.730469 1.238281 C 15.730469 1.242188 15.734375 1.242188 15.734375 1.242188 L 28.476562 11.613281 L 27.046875 13.382812 L 15.261719 3.789062 C 15.109375 3.664062 14.894531 3.664062 14.746094 3.789062 Z M 1.363281 26.496094 C 1.363281 25.550781 2.128906 24.78125 3.070312 24.78125 L 12.4375 24.78125 L 12.4375 28.210938 L 3.070312 28.210938 C 2.128906 28.210938 1.363281 27.441406 1.363281 26.496094 Z M 14.09375 28.210938 L 13.253906 28.210938 L 13.253906 24.78125 L 14.09375 24.78125 Z M 5.757812 23.957031 L 5.757812 12.164062 L 15.003906 4.636719 L 24.25 12.164062 L 24.25 25.074219 L 23.976562 25.296875 L 14.910156 25.296875 L 14.910156 24.371094 C 14.910156 24.140625 14.726562 23.957031 14.5 23.957031 Z M 28.644531 27.292969 L 25.519531 27.894531 L 24.382812 26.964844 C 24.308594 26.90625 24.214844 26.871094 24.121094 26.871094 L 14.910156 26.871094 L 14.910156 26.117188 L 24.121094 26.117188 C 24.214844 26.117188 24.308594 26.085938 24.382812 26.027344 L 25.519531 25.09375 L 28.644531 25.699219 Z M 10.515625 26.496094 C 10.515625 26.722656 10.332031 26.90625 10.105469 26.90625 L 3.695312 26.90625 C 3.46875 26.90625 3.285156 26.722656 3.285156 26.496094 C 3.285156 26.269531 3.46875 26.082031 3.695312 26.082031 L 10.105469 26.082031 C 10.332031 26.082031 10.515625 26.269531 10.515625 26.496094 Z M 10.515625 26.496094 " fill-opacity="1" fill-rule="nonzero"/></g></svg>