<svg xmlns="http://www.w3.org/2000/svg" xmlns:xlink="http://www.w3.org/1999/xlink" width="256" zoomAndPan="magnify" viewBox="0 0 192 191.999996" height="256" preserveAspectRatio="xMidYMid meet" version="1.0"><defs><clipPath id="1352dc7daf"><path d="M 123 9.601562 L 191.25 9.601562 L 191.25 182.101562 L 123 182.101562 Z M 123 9.601562 " clip-rule="nonzero"/></clipPath><clipPath id="0c905b09aa"><path d="M 0 9.601562 L 68 9.601562 L 68 182.101562 L 0 182.101562 Z M 0 9.601562 " clip-rule="nonzero"/></clipPath><clipPath id="10093e41d1"><path d="M 0 169 L 191.25 169 L 191.25 182.101562 L 0 182.101562 Z M 0 169 " clip-rule="nonzero"/></clipPath></defs><path fill="#373737" d="M 60.414062 58.90625 L 130.835938 58.90625 L 130.835938 169.738281 L 60.414062 169.738281 Z M 60.414062 58.90625 " fill-opacity="1" fill-rule="nonzero"/><path fill="#dedede" d="M 80.203125 71.21875 L 111.046875 71.21875 L 111.046875 108.164062 L 80.203125 108.164062 Z M 80.203125 71.21875 " fill-opacity="1" fill-rule="nonzero"/><g clip-path="url(#1352dc7daf)"><path fill="#4a4a4a" d="M 123.386719 9.648438 L 191.25 9.648438 L 191.25 182.054688 L 123.386719 182.054688 Z M 123.386719 9.648438 " fill-opacity="1" fill-rule="nonzero"/></g><g clip-path="url(#0c905b09aa)"><path fill="#4a4a4a" d="M 67.863281 169.738281 L 67.863281 182.054688 L 0 182.054688 L 0 9.648438 L 67.863281 9.648438 Z M 67.863281 169.738281 " fill-opacity="1" fill-rule="nonzero"/></g><path fill="#dedede" d="M 141.894531 75.324219 L 172.742188 75.324219 L 172.742188 94.828125 L 141.894531 94.828125 Z M 141.894531 75.324219 " fill-opacity="1" fill-rule="nonzero"/><path fill="#dedede" d="M 18.507812 75.324219 L 49.355469 75.324219 L 49.355469 94.828125 L 18.507812 94.828125 Z M 18.507812 75.324219 " fill-opacity="1" fill-rule="nonzero"/><path fill="#a6a6a6" d="M 43.183594 41.460938 C 43.183594 42.066406 43.125 42.667969 43.007812 43.261719 C 42.890625 43.855469 42.714844 44.433594 42.480469 44.996094 C 42.25 45.554688 41.964844 46.085938 41.625 46.589844 C 41.289062 47.09375 40.90625 47.5625 40.476562 47.992188 C 40.046875 48.417969 39.578125 48.800781 39.074219 49.140625 C 38.566406 49.476562 38.035156 49.761719 37.472656 49.992188 C 36.910156 50.226562 36.332031 50.398438 35.738281 50.519531 C 35.140625 50.636719 34.539062 50.695312 33.929688 50.695312 C 33.324219 50.695312 32.722656 50.636719 32.125 50.519531 C 31.53125 50.398438 30.953125 50.226562 30.390625 49.992188 C 29.828125 49.761719 29.296875 49.476562 28.789062 49.140625 C 28.285156 48.800781 27.816406 48.417969 27.386719 47.992188 C 26.957031 47.5625 26.574219 47.09375 26.238281 46.589844 C 25.898438 46.085938 25.613281 45.554688 25.382812 44.996094 C 25.148438 44.433594 24.972656 43.855469 24.855469 43.261719 C 24.738281 42.667969 24.675781 42.066406 24.675781 41.460938 C 24.675781 40.851562 24.738281 40.253906 24.855469 39.65625 C 24.972656 39.0625 25.148438 38.484375 25.382812 37.925781 C 25.613281 37.363281 25.898438 36.832031 26.238281 36.328125 C 26.574219 35.824219 26.957031 35.359375 27.386719 34.929688 C 27.816406 34.5 28.285156 34.117188 28.789062 33.78125 C 29.296875 33.441406 29.828125 33.160156 30.390625 32.925781 C 30.953125 32.695312 31.53125 32.519531 32.125 32.402344 C 32.722656 32.28125 33.324219 32.222656 33.929688 32.222656 C 34.539062 32.222656 35.140625 32.28125 35.738281 32.402344 C 36.332031 32.519531 36.910156 32.695312 37.472656 32.925781 C 38.035156 33.160156 38.566406 33.441406 39.074219 33.78125 C 39.578125 34.117188 40.046875 34.5 40.476562 34.929688 C 40.90625 35.359375 41.289062 35.824219 41.625 36.328125 C 41.964844 36.832031 42.25 37.363281 42.480469 37.925781 C 42.714844 38.484375 42.890625 39.0625 43.007812 39.65625 C 43.125 40.253906 43.183594 40.851562 43.183594 41.460938 Z M 43.183594 41.460938 " fill-opacity="1" fill-rule="nonzero"/><path fill="#a6a6a6" d="M 43.183594 139.976562 C 43.183594 140.585938 43.125 141.183594 43.007812 141.78125 C 42.890625 142.375 42.714844 142.953125 42.480469 143.511719 C 42.25 144.074219 41.964844 144.605469 41.625 145.109375 C 41.289062 145.613281 40.90625 146.078125 40.476562 146.507812 C 40.046875 146.9375 39.578125 147.320312 39.074219 147.65625 C 38.566406 147.996094 38.035156 148.277344 37.472656 148.511719 C 36.910156 148.742188 36.332031 148.917969 35.738281 149.035156 C 35.140625 149.15625 34.539062 149.214844 33.929688 149.214844 C 33.324219 149.214844 32.722656 149.15625 32.125 149.035156 C 31.53125 148.917969 30.953125 148.742188 30.390625 148.511719 C 29.828125 148.277344 29.296875 147.996094 28.789062 147.65625 C 28.285156 147.320312 27.816406 146.9375 27.386719 146.507812 C 26.957031 146.078125 26.574219 145.613281 26.238281 145.109375 C 25.898438 144.605469 25.613281 144.074219 25.382812 143.511719 C 25.148438 142.953125 24.972656 142.375 24.855469 141.78125 C 24.738281 141.183594 24.675781 140.585938 24.675781 139.976562 C 24.675781 139.371094 24.738281 138.769531 24.855469 138.175781 C 24.972656 137.582031 25.148438 137.003906 25.382812 136.445312 C 25.613281 135.882812 25.898438 135.351562 26.238281 134.847656 C 26.574219 134.34375 26.957031 133.875 27.386719 133.445312 C 27.816406 133.019531 28.285156 132.636719 28.789062 132.296875 C 29.296875 131.960938 29.828125 131.675781 30.390625 131.445312 C 30.953125 131.210938 31.53125 131.039062 32.125 130.917969 C 32.722656 130.800781 33.324219 130.742188 33.929688 130.742188 C 34.539062 130.742188 35.140625 130.800781 35.738281 130.917969 C 36.332031 131.039062 36.910156 131.210938 37.472656 131.445312 C 38.035156 131.675781 38.566406 131.960938 39.074219 132.296875 C 39.578125 132.636719 40.046875 133.019531 40.476562 133.445312 C 40.90625 133.875 41.289062 134.34375 41.625 134.847656 C 41.964844 135.351562 42.25 135.882812 42.480469 136.445312 C 42.714844 137.003906 42.890625 137.582031 43.007812 138.175781 C 43.125 138.769531 43.183594 139.371094 43.183594 139.976562 Z M 43.183594 139.976562 " fill-opacity="1" fill-rule="nonzero"/><path fill="#a6a6a6" d="M 166.574219 139.976562 C 166.574219 140.585938 166.511719 141.183594 166.394531 141.78125 C 166.277344 142.375 166.101562 142.953125 165.867188 143.511719 C 165.636719 144.074219 165.351562 144.605469 165.011719 145.109375 C 164.675781 145.613281 164.292969 146.078125 163.863281 146.507812 C 163.433594 146.9375 162.964844 147.320312 162.460938 147.65625 C 161.953125 147.996094 161.421875 148.277344 160.859375 148.511719 C 160.296875 148.742188 159.71875 148.917969 159.125 149.035156 C 158.527344 149.15625 157.925781 149.214844 157.320312 149.214844 C 156.710938 149.214844 156.109375 149.15625 155.511719 149.035156 C 154.917969 148.917969 154.339844 148.742188 153.777344 148.511719 C 153.214844 148.277344 152.683594 147.996094 152.175781 147.65625 C 151.671875 147.320312 151.203125 146.9375 150.773438 146.507812 C 150.34375 146.078125 149.960938 145.613281 149.625 145.109375 C 149.285156 144.605469 149 144.074219 148.769531 143.511719 C 148.535156 142.953125 148.359375 142.375 148.242188 141.78125 C 148.125 141.183594 148.066406 140.585938 148.066406 139.976562 C 148.066406 139.371094 148.125 138.769531 148.242188 138.175781 C 148.359375 137.582031 148.535156 137.003906 148.769531 136.445312 C 149 135.882812 149.285156 135.351562 149.625 134.847656 C 149.960938 134.34375 150.34375 133.875 150.773438 133.445312 C 151.203125 133.019531 151.671875 132.636719 152.175781 132.296875 C 152.683594 131.960938 153.214844 131.675781 153.777344 131.445312 C 154.339844 131.210938 154.917969 131.039062 155.511719 130.917969 C 156.109375 130.800781 156.710938 130.742188 157.320312 130.742188 C 157.925781 130.742188 158.527344 130.800781 159.125 130.917969 C 159.71875 131.039062 160.296875 131.210938 160.859375 131.445312 C 161.421875 131.675781 161.953125 131.960938 162.460938 132.296875 C 162.964844 132.636719 163.433594 133.019531 163.863281 133.445312 C 164.292969 133.875 164.675781 134.34375 165.011719 134.847656 C 165.351562 135.351562 165.636719 135.882812 165.867188 136.445312 C 166.101562 137.003906 166.277344 137.582031 166.394531 138.175781 C 166.511719 138.769531 166.574219 139.371094 166.574219 139.976562 Z M 166.574219 139.976562 " fill-opacity="1" fill-rule="nonzero"/><path fill="#a6a6a6" d="M 166.574219 41.460938 C 166.574219 42.066406 166.511719 42.667969 166.394531 43.261719 C 166.277344 43.855469 166.101562 44.433594 165.867188 44.996094 C 165.636719 45.554688 165.351562 46.085938 165.011719 46.589844 C 164.675781 47.09375 164.292969 47.5625 163.863281 47.992188 C 163.433594 48.417969 162.964844 48.800781 162.460938 49.140625 C 161.953125 49.476562 161.421875 49.761719 160.859375 49.992188 C 160.296875 50.226562 159.71875 50.398438 159.125 50.519531 C 158.527344 50.636719 157.925781 50.695312 157.320312 50.695312 C 156.710938 50.695312 156.109375 50.636719 155.511719 50.519531 C 154.917969 50.398438 154.339844 50.226562 153.777344 49.992188 C 153.214844 49.761719 152.683594 49.476562 152.175781 49.140625 C 151.671875 48.800781 151.203125 48.417969 150.773438 47.992188 C 150.34375 47.5625 149.960938 47.09375 149.625 46.589844 C 149.285156 46.085938 149 45.554688 148.769531 44.996094 C 148.535156 44.433594 148.359375 43.855469 148.242188 43.261719 C 148.125 42.667969 148.066406 42.066406 148.066406 41.460938 C 148.066406 40.851562 148.125 40.253906 148.242188 39.65625 C 148.359375 39.0625 148.535156 38.484375 148.769531 37.925781 C 149 37.363281 149.285156 36.832031 149.625 36.328125 C 149.960938 35.824219 150.34375 35.359375 150.773438 34.929688 C 151.203125 34.5 151.671875 34.117188 152.175781 33.78125 C 152.683594 33.441406 153.214844 33.160156 153.777344 32.925781 C 154.339844 32.695312 154.917969 32.519531 155.511719 32.402344 C 156.109375 32.28125 156.710938 32.222656 157.320312 32.222656 C 157.925781 32.222656 158.527344 32.28125 159.125 32.402344 C 159.71875 32.519531 160.296875 32.695312 160.859375 32.925781 C 161.421875 33.160156 161.953125 33.441406 162.460938 33.78125 C 162.964844 34.117188 163.433594 34.5 163.863281 34.929688 C 164.292969 35.359375 164.675781 35.824219 165.011719 36.328125 C 165.351562 36.832031 165.636719 37.363281 165.867188 37.925781 C 166.101562 38.484375 166.277344 39.0625 166.394531 39.65625 C 166.511719 40.253906 166.574219 40.851562 166.574219 41.460938 Z M 166.574219 41.460938 " fill-opacity="1" fill-rule="nonzero"/><path fill="#dedede" d="M 157.320312 118.425781 C 169.242188 118.425781 178.910156 128.074219 178.910156 139.976562 C 178.910156 151.878906 169.242188 161.527344 157.320312 161.527344 C 145.394531 161.527344 135.726562 151.878906 135.726562 139.976562 C 135.726562 128.078125 145.394531 118.425781 157.320312 118.425781 Z M 166.574219 139.976562 C 166.574219 134.878906 162.429688 130.742188 157.320312 130.742188 C 152.207031 130.742188 148.0625 134.878906 148.0625 139.976562 C 148.0625 145.078125 152.207031 149.214844 157.320312 149.214844 C 162.429688 149.214844 166.574219 145.078125 166.574219 139.976562 Z M 166.574219 139.976562 " fill-opacity="1" fill-rule="nonzero"/><path fill="#dedede" d="M 157.320312 19.910156 C 169.242188 19.910156 178.910156 29.558594 178.910156 41.460938 C 178.910156 53.363281 169.242188 63.011719 157.320312 63.011719 C 145.394531 63.011719 135.726562 53.363281 135.726562 41.460938 C 135.726562 29.558594 145.394531 19.910156 157.320312 19.910156 Z M 166.574219 41.460938 C 166.574219 36.359375 162.429688 32.222656 157.320312 32.222656 C 152.207031 32.222656 148.0625 36.359375 148.0625 41.460938 C 148.0625 46.558594 152.207031 50.695312 157.320312 50.695312 C 162.429688 50.695312 166.574219 46.558594 166.574219 41.460938 Z M 166.574219 41.460938 " fill-opacity="1" fill-rule="nonzero"/><path fill="#dedede" d="M 33.929688 118.425781 C 45.855469 118.425781 55.523438 128.074219 55.523438 139.976562 C 55.523438 151.878906 45.855469 161.527344 33.929688 161.527344 C 22.007812 161.527344 12.339844 151.878906 12.339844 139.976562 C 12.339844 128.078125 22.007812 118.425781 33.929688 118.425781 Z M 43.183594 139.976562 C 43.183594 134.878906 39.042969 130.742188 33.929688 130.742188 C 28.820312 130.742188 24.675781 134.878906 24.675781 139.976562 C 24.675781 145.078125 28.820312 149.214844 33.929688 149.214844 C 39.042969 149.214844 43.183594 145.078125 43.183594 139.976562 Z M 43.183594 139.976562 " fill-opacity="1" fill-rule="nonzero"/><path fill="#dedede" d="M 33.929688 19.910156 C 45.855469 19.910156 55.523438 29.558594 55.523438 41.460938 C 55.523438 53.363281 45.855469 63.011719 33.929688 63.011719 C 22.007812 63.011719 12.339844 53.363281 12.339844 41.460938 C 12.339844 29.558594 22.007812 19.910156 33.929688 19.910156 Z M 43.183594 41.460938 C 43.183594 36.359375 39.042969 32.222656 33.929688 32.222656 C 28.820312 32.222656 24.675781 36.359375 24.675781 41.460938 C 24.675781 46.558594 28.820312 50.695312 33.929688 50.695312 C 39.042969 50.695312 43.183594 46.558594 43.183594 41.460938 Z M 43.183594 41.460938 " fill-opacity="1" fill-rule="nonzero"/><path fill="#cacaca" d="M 111.046875 123.558594 L 80.203125 123.558594 C 78.496094 123.558594 77.117188 122.179688 77.117188 120.480469 C 77.117188 118.78125 78.496094 117.402344 80.203125 117.402344 L 111.046875 117.402344 C 112.753906 117.402344 114.132812 118.78125 114.132812 120.480469 C 114.132812 122.179688 112.753906 123.558594 111.046875 123.558594 Z M 111.046875 123.558594 " fill-opacity="1" fill-rule="nonzero"/><path fill="#cacaca" d="M 111.046875 135.871094 L 80.203125 135.871094 C 78.496094 135.871094 77.117188 134.496094 77.117188 132.792969 C 77.117188 131.09375 78.496094 129.714844 80.203125 129.714844 L 111.046875 129.714844 C 112.753906 129.714844 114.132812 131.09375 114.132812 132.792969 C 114.132812 134.496094 112.753906 135.871094 111.046875 135.871094 Z M 111.046875 135.871094 " fill-opacity="1" fill-rule="nonzero"/><path fill="#cacaca" d="M 111.046875 148.1875 L 80.203125 148.1875 C 78.496094 148.1875 77.117188 146.808594 77.117188 145.109375 C 77.117188 143.410156 78.496094 142.03125 80.203125 142.03125 L 111.046875 142.03125 C 112.753906 142.03125 114.132812 143.410156 114.132812 145.109375 C 114.132812 146.808594 112.753906 148.1875 111.046875 148.1875 Z M 111.046875 148.1875 " fill-opacity="1" fill-rule="nonzero"/><path fill="#cacaca" d="M 111.046875 160.503906 L 80.203125 160.503906 C 78.496094 160.503906 77.117188 159.125 77.117188 157.425781 C 77.117188 155.722656 78.496094 154.34375 80.203125 154.34375 L 111.046875 154.34375 C 112.753906 154.34375 114.132812 155.722656 114.132812 157.425781 C 114.132812 159.125 112.753906 160.503906 111.046875 160.503906 Z M 111.046875 160.503906 " fill-opacity="1" fill-rule="nonzero"/><path fill="#cacaca" d="M 141.894531 90.71875 L 172.742188 90.71875 L 172.742188 106.113281 L 141.894531 106.113281 Z M 141.894531 90.71875 " fill-opacity="1" fill-rule="nonzero"/><path fill="#cacaca" d="M 18.507812 90.71875 L 49.355469 90.71875 L 49.355469 106.113281 L 18.507812 106.113281 Z M 18.507812 90.71875 " fill-opacity="1" fill-rule="nonzero"/><g clip-path="url(#10093e41d1)"><path fill="#cacaca" d="M 0 169.738281 L 191.25 169.738281 L 191.25 182.054688 L 0 182.054688 Z M 0 169.738281 " fill-opacity="1" fill-rule="nonzero"/></g></svg>