<svg xmlns="http://www.w3.org/2000/svg" xmlns:xlink="http://www.w3.org/1999/xlink" width="256" zoomAndPan="magnify" viewBox="0 0 192 191.999996" height="256" preserveAspectRatio="xMidYMid meet" version="1.0"><defs><clipPath id="3cab81760d"><path d="M 42.839844 14 L 149.339844 14 L 149.339844 192 L 42.839844 192 Z M 42.839844 14 " clip-rule="nonzero"/></clipPath><clipPath id="c00459685b"><path d="M 42.839844 14 L 149.339844 14 L 149.339844 27 L 42.839844 27 Z M 42.839844 14 " clip-rule="nonzero"/></clipPath></defs><path fill="#677176" d="M 104.132812 16.617188 L 88.109375 16.617188 L 88.109375 0.164062 L 104.132812 0.164062 L 104.132812 16.617188 " fill-opacity="1" fill-rule="nonzero"/><path fill="#9ba5a8" d="M 109.839844 20.6875 L 82.402344 20.6875 L 82.402344 4.234375 L 109.839844 4.234375 L 109.839844 20.6875 " fill-opacity="1" fill-rule="nonzero"/><g clip-path="url(#3cab81760d)"><path fill="#bcc6ca" d="M 149.382812 191.835938 L 42.859375 191.835938 L 42.859375 14.878906 L 149.382812 14.878906 L 149.382812 191.835938 " fill-opacity="1" fill-rule="nonzero"/></g><g clip-path="url(#c00459685b)"><path fill="#dde3e4" d="M 149.382812 26.496094 L 149.382812 14.878906 L 42.859375 14.878906 L 42.859375 26.496094 L 149.382812 26.496094 " fill-opacity="1" fill-rule="nonzero"/></g><path fill="#797f82" d="M 55.726562 191.835938 L 54.226562 191.835938 L 54.226562 26.496094 L 55.726562 26.496094 L 55.726562 191.835938 " fill-opacity="1" fill-rule="nonzero"/><path fill="#797f82" d="M 138.015625 191.835938 L 136.511719 191.835938 L 136.511719 26.496094 L 138.015625 26.496094 L 138.015625 191.835938 " fill-opacity="1" fill-rule="nonzero"/><path fill="#23282e" d="M 126.449219 66.632812 L 65.792969 66.632812 L 65.792969 44.503906 L 126.449219 44.503906 L 126.449219 66.632812 " fill-opacity="1" fill-rule="nonzero"/><path fill="#141619" d="M 116.574219 63.027344 L 75.667969 63.027344 L 75.667969 48.105469 L 116.574219 48.105469 L 116.574219 63.027344 " fill-opacity="1" fill-rule="nonzero"/><path fill="#468bb9" d="M 114.976562 60.386719 L 77.261719 60.386719 L 77.261719 50.746094 L 114.976562 50.746094 L 114.976562 60.386719 " fill-opacity="1" fill-rule="nonzero"/><path fill="#bcc6ca" d="M 72.410156 50.722656 C 72.410156 51.691406 71.621094 52.480469 70.648438 52.480469 C 69.675781 52.480469 68.890625 51.691406 68.890625 50.722656 C 68.890625 49.75 69.675781 48.964844 70.648438 48.964844 C 71.621094 48.964844 72.410156 49.75 72.410156 50.722656 " fill-opacity="1" fill-rule="nonzero"/><path fill="#bcc6ca" d="M 72.410156 55.566406 C 72.410156 56.539062 71.621094 57.324219 70.648438 57.324219 C 69.675781 57.324219 68.890625 56.539062 68.890625 55.566406 C 68.890625 54.597656 69.675781 53.808594 70.648438 53.808594 C 71.621094 53.808594 72.410156 54.597656 72.410156 55.566406 " fill-opacity="1" fill-rule="nonzero"/><path fill="#bcc6ca" d="M 72.410156 60.414062 C 72.410156 61.382812 71.621094 62.171875 70.648438 62.171875 C 69.675781 62.171875 68.890625 61.382812 68.890625 60.414062 C 68.890625 59.441406 69.675781 58.65625 70.648438 58.65625 C 71.621094 58.65625 72.410156 59.441406 72.410156 60.414062 " fill-opacity="1" fill-rule="nonzero"/><path fill="#bcc6ca" d="M 122.234375 50.722656 C 122.234375 51.691406 121.449219 52.480469 120.476562 52.480469 C 119.503906 52.480469 118.714844 51.691406 118.714844 50.722656 C 118.714844 49.75 119.503906 48.964844 120.476562 48.964844 C 121.449219 48.964844 122.234375 49.75 122.234375 50.722656 " fill-opacity="1" fill-rule="nonzero"/><path fill="#bcc6ca" d="M 122.234375 55.566406 C 122.234375 56.539062 121.449219 57.324219 120.476562 57.324219 C 119.503906 57.324219 118.714844 56.539062 118.714844 55.566406 C 118.714844 54.597656 119.503906 53.808594 120.476562 53.808594 C 121.449219 53.808594 122.234375 54.597656 122.234375 55.566406 " fill-opacity="1" fill-rule="nonzero"/><path fill="#bcc6ca" d="M 122.234375 60.414062 C 122.234375 61.382812 121.449219 62.171875 120.476562 62.171875 C 119.503906 62.171875 118.714844 61.382812 118.714844 60.414062 C 118.714844 59.441406 119.503906 58.65625 120.476562 58.65625 C 121.449219 58.65625 122.234375 59.441406 122.234375 60.414062 " fill-opacity="1" fill-rule="nonzero"/><path fill="#646e75" d="M 126.449219 129.578125 L 65.792969 129.578125 L 65.792969 71.261719 L 126.449219 71.261719 L 126.449219 129.578125 " fill-opacity="1" fill-rule="nonzero"/><path fill="#8b989f" d="M 126.449219 129.578125 L 118.714844 129.578125 L 118.714844 71.261719 L 126.449219 71.261719 L 126.449219 129.578125 " fill-opacity="1" fill-rule="nonzero"/><path fill="#8b989f" d="M 72.410156 129.578125 L 65.792969 129.578125 L 65.792969 71.261719 L 72.410156 71.261719 L 72.410156 129.578125 " fill-opacity="1" fill-rule="nonzero"/><path fill="#354047" d="M 126.449219 129.578125 L 65.792969 129.578125 L 72.410156 121.34375 L 118.714844 121.34375 L 126.449219 129.578125 " fill-opacity="1" fill-rule="nonzero"/><path fill="#354047" d="M 92.792969 77.4375 L 76.128906 77.4375 L 76.128906 71.261719 L 92.792969 71.261719 L 92.792969 77.4375 " fill-opacity="1" fill-rule="nonzero"/><path fill="#354047" d="M 116.113281 77.4375 L 99.453125 77.4375 L 99.453125 71.261719 L 116.113281 71.261719 L 116.113281 77.4375 " fill-opacity="1" fill-rule="nonzero"/><path fill="#51abe3" d="M 88.824219 83.175781 L 80.09375 83.175781 L 79.324219 77.4375 L 89.59375 77.4375 L 88.824219 83.175781 " fill-opacity="1" fill-rule="nonzero"/><path fill="#be1c2e" d="M 112.46875 83.175781 L 103.742188 83.175781 L 102.972656 77.4375 L 113.238281 77.4375 L 112.46875 83.175781 " fill-opacity="1" fill-rule="nonzero"/><path fill="#ffffff" d="M 89.757812 123.894531 L 78.695312 123.894531 L 76.800781 105.007812 L 91.652344 105.007812 L 89.757812 123.894531 " fill-opacity="1" fill-rule="nonzero"/><path fill="#ffffff" d="M 112.410156 123.894531 L 101.34375 123.894531 L 99.453125 105.007812 L 114.304688 105.007812 L 112.410156 123.894531 " fill-opacity="1" fill-rule="nonzero"/></svg>