<svg xmlns="http://www.w3.org/2000/svg" xmlns:xlink="http://www.w3.org/1999/xlink" width="256" zoomAndPan="magnify" viewBox="0 0 192 191.999996" height="256" preserveAspectRatio="xMidYMid meet" version="1.0"><path fill="#cf9e76" d="M 114.582031 133.160156 L 21.675781 133.160156 L 21.675781 52.644531 L 114.582031 52.644531 L 114.582031 133.160156 " fill-opacity="1" fill-rule="nonzero"/><path fill="#fcd770" d="M 173.417969 9.289062 L 173.417969 15.484375 L 142.453125 15.484375 L 142.453125 9.289062 C 142.453125 5.890625 145.234375 3.097656 148.644531 3.097656 L 167.226562 3.097656 C 170.636719 3.097656 173.417969 5.890625 173.417969 9.289062 " fill-opacity="1" fill-rule="nonzero"/><path fill="#969faa" d="M 164.128906 15.484375 L 164.128906 40.257812 L 151.742188 40.257812 L 151.742188 15.484375 L 164.128906 15.484375 " fill-opacity="1" fill-rule="nonzero"/><path fill="#ccd1d9" d="M 170.324219 40.257812 L 170.324219 52.644531 L 145.546875 52.644531 L 145.546875 40.257812 L 170.324219 40.257812 " fill-opacity="1" fill-rule="nonzero"/><path fill="#fcd770" d="M 188.902344 80.515625 L 188.902344 99.097656 C 188.902344 102.496094 186.121094 105.289062 182.710938 105.289062 L 176.515625 105.289062 L 176.515625 74.324219 L 182.710938 74.324219 C 186.121094 74.324219 188.902344 77.117188 188.902344 80.515625 " fill-opacity="1" fill-rule="nonzero"/><path fill="#ccd1d9" d="M 108.386719 15.484375 L 111.484375 27.871094 L 30.96875 27.871094 L 34.066406 15.484375 L 108.386719 15.484375 " fill-opacity="1" fill-rule="nonzero"/><path fill="#fcd770" d="M 123.871094 27.871094 L 133.160156 40.257812 L 3.097656 40.257812 L 12.386719 27.871094 L 123.871094 27.871094 " fill-opacity="1" fill-rule="nonzero"/><path fill="#ccd1d9" d="M 133.160156 120.773438 L 133.160156 139.355469 L 123.871094 151.742188 L 12.386719 151.742188 L 3.097656 139.355469 L 3.097656 40.257812 L 133.160156 40.257812 L 133.160156 52.644531 L 21.675781 52.644531 L 21.675781 133.160156 L 114.582031 133.160156 L 114.582031 120.773438 L 133.160156 120.773438 " fill-opacity="1" fill-rule="nonzero"/><path fill="#aab2bd" d="M 123.871094 164.128906 L 123.871094 176.515625 L 12.386719 176.515625 L 12.386719 164.128906 L 123.871094 164.128906 " fill-opacity="1" fill-rule="nonzero"/><path fill="#969faa" d="M 123.871094 151.742188 L 123.871094 164.128906 L 12.386719 164.128906 L 12.386719 151.742188 L 123.871094 151.742188 " fill-opacity="1" fill-rule="nonzero"/><path fill="#838f9b" d="M 117.675781 176.515625 L 114.582031 188.902344 L 96 188.902344 L 92.902344 176.515625 L 117.675781 176.515625 " fill-opacity="1" fill-rule="nonzero"/><path fill="#838f9b" d="M 43.355469 176.515625 L 40.257812 188.902344 L 21.675781 188.902344 L 18.582031 176.515625 L 43.355469 176.515625 " fill-opacity="1" fill-rule="nonzero"/><path fill="#e6e9ed" d="M 176.515625 74.324219 L 176.515625 120.773438 L 114.582031 120.773438 L 114.582031 52.644531 L 176.515625 52.644531 L 176.515625 74.324219 " fill-opacity="1" fill-rule="nonzero"/><path fill="#e6e9ed" d="M 96 52.644531 L 96 77.417969 L 40.257812 77.417969 L 40.257812 52.644531 L 96 52.644531 " fill-opacity="1" fill-rule="nonzero"/><path fill="#fcd770" d="M 77.417969 77.417969 L 77.417969 89.804688 L 58.839844 89.804688 L 58.839844 77.417969 L 77.417969 77.417969 " fill-opacity="1" fill-rule="nonzero"/><path fill="#aab2bd" d="M 89.804688 133.160156 L 46.453125 133.160156 C 46.453125 126.316406 51.992188 120.773438 58.839844 120.773438 L 77.417969 120.773438 C 84.265625 120.773438 89.804688 126.316406 89.804688 133.160156 " fill-opacity="1" fill-rule="nonzero"/><path fill="#69d6f4" d="M 164.128906 65.03125 L 164.128906 83.613281 L 126.96875 83.613281 L 126.96875 65.03125 L 164.128906 65.03125 " fill-opacity="1" fill-rule="nonzero"/><path fill="#ef7385" d="M 133.160156 96 C 136.574219 96 139.355469 98.792969 139.355469 102.195312 C 139.355469 105.59375 136.574219 108.386719 133.160156 108.386719 C 129.75 108.386719 126.96875 105.59375 126.96875 102.195312 C 126.96875 98.792969 129.75 96 133.160156 96 " fill-opacity="1" fill-rule="nonzero"/><path fill="#000000" d="M 185.804688 99.097656 C 185.804688 100.800781 184.414062 102.195312 182.710938 102.195312 L 179.613281 102.195312 L 179.613281 77.417969 L 182.710938 77.417969 C 184.414062 77.417969 185.804688 78.808594 185.804688 80.515625 Z M 173.417969 117.675781 L 142.453125 117.675781 L 142.453125 123.871094 L 161.03125 123.871094 L 161.03125 164.128906 C 161.03125 165.835938 159.640625 167.226562 157.933594 167.226562 L 151.742188 167.226562 C 150.035156 167.226562 148.644531 165.835938 148.644531 164.128906 L 148.644531 145.546875 C 148.644531 140.417969 144.484375 136.257812 139.355469 136.257812 L 136.257812 136.257812 L 136.257812 117.675781 L 117.675781 117.675781 L 117.675781 55.742188 L 173.417969 55.742188 Z M 43.355469 74.324219 L 43.355469 55.742188 L 92.902344 55.742188 L 92.902344 74.324219 Z M 61.933594 86.710938 L 61.933594 80.515625 L 74.324219 80.515625 L 74.324219 86.710938 Z M 86.140625 130.066406 L 50.117188 130.066406 C 51.398438 126.472656 54.808594 123.871094 58.839844 123.871094 L 77.417969 123.871094 C 81.449219 123.871094 84.859375 126.472656 86.140625 130.066406 Z M 92.589844 130.066406 C 91.148438 123 84.894531 117.675781 77.417969 117.675781 L 58.839844 117.675781 C 51.363281 117.675781 45.109375 123 43.667969 130.066406 L 24.773438 130.066406 L 24.773438 55.742188 L 37.160156 55.742188 L 37.160156 80.515625 L 55.742188 80.515625 L 55.742188 92.902344 L 65.03125 92.902344 L 65.03125 111.484375 L 71.226562 111.484375 L 71.226562 92.902344 L 80.515625 92.902344 L 80.515625 80.515625 L 99.097656 80.515625 L 99.097656 55.742188 L 111.484375 55.742188 L 111.484375 130.066406 Z M 130.066406 138.328125 L 122.324219 148.644531 L 13.933594 148.644531 L 6.195312 138.328125 L 6.195312 43.355469 L 130.066406 43.355469 L 130.066406 49.546875 L 18.582031 49.546875 L 18.582031 136.257812 L 117.675781 136.257812 L 117.675781 123.871094 L 130.066406 123.871094 Z M 15.484375 173.417969 L 15.484375 167.226562 L 27.871094 167.226562 L 27.871094 161.03125 L 15.484375 161.03125 L 15.484375 154.839844 L 120.773438 154.839844 L 120.773438 161.03125 L 34.066406 161.03125 L 34.066406 167.226562 L 120.773438 167.226562 L 120.773438 173.417969 Z M 112.160156 185.804688 L 98.417969 185.804688 L 96.871094 179.613281 L 113.710938 179.613281 Z M 37.839844 185.804688 L 24.097656 185.804688 L 22.546875 179.613281 L 39.386719 179.613281 Z M 13.933594 30.96875 L 122.324219 30.96875 L 126.96875 37.160156 L 9.289062 37.160156 Z M 36.484375 18.582031 L 105.96875 18.582031 L 107.515625 24.773438 L 34.933594 24.773438 Z M 148.644531 43.355469 L 167.226562 43.355469 L 167.226562 49.546875 L 148.644531 49.546875 Z M 154.839844 18.582031 L 161.03125 18.582031 L 161.03125 37.160156 L 154.839844 37.160156 Z M 145.546875 9.289062 C 145.546875 7.585938 146.941406 6.195312 148.644531 6.195312 L 167.226562 6.195312 C 168.929688 6.195312 170.324219 7.585938 170.324219 9.289062 L 170.324219 12.386719 L 145.546875 12.386719 Z M 182.710938 71.226562 L 179.613281 71.226562 L 179.613281 49.546875 L 173.417969 49.546875 L 173.417969 37.160156 L 167.226562 37.160156 L 167.226562 18.582031 L 176.515625 18.582031 L 176.515625 9.289062 C 176.515625 4.160156 172.355469 0 167.226562 0 L 148.644531 0 C 143.515625 0 139.355469 4.160156 139.355469 9.289062 L 139.355469 18.582031 L 148.644531 18.582031 L 148.644531 37.160156 L 142.453125 37.160156 L 142.453125 49.546875 L 136.257812 49.546875 L 136.257812 39.230469 L 125.417969 24.773438 L 113.902344 24.773438 L 110.804688 12.386719 L 31.644531 12.386719 L 28.546875 24.773438 L 10.839844 24.773438 L 0 39.230469 L 0 140.382812 L 9.289062 152.769531 L 9.289062 179.613281 L 16.160156 179.613281 L 19.257812 192 L 42.675781 192 L 45.773438 179.613281 L 90.484375 179.613281 L 93.582031 192 L 117 192 L 120.097656 179.613281 L 126.96875 179.613281 L 126.96875 152.769531 L 134.710938 142.453125 L 139.355469 142.453125 C 141.058594 142.453125 142.453125 143.84375 142.453125 145.546875 L 142.453125 164.128906 C 142.453125 169.257812 146.613281 173.417969 151.742188 173.417969 L 157.933594 173.417969 C 163.066406 173.417969 167.226562 169.257812 167.226562 164.128906 L 167.226562 123.871094 L 179.613281 123.871094 L 179.613281 108.386719 L 182.710938 108.386719 C 187.839844 108.386719 192 104.226562 192 99.097656 L 192 80.515625 C 192 75.386719 187.839844 71.226562 182.710938 71.226562 " fill-opacity="1" fill-rule="nonzero"/><path fill="#000000" d="M 161.03125 80.515625 L 130.066406 80.515625 L 130.066406 68.128906 L 161.03125 68.128906 Z M 167.226562 61.933594 L 123.871094 61.933594 L 123.871094 86.710938 L 167.226562 86.710938 L 167.226562 61.933594 " fill-opacity="1" fill-rule="nonzero"/><path fill="#000000" d="M 133.160156 105.289062 C 131.457031 105.289062 130.066406 103.898438 130.066406 102.195312 C 130.066406 100.488281 131.457031 99.097656 133.160156 99.097656 C 134.867188 99.097656 136.257812 100.488281 136.257812 102.195312 C 136.257812 103.898438 134.867188 105.289062 133.160156 105.289062 Z M 133.160156 92.902344 C 128.03125 92.902344 123.871094 97.066406 123.871094 102.195312 C 123.871094 107.324219 128.03125 111.484375 133.160156 111.484375 C 138.289062 111.484375 142.453125 107.324219 142.453125 102.195312 C 142.453125 97.066406 138.289062 92.902344 133.160156 92.902344 " fill-opacity="1" fill-rule="nonzero"/><path fill="#000000" d="M 148.644531 105.289062 L 154.839844 105.289062 L 154.839844 99.097656 L 148.644531 99.097656 L 148.644531 105.289062 " fill-opacity="1" fill-rule="nonzero"/><path fill="#000000" d="M 161.03125 105.289062 L 167.226562 105.289062 L 167.226562 99.097656 L 161.03125 99.097656 L 161.03125 105.289062 " fill-opacity="1" fill-rule="nonzero"/><path fill="#000000" d="M 52.644531 68.128906 L 58.839844 68.128906 L 58.839844 61.933594 L 52.644531 61.933594 L 52.644531 68.128906 " fill-opacity="1" fill-rule="nonzero"/><path fill="#000000" d="M 65.03125 68.128906 L 71.226562 68.128906 L 71.226562 61.933594 L 65.03125 61.933594 L 65.03125 68.128906 " fill-opacity="1" fill-rule="nonzero"/><path fill="#000000" d="M 77.417969 68.128906 L 83.613281 68.128906 L 83.613281 61.933594 L 77.417969 61.933594 L 77.417969 68.128906 " fill-opacity="1" fill-rule="nonzero"/></svg>