<svg xmlns="http://www.w3.org/2000/svg" xmlns:xlink="http://www.w3.org/1999/xlink" width="40" zoomAndPan="magnify" viewBox="0 0 30 30.000001" height="40" preserveAspectRatio="xMidYMid meet" version="1.0"><defs><clipPath id="36a10fdba0"><path d="M 0.484375 0 L 29.515625 0 L 29.515625 29.03125 L 0.484375 29.03125 Z M 0.484375 0 " clip-rule="nonzero"/></clipPath></defs><g clip-path="url(#36a10fdba0)"><path fill="#ffffff" d="M 13.878906 18.296875 C 15.507812 19.4375 17.492188 20.109375 19.632812 20.109375 C 20.578125 20.109375 21.515625 19.980469 22.417969 19.71875 C 22.875 20.042969 23.433594 20.230469 24.039062 20.230469 C 25.597656 20.230469 26.871094 18.960938 26.871094 17.398438 C 26.871094 17.28125 26.863281 17.167969 26.847656 17.054688 C 28.679688 15.167969 29.6875 12.6875 29.6875 10.054688 C 29.6875 4.511719 25.175781 0 19.632812 0 C 16.996094 0 14.5 1.023438 12.632812 2.835938 L 12.632812 1.0625 C 12.632812 0.476562 12.15625 0 11.566406 0 L 1.71875 0 C 1.132812 0 0.652344 0.476562 0.652344 1.0625 L 0.652344 7.300781 C 0.652344 7.886719 1.132812 8.367188 1.71875 8.367188 L 5.230469 8.367188 C 5.285156 8.65625 5.40625 9.070312 5.65625 9.496094 C 6.078125 10.207031 6.957031 11.101562 8.753906 11.328125 C 8.773438 11.328125 8.789062 11.328125 8.804688 11.328125 C 8.957031 11.328125 9.09375 11.246094 9.167969 11.113281 C 9.246094 10.960938 9.226562 10.777344 9.113281 10.648438 C 9.082031 10.609375 8.382812 9.777344 8.578125 8.367188 L 9.71875 8.367188 C 9.625 8.921875 9.574219 9.488281 9.574219 10.054688 C 9.574219 12.195312 10.246094 14.175781 11.390625 15.808594 L 9.523438 17.675781 C 9.355469 17.621094 9.175781 17.589844 8.992188 17.589844 C 8.550781 17.589844 8.136719 17.761719 7.828125 18.070312 L 1.136719 24.761719 C 0.492188 25.40625 0.492188 26.453125 1.136719 27.09375 L 2.59375 28.550781 C 2.914062 28.871094 3.335938 29.03125 3.757812 29.03125 C 4.179688 29.03125 4.601562 28.871094 4.921875 28.550781 L 11.613281 21.859375 C 12.074219 21.402344 12.203125 20.738281 12.011719 20.164062 Z M 24.039062 19.40625 C 22.929688 19.40625 22.027344 18.507812 22.027344 17.398438 C 22.027344 16.292969 22.929688 15.390625 24.039062 15.390625 C 25.144531 15.390625 26.046875 16.292969 26.046875 17.398438 C 26.046875 18.507812 25.144531 19.40625 24.039062 19.40625 Z M 21.359375 16.480469 C 20.800781 16.628906 20.21875 16.707031 19.632812 16.707031 C 15.964844 16.707031 12.980469 13.722656 12.980469 10.054688 C 12.980469 6.386719 15.964844 3.402344 19.632812 3.402344 C 23.300781 3.402344 26.285156 6.386719 26.285156 10.054688 C 26.285156 11.757812 25.644531 13.367188 24.484375 14.601562 C 24.339844 14.578125 24.191406 14.566406 24.039062 14.566406 C 22.796875 14.566406 21.742188 15.367188 21.359375 16.480469 Z M 19.632812 0.824219 C 24.722656 0.824219 28.863281 4.964844 28.863281 10.054688 C 28.863281 12.316406 28.054688 14.457031 26.574219 16.140625 C 26.304688 15.601562 25.871094 15.160156 25.335938 14.882812 C 26.480469 13.535156 27.105469 11.839844 27.105469 10.054688 C 27.105469 5.933594 23.753906 2.578125 19.632812 2.578125 C 16.417969 2.578125 13.675781 4.617188 12.617188 7.464844 C 12.628906 7.410156 12.632812 7.355469 12.632812 7.300781 L 12.632812 4.035156 C 14.390625 1.992188 16.933594 0.824219 19.632812 0.824219 Z M 8.238281 7.542969 C 8.046875 7.542969 7.878906 7.675781 7.835938 7.863281 C 7.597656 8.910156 7.769531 9.75 7.996094 10.324219 C 6.082031 9.695312 6.003906 8.023438 6 7.945312 C 5.996094 7.722656 5.8125 7.542969 5.589844 7.542969 L 1.71875 7.542969 C 1.585938 7.542969 1.476562 7.433594 1.476562 7.300781 L 1.476562 1.0625 C 1.476562 0.929688 1.585938 0.824219 1.71875 0.824219 L 11.566406 0.824219 C 11.703125 0.824219 11.808594 0.929688 11.808594 1.0625 L 11.808594 7.300781 C 11.808594 7.433594 11.703125 7.542969 11.566406 7.542969 Z M 10.554688 8.367188 L 11.566406 8.367188 C 11.96875 8.367188 12.316406 8.144531 12.496094 7.816406 C 12.277344 8.523438 12.15625 9.277344 12.15625 10.054688 C 12.15625 14.175781 15.507812 17.53125 19.632812 17.53125 C 20.164062 17.53125 20.691406 17.472656 21.207031 17.363281 C 21.207031 17.375 21.207031 17.386719 21.207031 17.398438 C 21.207031 18.011719 21.402344 18.582031 21.734375 19.046875 C 21.050781 19.207031 20.34375 19.289062 19.632812 19.289062 C 14.539062 19.289062 10.398438 15.144531 10.398438 10.054688 C 10.398438 9.488281 10.449219 8.921875 10.554688 8.367188 Z M 13.21875 17.792969 L 11.550781 19.460938 L 10.226562 18.136719 L 11.894531 16.46875 C 12.292969 16.949219 12.734375 17.394531 13.21875 17.792969 Z M 11.035156 21.277344 L 4.339844 27.96875 C 4.019531 28.289062 3.496094 28.289062 3.171875 27.96875 L 1.71875 26.511719 C 1.394531 26.191406 1.394531 25.667969 1.71875 25.34375 L 8.410156 18.652344 C 8.566406 18.496094 8.773438 18.414062 8.992188 18.414062 C 9.214844 18.414062 9.421875 18.496094 9.578125 18.652344 L 11.035156 20.109375 C 11.355469 20.429688 11.355469 20.953125 11.035156 21.277344 Z M 22.789062 13.847656 L 23.425781 13.210938 C 23.703125 12.9375 23.703125 12.488281 23.425781 12.210938 C 23.167969 11.957031 23.265625 11.660156 23.300781 11.574219 C 23.335938 11.488281 23.476562 11.210938 23.839844 11.210938 C 24.230469 11.210938 24.546875 10.894531 24.546875 10.503906 L 24.546875 9.605469 C 24.546875 9.214844 24.230469 8.898438 23.839844 8.898438 C 23.476562 8.898438 23.335938 8.621094 23.300781 8.535156 C 23.265625 8.449219 23.167969 8.152344 23.425781 7.898438 C 23.703125 7.621094 23.703125 7.171875 23.425781 6.898438 L 22.789062 6.261719 C 22.65625 6.125 22.476562 6.054688 22.289062 6.054688 C 22.097656 6.054688 21.921875 6.125 21.789062 6.261719 C 21.53125 6.515625 21.234375 6.421875 21.152344 6.386719 C 21.066406 6.351562 20.789062 6.207031 20.789062 5.847656 C 20.789062 5.457031 20.472656 5.140625 20.082031 5.140625 L 19.179688 5.140625 C 18.789062 5.140625 18.472656 5.457031 18.472656 5.847656 C 18.472656 6.207031 18.195312 6.351562 18.113281 6.386719 C 18.027344 6.421875 17.730469 6.515625 17.472656 6.261719 C 17.199219 5.984375 16.75 5.984375 16.472656 6.261719 L 15.835938 6.898438 C 15.703125 7.03125 15.628906 7.207031 15.628906 7.398438 C 15.628906 7.585938 15.703125 7.765625 15.835938 7.898438 C 16.09375 8.152344 15.996094 8.449219 15.960938 8.535156 C 15.925781 8.621094 15.785156 8.898438 15.421875 8.898438 C 15.03125 8.898438 14.714844 9.214844 14.714844 9.605469 L 14.714844 10.503906 C 14.714844 10.894531 15.03125 11.210938 15.421875 11.210938 C 15.785156 11.210938 15.925781 11.488281 15.960938 11.574219 C 15.996094 11.660156 16.09375 11.957031 15.835938 12.210938 C 15.5625 12.488281 15.5625 12.9375 15.835938 13.210938 L 16.472656 13.847656 C 16.75 14.125 17.199219 14.125 17.472656 13.847656 C 17.648438 13.675781 17.886719 13.628906 18.113281 13.722656 C 18.339844 13.816406 18.472656 14.019531 18.472656 14.261719 C 18.472656 14.652344 18.789062 14.96875 19.179688 14.96875 L 20.082031 14.96875 C 20.472656 14.96875 20.789062 14.652344 20.789062 14.261719 C 20.789062 13.902344 21.066406 13.757812 21.152344 13.722656 C 21.234375 13.6875 21.53125 13.59375 21.789062 13.847656 C 21.921875 13.984375 22.097656 14.054688 22.289062 14.054688 C 22.476562 14.058594 22.65625 13.984375 22.789062 13.847656 Z M 20.835938 12.964844 C 20.335938 13.171875 20.011719 13.617188 19.96875 14.148438 L 19.292969 14.148438 C 19.25 13.617188 18.925781 13.167969 18.425781 12.960938 C 17.925781 12.753906 17.382812 12.84375 16.976562 13.1875 L 16.496094 12.710938 C 16.84375 12.304688 16.929688 11.761719 16.722656 11.257812 C 16.515625 10.757812 16.066406 10.4375 15.539062 10.394531 L 15.539062 9.714844 C 16.066406 9.675781 16.515625 9.351562 16.722656 8.851562 C 16.929688 8.351562 16.84375 7.804688 16.496094 7.402344 L 16.976562 6.921875 C 17.382812 7.265625 17.925781 7.355469 18.425781 7.148438 C 18.925781 6.941406 19.25 6.492188 19.292969 5.960938 L 19.96875 5.960938 C 20.011719 6.492188 20.335938 6.941406 20.835938 7.148438 C 21.335938 7.355469 21.882812 7.265625 22.285156 6.921875 L 22.765625 7.402344 C 22.417969 7.804688 22.332031 8.351562 22.539062 8.851562 C 22.746094 9.351562 23.195312 9.675781 23.722656 9.714844 L 23.722656 10.394531 C 23.195312 10.433594 22.746094 10.757812 22.539062 11.257812 C 22.332031 11.761719 22.417969 12.304688 22.765625 12.710938 L 22.285156 13.1875 C 21.882812 12.84375 21.335938 12.757812 20.835938 12.964844 Z M 19.632812 7.480469 C 18.210938 7.480469 17.054688 8.636719 17.054688 10.054688 C 17.054688 11.476562 18.210938 12.628906 19.632812 12.628906 C 21.050781 12.628906 22.207031 11.476562 22.207031 10.054688 C 22.207031 8.636719 21.050781 7.480469 19.632812 7.480469 Z M 19.632812 11.808594 C 18.664062 11.808594 17.878906 11.023438 17.878906 10.054688 C 17.878906 9.089844 18.664062 8.300781 19.632812 8.300781 C 20.597656 8.300781 21.382812 9.089844 21.382812 10.054688 C 21.382812 11.023438 20.597656 11.808594 19.632812 11.808594 Z M 20.777344 9.082031 C 20.941406 9.238281 20.949219 9.5 20.796875 9.664062 L 19.539062 11.007812 C 19.460938 11.089844 19.351562 11.136719 19.238281 11.136719 C 19.238281 11.136719 19.234375 11.136719 19.230469 11.136719 C 19.113281 11.132812 19.003906 11.082031 18.925781 10.992188 L 18.242188 10.191406 C 18.09375 10.015625 18.113281 9.757812 18.285156 9.609375 C 18.457031 9.460938 18.71875 9.484375 18.867188 9.65625 L 19.253906 10.109375 L 20.195312 9.101562 C 20.351562 8.9375 20.609375 8.929688 20.777344 9.082031 Z M 26.917969 21.589844 C 26.726562 21.480469 26.484375 21.535156 26.363281 21.71875 L 25.226562 23.453125 L 25.113281 22.617188 C 25.15625 22.554688 25.191406 22.484375 25.214844 22.40625 L 25.398438 21.847656 C 25.476562 21.605469 25.4375 21.335938 25.285156 21.132812 C 25.136719 20.925781 24.894531 20.804688 24.640625 20.804688 L 23.433594 20.804688 C 23.179688 20.804688 22.9375 20.925781 22.789062 21.132812 C 22.640625 21.335938 22.597656 21.605469 22.675781 21.847656 L 22.859375 22.40625 C 22.882812 22.484375 22.917969 22.554688 22.964844 22.617188 L 22.851562 23.453125 L 21.714844 21.71875 C 21.59375 21.535156 21.347656 21.480469 21.160156 21.589844 C 19.449219 22.605469 18.390625 24.46875 18.390625 26.453125 C 18.390625 27.050781 18.71875 27.882812 20.296875 28.464844 C 21.289062 28.832031 22.617188 29.03125 24.039062 29.03125 C 26.847656 29.03125 29.6875 28.234375 29.6875 26.453125 C 29.6875 24.46875 28.625 22.605469 26.917969 21.589844 Z M 24.605469 21.625 L 24.441406 22.136719 L 23.636719 22.136719 L 23.46875 21.625 Z M 23.746094 22.957031 L 24.328125 22.957031 L 24.535156 24.503906 L 24.039062 25.261719 L 23.539062 24.503906 Z M 24.039062 28.210938 C 21.332031 28.210938 19.210938 27.4375 19.210938 26.453125 C 19.210938 24.886719 19.984375 23.414062 21.25 22.511719 L 23.695312 26.234375 C 23.769531 26.351562 23.898438 26.421875 24.039062 26.421875 C 24.175781 26.421875 24.304688 26.351562 24.382812 26.234375 L 26.828125 22.511719 C 28.09375 23.414062 28.863281 24.886719 28.863281 26.453125 C 28.863281 27.4375 26.742188 28.210938 24.039062 28.210938 Z M 10.121094 6.511719 L 3.164062 6.511719 C 2.9375 6.511719 2.753906 6.328125 2.753906 6.097656 C 2.753906 5.871094 2.9375 5.6875 3.164062 5.6875 L 10.121094 5.6875 C 10.351562 5.6875 10.535156 5.871094 10.535156 6.097656 C 10.535156 6.328125 10.351562 6.511719 10.121094 6.511719 Z M 2.753906 4.183594 C 2.753906 3.957031 2.9375 3.769531 3.164062 3.769531 L 10.121094 3.769531 C 10.351562 3.769531 10.535156 3.957031 10.535156 4.183594 C 10.535156 4.410156 10.351562 4.59375 10.121094 4.59375 L 3.164062 4.59375 C 2.9375 4.59375 2.753906 4.410156 2.753906 4.183594 Z M 2.753906 2.265625 C 2.753906 2.039062 2.9375 1.855469 3.164062 1.855469 L 10.121094 1.855469 C 10.351562 1.855469 10.535156 2.039062 10.535156 2.265625 C 10.535156 2.492188 10.351562 2.675781 10.121094 2.675781 L 3.164062 2.675781 C 2.9375 2.675781 2.753906 2.492188 2.753906 2.265625 Z M 2.753906 2.265625 " fill-opacity="1" fill-rule="nonzero"/></g></svg>