<svg xmlns="http://www.w3.org/2000/svg" xmlns:xlink="http://www.w3.org/1999/xlink" width="40" zoomAndPan="magnify" viewBox="0 0 30 30.000001" height="40" preserveAspectRatio="xMidYMid meet" version="1.0"><defs><clipPath id="ca4c7611ef"><path d="M 20 20 L 28.636719 20 L 28.636719 28.648438 L 20 28.648438 Z M 20 20 " clip-rule="nonzero"/></clipPath><clipPath id="ee103e454c"><path d="M 1.058594 20 L 10 20 L 10 28.648438 L 1.058594 28.648438 Z M 1.058594 20 " clip-rule="nonzero"/></clipPath><clipPath id="af74d64cfe"><path d="M 21 0.34375 L 28 0.34375 L 28 10 L 21 10 Z M 21 0.34375 " clip-rule="nonzero"/></clipPath><clipPath id="e825ebc8ff"><path d="M 2 0.34375 L 9 0.34375 L 9 10 L 2 10 Z M 2 0.34375 " clip-rule="nonzero"/></clipPath></defs><g clip-path="url(#ca4c7611ef)"><path fill="#ffffff" d="M 24.886719 20.539062 C 24.621094 20.539062 24.359375 20.566406 24.097656 20.617188 C 23.835938 20.667969 23.582031 20.746094 23.339844 20.847656 C 23.09375 20.949219 22.859375 21.074219 22.640625 21.21875 C 22.417969 21.367188 22.214844 21.535156 22.027344 21.722656 C 21.835938 21.910156 21.671875 22.117188 21.523438 22.335938 C 21.375 22.558594 21.25 22.792969 21.148438 23.035156 C 21.046875 23.28125 20.96875 23.535156 20.917969 23.796875 C 20.867188 24.054688 20.839844 24.320312 20.839844 24.585938 C 20.839844 24.851562 20.867188 25.113281 20.917969 25.375 C 20.96875 25.636719 21.046875 25.886719 21.148438 26.132812 C 21.25 26.378906 21.375 26.613281 21.523438 26.832031 C 21.671875 27.054688 21.835938 27.257812 22.027344 27.445312 C 22.214844 27.632812 22.417969 27.800781 22.640625 27.949219 C 22.859375 28.097656 23.09375 28.222656 23.339844 28.324219 C 23.582031 28.425781 23.835938 28.503906 24.097656 28.554688 C 24.359375 28.605469 24.621094 28.632812 24.886719 28.632812 C 25.152344 28.632812 25.414062 28.605469 25.675781 28.554688 C 25.9375 28.503906 26.191406 28.425781 26.433594 28.324219 C 26.679688 28.222656 26.914062 28.097656 27.136719 27.949219 C 27.355469 27.800781 27.558594 27.632812 27.75 27.445312 C 27.9375 27.257812 28.105469 27.054688 28.25 26.832031 C 28.398438 26.613281 28.523438 26.378906 28.625 26.132812 C 28.726562 25.886719 28.804688 25.636719 28.855469 25.375 C 28.90625 25.113281 28.933594 24.851562 28.933594 24.585938 C 28.933594 24.320312 28.90625 24.054688 28.855469 23.796875 C 28.804688 23.535156 28.726562 23.28125 28.625 23.035156 C 28.523438 22.792969 28.398438 22.558594 28.25 22.335938 C 28.105469 22.117188 27.9375 21.910156 27.75 21.722656 C 27.558594 21.535156 27.355469 21.367188 27.136719 21.21875 C 26.914062 21.074219 26.679688 20.949219 26.433594 20.847656 C 26.191406 20.746094 25.9375 20.667969 25.675781 20.617188 C 25.414062 20.566406 25.152344 20.539062 24.886719 20.539062 Z M 24.886719 27.730469 C 24.105469 27.734375 23.421875 27.480469 22.832031 26.96875 C 22.976562 26.523438 23.238281 26.164062 23.617188 25.890625 C 23.996094 25.617188 24.417969 25.480469 24.886719 25.480469 C 25.355469 25.480469 25.777344 25.617188 26.15625 25.890625 C 26.535156 26.164062 26.796875 26.523438 26.941406 26.96875 C 26.351562 27.480469 25.667969 27.734375 24.886719 27.730469 Z M 24.199219 23.6875 C 24.199219 23.5 24.265625 23.34375 24.394531 23.210938 C 24.527344 23.078125 24.683594 23.011719 24.867188 23.011719 C 25.054688 23.011719 25.214844 23.074219 25.34375 23.203125 C 25.476562 23.335938 25.546875 23.492188 25.546875 23.675781 C 25.550781 23.863281 25.488281 24.023438 25.359375 24.15625 C 25.230469 24.289062 25.074219 24.355469 24.886719 24.359375 C 24.699219 24.363281 24.535156 24.300781 24.402344 24.167969 C 24.265625 24.035156 24.199219 23.875 24.199219 23.6875 Z M 27.585938 26.21875 C 27.222656 25.554688 26.695312 25.082031 25.992188 24.800781 C 26.082031 24.710938 26.160156 24.609375 26.226562 24.496094 C 26.292969 24.386719 26.34375 24.269531 26.378906 24.144531 C 26.414062 24.019531 26.4375 23.894531 26.441406 23.765625 C 26.445312 23.636719 26.4375 23.511719 26.410156 23.382812 C 26.386719 23.257812 26.34375 23.136719 26.289062 23.019531 C 26.234375 22.90625 26.164062 22.796875 26.082031 22.699219 C 26 22.597656 25.90625 22.511719 25.804688 22.433594 C 25.699219 22.359375 25.589844 22.292969 25.46875 22.246094 C 25.351562 22.195312 25.226562 22.164062 25.101562 22.144531 C 24.972656 22.125 24.84375 22.121094 24.71875 22.132812 C 24.589844 22.144531 24.464844 22.171875 24.34375 22.214844 C 24.222656 22.257812 24.105469 22.316406 24 22.386719 C 23.894531 22.457031 23.796875 22.542969 23.707031 22.636719 C 23.621094 22.730469 23.546875 22.835938 23.484375 22.949219 C 23.425781 23.0625 23.378906 23.179688 23.34375 23.304688 C 23.3125 23.429688 23.296875 23.558594 23.296875 23.6875 C 23.292969 24.128906 23.453125 24.5 23.765625 24.808594 C 23.074219 25.089844 22.546875 25.558594 22.1875 26.21875 C 21.996094 25.898438 21.867188 25.554688 21.796875 25.1875 C 21.726562 24.820312 21.722656 24.453125 21.78125 24.085938 C 21.84375 23.71875 21.964844 23.371094 22.148438 23.046875 C 22.332031 22.722656 22.566406 22.4375 22.851562 22.195312 C 23.132812 21.957031 23.453125 21.769531 23.800781 21.640625 C 24.152344 21.511719 24.515625 21.449219 24.886719 21.449219 C 25.261719 21.449219 25.621094 21.511719 25.972656 21.640625 C 26.324219 21.769531 26.640625 21.957031 26.925781 22.195312 C 27.207031 22.4375 27.441406 22.722656 27.625 23.046875 C 27.808594 23.371094 27.933594 23.71875 27.992188 24.085938 C 28.054688 24.453125 28.046875 24.820312 27.976562 25.1875 C 27.90625 25.554688 27.777344 25.898438 27.585938 26.21875 Z M 27.585938 26.21875 " fill-opacity="1" fill-rule="nonzero"/></g><g clip-path="url(#ee103e454c)"><path fill="#ffffff" d="M 5.105469 20.539062 C 4.839844 20.539062 4.574219 20.566406 4.316406 20.617188 C 4.054688 20.667969 3.800781 20.746094 3.554688 20.847656 C 3.308594 20.949219 3.078125 21.074219 2.855469 21.21875 C 2.636719 21.367188 2.429688 21.535156 2.242188 21.722656 C 2.054688 21.910156 1.886719 22.117188 1.738281 22.335938 C 1.59375 22.558594 1.46875 22.792969 1.367188 23.035156 C 1.265625 23.28125 1.1875 23.535156 1.136719 23.796875 C 1.082031 24.054688 1.058594 24.320312 1.058594 24.585938 C 1.058594 24.851562 1.082031 25.113281 1.136719 25.375 C 1.1875 25.636719 1.265625 25.886719 1.367188 26.132812 C 1.46875 26.378906 1.59375 26.613281 1.738281 26.832031 C 1.886719 27.054688 2.054688 27.257812 2.242188 27.445312 C 2.429688 27.632812 2.636719 27.800781 2.855469 27.949219 C 3.078125 28.097656 3.308594 28.222656 3.554688 28.324219 C 3.800781 28.425781 4.054688 28.503906 4.316406 28.554688 C 4.574219 28.605469 4.839844 28.632812 5.105469 28.632812 C 5.371094 28.632812 5.632812 28.605469 5.894531 28.554688 C 6.15625 28.503906 6.40625 28.425781 6.652344 28.324219 C 6.898438 28.222656 7.132812 28.097656 7.351562 27.949219 C 7.574219 27.800781 7.777344 27.632812 7.964844 27.445312 C 8.152344 27.257812 8.320312 27.054688 8.46875 26.832031 C 8.617188 26.613281 8.742188 26.378906 8.84375 26.132812 C 8.945312 25.886719 9.019531 25.636719 9.074219 25.375 C 9.125 25.113281 9.152344 24.851562 9.152344 24.585938 C 9.152344 24.320312 9.125 24.054688 9.074219 23.796875 C 9.019531 23.535156 8.945312 23.28125 8.84375 23.035156 C 8.742188 22.792969 8.617188 22.558594 8.46875 22.335938 C 8.320312 22.117188 8.152344 21.910156 7.964844 21.722656 C 7.777344 21.535156 7.574219 21.367188 7.351562 21.21875 C 7.132812 21.074219 6.898438 20.949219 6.652344 20.847656 C 6.40625 20.746094 6.15625 20.667969 5.894531 20.617188 C 5.632812 20.566406 5.371094 20.539062 5.105469 20.539062 Z M 5.105469 27.730469 C 4.324219 27.734375 3.640625 27.480469 3.050781 26.96875 C 3.207031 26.53125 3.472656 26.179688 3.847656 25.910156 C 4.222656 25.636719 4.640625 25.496094 5.105469 25.484375 C 5.566406 25.496094 5.984375 25.636719 6.359375 25.910156 C 6.734375 26.179688 7 26.53125 7.160156 26.96875 C 6.570312 27.480469 5.886719 27.734375 5.105469 27.730469 Z M 4.417969 23.6875 C 4.417969 23.5 4.480469 23.34375 4.613281 23.210938 C 4.742188 23.078125 4.902344 23.011719 5.085938 23.011719 C 5.273438 23.011719 5.429688 23.074219 5.5625 23.203125 C 5.695312 23.335938 5.761719 23.492188 5.765625 23.675781 C 5.769531 23.863281 5.703125 24.023438 5.574219 24.15625 C 5.445312 24.289062 5.289062 24.355469 5.105469 24.359375 C 4.914062 24.363281 4.753906 24.300781 4.617188 24.167969 C 4.484375 24.035156 4.417969 23.875 4.417969 23.6875 Z M 7.800781 26.21875 C 7.441406 25.554688 6.910156 25.082031 6.210938 24.800781 C 6.300781 24.710938 6.378906 24.609375 6.445312 24.496094 C 6.507812 24.386719 6.558594 24.269531 6.597656 24.144531 C 6.632812 24.019531 6.652344 23.894531 6.660156 23.765625 C 6.664062 23.636719 6.652344 23.511719 6.628906 23.382812 C 6.601562 23.257812 6.5625 23.136719 6.507812 23.019531 C 6.449219 22.90625 6.382812 22.796875 6.300781 22.699219 C 6.21875 22.597656 6.125 22.511719 6.019531 22.433594 C 5.917969 22.359375 5.804688 22.292969 5.6875 22.246094 C 5.570312 22.195312 5.445312 22.164062 5.316406 22.144531 C 5.191406 22.125 5.0625 22.121094 4.933594 22.132812 C 4.804688 22.144531 4.683594 22.171875 4.558594 22.214844 C 4.4375 22.257812 4.324219 22.316406 4.21875 22.386719 C 4.109375 22.457031 4.011719 22.542969 3.925781 22.636719 C 3.839844 22.730469 3.765625 22.835938 3.703125 22.949219 C 3.640625 23.0625 3.59375 23.179688 3.5625 23.304688 C 3.53125 23.429688 3.515625 23.558594 3.511719 23.6875 C 3.507812 24.125 3.65625 24.496094 3.960938 24.808594 C 3.277344 25.097656 2.757812 25.566406 2.40625 26.21875 C 2.214844 25.898438 2.082031 25.554688 2.011719 25.1875 C 1.941406 24.820312 1.9375 24.453125 2 24.085938 C 2.058594 23.71875 2.179688 23.371094 2.363281 23.046875 C 2.550781 22.722656 2.78125 22.4375 3.066406 22.195312 C 3.351562 21.957031 3.667969 21.769531 4.019531 21.640625 C 4.371094 21.511719 4.730469 21.449219 5.105469 21.449219 C 5.476562 21.449219 5.839844 21.511719 6.1875 21.640625 C 6.539062 21.769531 6.855469 21.957031 7.140625 22.195312 C 7.425781 22.4375 7.660156 22.722656 7.84375 23.046875 C 8.027344 23.371094 8.148438 23.71875 8.210938 24.085938 C 8.269531 24.453125 8.265625 24.820312 8.195312 25.1875 C 8.125 25.554688 7.996094 25.898438 7.800781 26.21875 Z M 7.800781 26.21875 " fill-opacity="1" fill-rule="nonzero"/></g><path fill="#ffffff" d="M 17.417969 16.097656 L 17.417969 13.847656 C 17.417969 13.648438 17.328125 13.511719 17.144531 13.433594 L 15.171875 12.589844 C 15.054688 12.539062 14.9375 12.539062 14.820312 12.589844 L 12.847656 13.433594 C 12.664062 13.511719 12.574219 13.648438 12.574219 13.847656 L 12.574219 16.097656 C 12.574219 16.296875 12.664062 16.433594 12.847656 16.511719 L 14.820312 17.355469 C 14.9375 17.40625 15.054688 17.40625 15.171875 17.355469 L 17.144531 16.492188 C 17.320312 16.417969 17.410156 16.285156 17.417969 16.097656 Z M 14.546875 16.257812 L 13.472656 15.808594 L 13.472656 14.523438 L 14.546875 14.972656 Z M 14.996094 14.199219 L 14.164062 13.84375 L 14.996094 13.488281 L 15.828125 13.84375 Z M 16.519531 15.800781 L 15.445312 16.25 L 15.445312 14.984375 L 16.519531 14.535156 Z M 16.519531 15.800781 " fill-opacity="1" fill-rule="nonzero"/><path fill="#ffffff" d="M 14.546875 22.335938 L 15.445312 22.335938 L 15.445312 23.238281 L 14.546875 23.238281 Z M 14.546875 22.335938 " fill-opacity="1" fill-rule="nonzero"/><path fill="#ffffff" d="M 14.546875 20.539062 L 15.445312 20.539062 L 15.445312 21.4375 L 14.546875 21.4375 Z M 14.546875 20.539062 " fill-opacity="1" fill-rule="nonzero"/><path fill="#ffffff" d="M 14.546875 18.742188 L 15.445312 18.742188 L 15.445312 19.640625 L 14.546875 19.640625 Z M 14.546875 18.742188 " fill-opacity="1" fill-rule="nonzero"/><path fill="#ffffff" d="M 13.648438 24.136719 L 14.546875 24.136719 L 14.546875 25.035156 L 13.648438 25.035156 Z M 13.648438 24.136719 " fill-opacity="1" fill-rule="nonzero"/><path fill="#ffffff" d="M 10.050781 24.136719 L 10.949219 24.136719 L 10.949219 25.035156 L 10.050781 25.035156 Z M 10.050781 24.136719 " fill-opacity="1" fill-rule="nonzero"/><path fill="#ffffff" d="M 11.847656 24.136719 L 12.746094 24.136719 L 12.746094 25.035156 L 11.847656 25.035156 Z M 11.847656 24.136719 " fill-opacity="1" fill-rule="nonzero"/><path fill="#ffffff" d="M 19.042969 24.136719 L 19.941406 24.136719 L 19.941406 25.035156 L 19.042969 25.035156 Z M 19.042969 24.136719 " fill-opacity="1" fill-rule="nonzero"/><path fill="#ffffff" d="M 17.242188 24.136719 L 18.144531 24.136719 L 18.144531 25.035156 L 17.242188 25.035156 Z M 17.242188 24.136719 " fill-opacity="1" fill-rule="nonzero"/><path fill="#ffffff" d="M 15.445312 24.136719 L 16.34375 24.136719 L 16.34375 25.035156 L 15.445312 25.035156 Z M 15.445312 24.136719 " fill-opacity="1" fill-rule="nonzero"/><path fill="#ffffff" d="M 22.1875 14.246094 L 23.089844 14.246094 L 23.089844 15.144531 L 22.1875 15.144531 Z M 22.1875 14.246094 " fill-opacity="1" fill-rule="nonzero"/><path fill="#ffffff" d="M 18.59375 14.246094 L 19.492188 14.246094 L 19.492188 15.144531 L 18.59375 15.144531 Z M 18.59375 14.246094 " fill-opacity="1" fill-rule="nonzero"/><path fill="#ffffff" d="M 23.988281 14.246094 L 24.886719 14.246094 L 24.886719 15.144531 L 23.988281 15.144531 Z M 23.988281 14.246094 " fill-opacity="1" fill-rule="nonzero"/><path fill="#ffffff" d="M 20.390625 14.246094 L 21.289062 14.246094 L 21.289062 15.144531 L 20.390625 15.144531 Z M 20.390625 14.246094 " fill-opacity="1" fill-rule="nonzero"/><path fill="#ffffff" d="M 6.902344 14.246094 L 7.800781 14.246094 L 7.800781 15.144531 L 6.902344 15.144531 Z M 6.902344 14.246094 " fill-opacity="1" fill-rule="nonzero"/><path fill="#ffffff" d="M 10.5 14.246094 L 11.398438 14.246094 L 11.398438 15.144531 L 10.5 15.144531 Z M 10.5 14.246094 " fill-opacity="1" fill-rule="nonzero"/><path fill="#ffffff" d="M 8.703125 14.246094 L 9.601562 14.246094 L 9.601562 15.144531 L 8.703125 15.144531 Z M 8.703125 14.246094 " fill-opacity="1" fill-rule="nonzero"/><path fill="#ffffff" d="M 5.105469 14.246094 L 6.003906 14.246094 L 6.003906 15.144531 L 5.105469 15.144531 Z M 5.105469 14.246094 " fill-opacity="1" fill-rule="nonzero"/><g clip-path="url(#af74d64cfe)"><path fill="#ffffff" d="M 27.023438 2.210938 C 26.816406 1.882812 26.554688 1.605469 26.242188 1.378906 C 25.925781 1.148438 25.582031 0.988281 25.207031 0.894531 C 24.828125 0.796875 24.449219 0.777344 24.066406 0.828125 C 23.679688 0.878906 23.320312 1 22.980469 1.191406 C 22.644531 1.382812 22.351562 1.628906 22.109375 1.933594 C 21.867188 2.234375 21.6875 2.570312 21.574219 2.941406 C 21.460938 3.316406 21.421875 3.695312 21.457031 4.082031 C 21.488281 4.46875 21.59375 4.832031 21.765625 5.179688 L 24.042969 9.503906 C 24.125 9.664062 24.257812 9.742188 24.4375 9.742188 C 24.617188 9.742188 24.75 9.664062 24.832031 9.503906 L 27.109375 5.179688 C 27.355469 4.710938 27.472656 4.214844 27.457031 3.683594 C 27.441406 3.15625 27.296875 2.664062 27.023438 2.210938 Z M 26.3125 4.761719 L 24.4375 8.332031 L 22.5625 4.761719 C 22.476562 4.601562 22.414062 4.429688 22.375 4.253906 C 22.332031 4.074219 22.316406 3.894531 22.320312 3.714844 C 22.328125 3.53125 22.355469 3.351562 22.40625 3.179688 C 22.457031 3.003906 22.53125 2.839844 22.625 2.683594 C 22.71875 2.527344 22.832031 2.382812 22.960938 2.257812 C 23.09375 2.132812 23.238281 2.023438 23.398438 1.933594 C 23.554688 1.84375 23.722656 1.777344 23.898438 1.730469 C 24.074219 1.683594 24.253906 1.660156 24.4375 1.660156 C 24.621094 1.660156 24.800781 1.683594 24.976562 1.730469 C 25.152344 1.777344 25.320312 1.84375 25.476562 1.933594 C 25.636719 2.023438 25.78125 2.132812 25.914062 2.257812 C 26.042969 2.382812 26.15625 2.527344 26.25 2.683594 C 26.34375 2.839844 26.417969 3.003906 26.46875 3.179688 C 26.519531 3.351562 26.546875 3.53125 26.554688 3.714844 C 26.558594 3.894531 26.542969 4.074219 26.5 4.253906 C 26.460938 4.429688 26.398438 4.601562 26.3125 4.761719 Z M 26.3125 4.761719 " fill-opacity="1" fill-rule="nonzero"/></g><path fill="#ffffff" d="M 24.4375 2.554688 C 24.257812 2.554688 24.085938 2.589844 23.921875 2.65625 C 23.757812 2.726562 23.609375 2.824219 23.484375 2.949219 C 23.355469 3.074219 23.257812 3.222656 23.191406 3.386719 C 23.121094 3.550781 23.089844 3.722656 23.089844 3.902344 C 23.089844 4.082031 23.121094 4.253906 23.191406 4.417969 C 23.257812 4.585938 23.355469 4.730469 23.484375 4.855469 C 23.609375 4.984375 23.757812 5.082031 23.921875 5.148438 C 24.085938 5.21875 24.257812 5.253906 24.4375 5.253906 C 24.617188 5.253906 24.789062 5.21875 24.953125 5.148438 C 25.117188 5.082031 25.265625 4.984375 25.390625 4.855469 C 25.519531 4.730469 25.613281 4.585938 25.683594 4.417969 C 25.753906 4.253906 25.785156 4.082031 25.785156 3.902344 C 25.785156 3.722656 25.753906 3.550781 25.683594 3.386719 C 25.613281 3.222656 25.519531 3.074219 25.390625 2.949219 C 25.265625 2.824219 25.117188 2.726562 24.953125 2.65625 C 24.789062 2.589844 24.617188 2.554688 24.4375 2.554688 Z M 24.4375 4.351562 C 24.3125 4.351562 24.207031 4.308594 24.121094 4.222656 C 24.03125 4.132812 23.988281 4.027344 23.988281 3.902344 C 23.988281 3.777344 24.03125 3.671875 24.121094 3.585938 C 24.207031 3.496094 24.3125 3.453125 24.4375 3.453125 C 24.5625 3.453125 24.667969 3.496094 24.753906 3.585938 C 24.84375 3.671875 24.886719 3.777344 24.886719 3.902344 C 24.886719 4.027344 24.84375 4.132812 24.753906 4.222656 C 24.667969 4.308594 24.5625 4.351562 24.4375 4.351562 Z M 24.4375 4.351562 " fill-opacity="1" fill-rule="nonzero"/><g clip-path="url(#e825ebc8ff)"><path fill="#ffffff" d="M 8.140625 2.210938 C 7.933594 1.882812 7.671875 1.605469 7.359375 1.378906 C 7.042969 1.148438 6.699219 0.988281 6.324219 0.894531 C 5.945312 0.796875 5.566406 0.777344 5.179688 0.828125 C 4.796875 0.878906 4.433594 1 4.097656 1.191406 C 3.757812 1.382812 3.46875 1.628906 3.226562 1.933594 C 2.984375 2.234375 2.804688 2.570312 2.691406 2.941406 C 2.578125 3.316406 2.539062 3.695312 2.574219 4.082031 C 2.605469 4.46875 2.710938 4.832031 2.882812 5.179688 L 5.160156 9.503906 C 5.242188 9.664062 5.375 9.742188 5.554688 9.742188 C 5.734375 9.742188 5.863281 9.664062 5.949219 9.503906 L 8.226562 5.179688 C 8.472656 4.710938 8.589844 4.214844 8.574219 3.683594 C 8.558594 3.15625 8.414062 2.664062 8.140625 2.210938 Z M 7.429688 4.761719 L 5.554688 8.332031 L 3.679688 4.761719 C 3.566406 4.519531 3.5 4.265625 3.484375 4 C 3.46875 3.734375 3.5 3.476562 3.582031 3.222656 C 3.660156 2.96875 3.785156 2.738281 3.953125 2.53125 C 4.121094 2.324219 4.320312 2.15625 4.554688 2.023438 C 4.785156 1.894531 5.035156 1.808594 5.296875 1.769531 C 5.5625 1.730469 5.824219 1.742188 6.082031 1.804688 C 6.339844 1.867188 6.582031 1.972656 6.800781 2.121094 C 7.019531 2.273438 7.203125 2.460938 7.351562 2.679688 C 7.546875 2.996094 7.652344 3.339844 7.667969 3.710938 C 7.679688 4.082031 7.601562 4.433594 7.429688 4.761719 Z M 7.429688 4.761719 " fill-opacity="1" fill-rule="nonzero"/></g><path fill="#ffffff" d="M 5.554688 2.554688 C 5.375 2.554688 5.203125 2.589844 5.039062 2.65625 C 4.871094 2.726562 4.726562 2.824219 4.601562 2.949219 C 4.472656 3.074219 4.375 3.222656 4.308594 3.386719 C 4.238281 3.550781 4.207031 3.722656 4.207031 3.902344 C 4.207031 4.082031 4.238281 4.253906 4.308594 4.417969 C 4.375 4.585938 4.472656 4.730469 4.601562 4.855469 C 4.726562 4.984375 4.871094 5.082031 5.039062 5.148438 C 5.203125 5.21875 5.375 5.253906 5.554688 5.253906 C 5.734375 5.253906 5.90625 5.21875 6.070312 5.148438 C 6.234375 5.082031 6.382812 4.984375 6.507812 4.855469 C 6.632812 4.730469 6.730469 4.585938 6.800781 4.417969 C 6.867188 4.253906 6.902344 4.082031 6.902344 3.902344 C 6.902344 3.722656 6.867188 3.550781 6.800781 3.386719 C 6.730469 3.222656 6.632812 3.074219 6.507812 2.949219 C 6.382812 2.824219 6.234375 2.726562 6.070312 2.65625 C 5.90625 2.589844 5.734375 2.554688 5.554688 2.554688 Z M 5.554688 4.351562 C 5.429688 4.351562 5.324219 4.308594 5.234375 4.222656 C 5.148438 4.132812 5.105469 4.027344 5.105469 3.902344 C 5.105469 3.777344 5.148438 3.671875 5.234375 3.585938 C 5.324219 3.496094 5.429688 3.453125 5.554688 3.453125 C 5.679688 3.453125 5.785156 3.496094 5.871094 3.585938 C 5.960938 3.671875 6.003906 3.777344 6.003906 3.902344 C 6.003906 4.027344 5.960938 4.132812 5.871094 4.222656 C 5.785156 4.308594 5.679688 4.351562 5.554688 4.351562 Z M 5.554688 4.351562 " fill-opacity="1" fill-rule="nonzero"/><path fill="#ffffff" d="M 5.105469 10.648438 L 6.003906 10.648438 L 6.003906 11.546875 L 5.105469 11.546875 Z M 5.105469 10.648438 " fill-opacity="1" fill-rule="nonzero"/><path fill="#ffffff" d="M 5.105469 12.445312 L 6.003906 12.445312 L 6.003906 13.34375 L 5.105469 13.34375 Z M 5.105469 12.445312 " fill-opacity="1" fill-rule="nonzero"/><path fill="#ffffff" d="M 23.988281 12.445312 L 24.886719 12.445312 L 24.886719 13.34375 L 23.988281 13.34375 Z M 23.988281 12.445312 " fill-opacity="1" fill-rule="nonzero"/><path fill="#ffffff" d="M 23.988281 10.648438 L 24.886719 10.648438 L 24.886719 11.546875 L 23.988281 11.546875 Z M 23.988281 10.648438 " fill-opacity="1" fill-rule="nonzero"/></svg>