<svg xmlns="http://www.w3.org/2000/svg" xmlns:xlink="http://www.w3.org/1999/xlink" width="40" zoomAndPan="magnify" viewBox="0 0 30 30.000001" height="40" preserveAspectRatio="xMidYMid meet" version="1.0"><defs><clipPath id="bd8891ff99"><path d="M 0.484375 0 L 29.515625 0 L 29.515625 29 L 0.484375 29 Z M 0.484375 0 " clip-rule="nonzero"/></clipPath></defs><g clip-path="url(#bd8891ff99)"><path fill="#ffffff" d="M 17.675781 14.359375 C 17.605469 14.21875 17.464844 14.132812 17.3125 14.132812 L 15.390625 14.132812 L 15.914062 12.71875 C 15.957031 12.589844 15.941406 12.453125 15.863281 12.339844 C 15.785156 12.230469 15.660156 12.167969 15.527344 12.167969 L 13.882812 12.167969 C 13.707031 12.167969 13.550781 12.277344 13.496094 12.445312 L 12.308594 15.941406 C 12.265625 16.066406 12.285156 16.203125 12.363281 16.308594 C 12.4375 16.417969 12.5625 16.480469 12.695312 16.480469 L 14.332031 16.480469 L 13.71875 18.78125 C 13.667969 18.972656 13.757812 19.171875 13.9375 19.257812 C 13.992188 19.285156 14.054688 19.296875 14.113281 19.296875 C 14.242188 19.296875 14.363281 19.238281 14.445312 19.128906 L 17.640625 14.785156 C 17.730469 14.660156 17.746094 14.496094 17.675781 14.359375 Z M 15.066406 16.902344 L 15.257812 16.175781 C 15.292969 16.054688 15.265625 15.921875 15.1875 15.820312 C 15.109375 15.722656 14.992188 15.660156 14.863281 15.660156 L 13.265625 15.660156 L 14.175781 12.984375 L 14.941406 12.984375 L 14.417969 14.402344 C 14.375 14.527344 14.390625 14.667969 14.46875 14.777344 C 14.542969 14.886719 14.671875 14.953125 14.804688 14.953125 L 16.5 14.953125 Z M 20.21875 15.730469 C 20.21875 12.855469 17.878906 10.515625 15.003906 10.515625 C 12.128906 10.515625 9.789062 12.855469 9.789062 15.730469 C 9.789062 18.605469 12.128906 20.945312 15.003906 20.945312 C 17.878906 20.945312 20.21875 18.605469 20.21875 15.730469 Z M 10.605469 15.730469 C 10.605469 13.308594 12.578125 11.335938 15.003906 11.335938 C 17.425781 11.335938 19.398438 13.308594 19.398438 15.730469 C 19.398438 18.15625 17.425781 20.128906 15.003906 20.128906 C 12.578125 20.128906 10.605469 18.15625 10.605469 15.730469 Z M 29.128906 24.855469 L 25.488281 24.15625 C 25.367188 24.132812 25.246094 24.164062 25.152344 24.242188 L 25.066406 24.308594 L 25.066406 12.78125 L 26.851562 14.226562 C 26.925781 14.285156 27.015625 14.316406 27.109375 14.316406 C 27.121094 14.316406 27.136719 14.316406 27.152344 14.3125 C 27.257812 14.304688 27.359375 14.25 27.425781 14.164062 L 29.371094 11.765625 C 29.511719 11.589844 29.488281 11.332031 29.3125 11.191406 L 23.820312 6.738281 L 23.820312 3.09375 L 24.203125 3.09375 C 24.429688 3.09375 24.609375 2.910156 24.609375 2.683594 C 24.609375 2.457031 24.429688 2.273438 24.203125 2.273438 L 20.125 2.273438 C 19.898438 2.273438 19.714844 2.457031 19.714844 2.683594 C 19.714844 2.910156 19.898438 3.09375 20.125 3.09375 L 20.507812 3.09375 L 20.507812 4.054688 L 16.253906 0.605469 C 15.539062 0.0078125 14.496094 0 13.769531 0.589844 L 0.695312 11.191406 C 0.519531 11.332031 0.492188 11.589844 0.636719 11.765625 L 2.578125 14.164062 C 2.648438 14.25 2.746094 14.304688 2.855469 14.3125 C 2.960938 14.324219 3.070312 14.292969 3.15625 14.226562 L 4.9375 12.78125 L 4.9375 23.863281 L 3.070312 23.863281 C 1.675781 23.863281 0.542969 25 0.542969 26.390625 C 0.542969 27.785156 1.675781 28.917969 3.070312 28.917969 L 14.5 28.917969 C 14.726562 28.917969 14.910156 28.734375 14.910156 28.507812 L 14.910156 27.585938 L 23.976562 27.585938 L 25.152344 28.542969 C 25.222656 28.601562 25.316406 28.632812 25.410156 28.632812 C 25.433594 28.632812 25.460938 28.632812 25.488281 28.625 L 29.128906 27.925781 C 29.324219 27.890625 29.460938 27.722656 29.460938 27.523438 L 29.460938 25.257812 C 29.460938 25.0625 29.324219 24.894531 29.128906 24.855469 Z M 21.328125 3.09375 L 23 3.09375 L 23 6.074219 L 21.328125 4.71875 Z M 2.957031 13.332031 L 1.53125 11.570312 L 14.289062 1.226562 C 14.707031 0.882812 15.316406 0.886719 15.730469 1.234375 C 15.730469 1.234375 15.734375 1.238281 15.734375 1.238281 L 28.476562 11.570312 L 27.046875 13.332031 L 15.261719 3.773438 C 15.109375 3.652344 14.894531 3.652344 14.746094 3.773438 Z M 1.363281 26.390625 C 1.363281 25.449219 2.128906 24.683594 3.070312 24.683594 L 12.4375 24.683594 L 12.4375 28.097656 L 3.070312 28.097656 C 2.128906 28.097656 1.363281 27.332031 1.363281 26.390625 Z M 14.09375 28.097656 L 13.253906 28.097656 L 13.253906 24.683594 L 14.09375 24.683594 Z M 5.757812 23.863281 L 5.757812 12.113281 L 15.003906 4.621094 L 24.25 12.113281 L 24.25 24.976562 L 23.976562 25.195312 L 14.910156 25.195312 L 14.910156 24.273438 C 14.910156 24.046875 14.726562 23.863281 14.5 23.863281 Z M 28.644531 27.1875 L 25.519531 27.785156 L 24.382812 26.859375 C 24.308594 26.800781 24.214844 26.765625 24.121094 26.765625 L 14.910156 26.765625 L 14.910156 26.015625 L 24.121094 26.015625 C 24.214844 26.015625 24.308594 25.984375 24.382812 25.925781 L 25.519531 24.996094 L 28.644531 25.597656 Z M 10.515625 26.390625 C 10.515625 26.617188 10.332031 26.800781 10.105469 26.800781 L 3.695312 26.800781 C 3.46875 26.800781 3.285156 26.617188 3.285156 26.390625 C 3.285156 26.164062 3.46875 25.980469 3.695312 25.980469 L 10.105469 25.980469 C 10.332031 25.980469 10.515625 26.164062 10.515625 26.390625 Z M 10.515625 26.390625 " fill-opacity="1" fill-rule="nonzero"/></g></svg>