<svg xmlns="http://www.w3.org/2000/svg" xmlns:xlink="http://www.w3.org/1999/xlink" width="40" zoomAndPan="magnify" viewBox="0 0 30 30.000001" height="40" preserveAspectRatio="xMidYMid meet" version="1.0"><defs><clipPath id="d978c70b6d"><path d="M 0.484375 0 L 29.515625 0 L 29.515625 29.03125 L 0.484375 29.03125 Z M 0.484375 0 " clip-rule="nonzero"/></clipPath></defs><g clip-path="url(#d978c70b6d)"><path fill="#000000" d="M 13.792969 18.296875 C 15.414062 19.4375 17.386719 20.109375 19.511719 20.109375 C 20.453125 20.109375 21.382812 19.980469 22.28125 19.71875 C 22.738281 20.042969 23.292969 20.230469 23.890625 20.230469 C 25.445312 20.230469 26.707031 18.960938 26.707031 17.398438 C 26.707031 17.28125 26.699219 17.167969 26.683594 17.054688 C 28.503906 15.167969 29.503906 12.6875 29.503906 10.054688 C 29.503906 4.511719 25.023438 0 19.511719 0 C 16.894531 0 14.414062 1.023438 12.558594 2.835938 L 12.558594 1.0625 C 12.558594 0.476562 12.082031 0 11.5 0 L 1.710938 0 C 1.128906 0 0.652344 0.476562 0.652344 1.0625 L 0.652344 7.300781 C 0.652344 7.886719 1.128906 8.367188 1.710938 8.367188 L 5.199219 8.367188 C 5.253906 8.65625 5.375 9.070312 5.625 9.496094 C 6.042969 10.207031 6.914062 11.101562 8.703125 11.328125 C 8.71875 11.328125 8.738281 11.328125 8.753906 11.328125 C 8.902344 11.328125 9.042969 11.246094 9.113281 11.113281 C 9.195312 10.960938 9.171875 10.777344 9.0625 10.648438 C 9.03125 10.609375 8.332031 9.777344 8.53125 8.367188 L 9.660156 8.367188 C 9.566406 8.921875 9.519531 9.488281 9.519531 10.054688 C 9.519531 12.195312 10.1875 14.175781 11.320312 15.808594 L 9.464844 17.675781 C 9.300781 17.621094 9.121094 17.589844 8.941406 17.589844 C 8.503906 17.589844 8.089844 17.761719 7.78125 18.070312 L 1.132812 24.761719 C 0.492188 25.40625 0.492188 26.453125 1.132812 27.09375 L 2.578125 28.550781 C 2.898438 28.871094 3.316406 29.03125 3.738281 29.03125 C 4.15625 29.03125 4.574219 28.871094 4.894531 28.550781 L 11.546875 21.859375 C 12 21.402344 12.132812 20.738281 11.9375 20.164062 Z M 23.890625 19.40625 C 22.789062 19.40625 21.894531 18.507812 21.894531 17.398438 C 21.894531 16.292969 22.789062 15.390625 23.890625 15.390625 C 24.992188 15.390625 25.886719 16.292969 25.886719 17.398438 C 25.886719 18.507812 24.992188 19.40625 23.890625 19.40625 Z M 21.230469 16.480469 C 20.671875 16.628906 20.09375 16.707031 19.511719 16.707031 C 15.867188 16.707031 12.902344 13.722656 12.902344 10.054688 C 12.902344 6.386719 15.867188 3.402344 19.511719 3.402344 C 23.15625 3.402344 26.125 6.386719 26.125 10.054688 C 26.125 11.757812 25.488281 13.367188 24.335938 14.601562 C 24.191406 14.578125 24.042969 14.566406 23.890625 14.566406 C 22.660156 14.566406 21.609375 15.367188 21.230469 16.480469 Z M 19.511719 0.824219 C 24.570312 0.824219 28.6875 4.964844 28.6875 10.054688 C 28.6875 12.316406 27.882812 14.457031 26.410156 16.140625 C 26.144531 15.601562 25.714844 15.160156 25.183594 14.882812 C 26.320312 13.535156 26.941406 11.839844 26.941406 10.054688 C 26.941406 5.933594 23.609375 2.578125 19.511719 2.578125 C 16.320312 2.578125 13.59375 4.617188 12.542969 7.464844 C 12.550781 7.410156 12.558594 7.355469 12.558594 7.300781 L 12.558594 4.035156 C 14.304688 1.992188 16.832031 0.824219 19.511719 0.824219 Z M 8.1875 7.542969 C 8 7.542969 7.832031 7.675781 7.789062 7.863281 C 7.554688 8.910156 7.722656 9.75 7.949219 10.324219 C 6.046875 9.695312 5.96875 8.023438 5.96875 7.945312 C 5.960938 7.722656 5.78125 7.542969 5.558594 7.542969 L 1.710938 7.542969 C 1.578125 7.542969 1.472656 7.433594 1.472656 7.300781 L 1.472656 1.0625 C 1.472656 0.929688 1.578125 0.824219 1.710938 0.824219 L 11.5 0.824219 C 11.632812 0.824219 11.738281 0.929688 11.738281 1.0625 L 11.738281 7.300781 C 11.738281 7.433594 11.632812 7.542969 11.5 7.542969 L 10.164062 7.542969 C 10.164062 7.542969 10.164062 7.542969 10.160156 7.542969 Z M 10.492188 8.367188 L 11.5 8.367188 C 11.894531 8.367188 12.242188 8.144531 12.421875 7.816406 C 12.203125 8.523438 12.082031 9.277344 12.082031 10.054688 C 12.082031 14.175781 15.414062 17.53125 19.511719 17.53125 C 20.039062 17.53125 20.566406 17.472656 21.078125 17.363281 C 21.078125 17.375 21.078125 17.386719 21.078125 17.398438 C 21.078125 18.011719 21.273438 18.582031 21.605469 19.046875 C 20.921875 19.207031 20.21875 19.289062 19.511719 19.289062 C 14.453125 19.289062 10.335938 15.144531 10.335938 10.054688 C 10.335938 9.488281 10.390625 8.921875 10.492188 8.367188 Z M 13.136719 17.792969 L 11.480469 19.460938 L 10.164062 18.136719 L 11.820312 16.46875 C 12.21875 16.949219 12.660156 17.394531 13.136719 17.792969 Z M 10.96875 21.277344 L 4.316406 27.96875 C 3.996094 28.289062 3.476562 28.289062 3.15625 27.96875 L 1.710938 26.511719 C 1.390625 26.191406 1.390625 25.667969 1.710938 25.34375 L 8.359375 18.652344 C 8.515625 18.496094 8.71875 18.414062 8.941406 18.414062 C 9.160156 18.414062 9.367188 18.496094 9.519531 18.652344 L 10.96875 20.109375 C 11.289062 20.429688 11.289062 20.953125 10.96875 21.277344 Z M 22.648438 13.847656 L 23.28125 13.210938 C 23.558594 12.9375 23.558594 12.488281 23.28125 12.210938 C 23.027344 11.957031 23.121094 11.660156 23.15625 11.574219 C 23.191406 11.488281 23.335938 11.210938 23.695312 11.210938 C 24.082031 11.210938 24.398438 10.894531 24.398438 10.503906 L 24.398438 9.605469 C 24.398438 9.214844 24.082031 8.898438 23.695312 8.898438 C 23.335938 8.898438 23.191406 8.621094 23.15625 8.535156 C 23.121094 8.449219 23.027344 8.152344 23.28125 7.898438 C 23.558594 7.621094 23.558594 7.171875 23.28125 6.898438 L 22.648438 6.261719 C 22.515625 6.125 22.339844 6.054688 22.152344 6.054688 C 21.964844 6.054688 21.789062 6.125 21.65625 6.261719 C 21.402344 6.515625 21.105469 6.421875 21.023438 6.386719 C 20.9375 6.351562 20.664062 6.207031 20.664062 5.847656 C 20.664062 5.457031 20.347656 5.140625 19.960938 5.140625 L 19.066406 5.140625 C 18.675781 5.140625 18.363281 5.457031 18.363281 5.847656 C 18.363281 6.207031 18.085938 6.351562 18.003906 6.386719 C 17.917969 6.421875 17.621094 6.515625 17.367188 6.261719 C 17.09375 5.984375 16.648438 5.984375 16.375 6.261719 L 15.742188 6.898438 C 15.609375 7.03125 15.535156 7.207031 15.535156 7.398438 C 15.535156 7.585938 15.609375 7.765625 15.742188 7.898438 C 15.996094 8.152344 15.902344 8.449219 15.867188 8.535156 C 15.832031 8.621094 15.691406 8.898438 15.328125 8.898438 C 14.941406 8.898438 14.625 9.214844 14.625 9.605469 L 14.625 10.503906 C 14.625 10.894531 14.941406 11.210938 15.328125 11.210938 C 15.691406 11.210938 15.832031 11.488281 15.867188 11.574219 C 15.902344 11.660156 15.996094 11.957031 15.742188 12.210938 C 15.46875 12.488281 15.46875 12.9375 15.742188 13.210938 L 16.375 13.847656 C 16.648438 14.125 17.09375 14.125 17.367188 13.847656 C 17.539062 13.675781 17.777344 13.628906 18.003906 13.722656 C 18.226562 13.816406 18.363281 14.019531 18.363281 14.261719 C 18.363281 14.652344 18.675781 14.96875 19.0625 14.96875 L 19.960938 14.96875 C 20.347656 14.96875 20.664062 14.652344 20.664062 14.261719 C 20.664062 13.902344 20.9375 13.757812 21.023438 13.722656 C 21.105469 13.6875 21.402344 13.59375 21.65625 13.847656 C 21.789062 13.984375 21.964844 14.054688 22.152344 14.054688 C 22.339844 14.058594 22.515625 13.984375 22.648438 13.847656 Z M 20.710938 12.964844 C 20.210938 13.171875 19.890625 13.617188 19.847656 14.148438 L 19.175781 14.148438 C 19.132812 13.617188 18.8125 13.167969 18.316406 12.960938 C 17.816406 12.753906 17.277344 12.84375 16.875 13.1875 L 16.398438 12.710938 C 16.742188 12.304688 16.828125 11.761719 16.621094 11.257812 C 16.417969 10.757812 15.972656 10.4375 15.445312 10.394531 L 15.445312 9.714844 C 15.972656 9.675781 16.417969 9.351562 16.621094 8.851562 C 16.828125 8.351562 16.742188 7.804688 16.398438 7.402344 L 16.875 6.921875 C 17.277344 7.265625 17.816406 7.355469 18.316406 7.148438 C 18.8125 6.941406 19.132812 6.492188 19.175781 5.960938 L 19.847656 5.960938 C 19.890625 6.492188 20.210938 6.941406 20.710938 7.148438 C 21.207031 7.355469 21.75 7.265625 22.148438 6.921875 L 22.628906 7.402344 C 22.285156 7.804688 22.195312 8.351562 22.402344 8.851562 C 22.609375 9.351562 23.054688 9.675781 23.578125 9.714844 L 23.578125 10.394531 C 23.054688 10.433594 22.609375 10.757812 22.402344 11.257812 C 22.195312 11.761719 22.285156 12.304688 22.628906 12.710938 L 22.148438 13.1875 C 21.75 12.84375 21.207031 12.757812 20.710938 12.964844 Z M 19.511719 7.480469 C 18.101562 7.480469 16.953125 8.636719 16.953125 10.054688 C 16.953125 11.476562 18.101562 12.628906 19.511719 12.628906 C 20.921875 12.628906 22.070312 11.476562 22.070312 10.054688 C 22.070312 8.636719 20.921875 7.480469 19.511719 7.480469 Z M 19.511719 11.808594 C 18.550781 11.808594 17.769531 11.023438 17.769531 10.054688 C 17.769531 9.089844 18.550781 8.300781 19.511719 8.300781 C 20.472656 8.300781 21.253906 9.089844 21.253906 10.054688 C 21.253906 11.023438 20.472656 11.808594 19.511719 11.808594 Z M 20.648438 9.082031 C 20.816406 9.238281 20.824219 9.5 20.667969 9.664062 L 19.421875 11.007812 C 19.34375 11.089844 19.234375 11.136719 19.125 11.136719 C 19.121094 11.136719 19.117188 11.136719 19.113281 11.136719 C 18.996094 11.132812 18.886719 11.082031 18.8125 10.992188 L 18.128906 10.191406 C 17.984375 10.015625 18.003906 9.757812 18.175781 9.609375 C 18.347656 9.460938 18.605469 9.484375 18.75 9.65625 L 19.136719 10.109375 L 20.074219 9.101562 C 20.226562 8.9375 20.484375 8.929688 20.648438 9.082031 Z M 26.753906 21.589844 C 26.566406 21.480469 26.324219 21.535156 26.203125 21.71875 L 25.070312 23.453125 L 24.960938 22.617188 C 25.003906 22.554688 25.039062 22.484375 25.0625 22.40625 L 25.246094 21.847656 C 25.324219 21.605469 25.28125 21.335938 25.132812 21.132812 C 24.984375 20.925781 24.746094 20.804688 24.492188 20.804688 L 23.292969 20.804688 C 23.039062 20.804688 22.800781 20.925781 22.652344 21.132812 C 22.503906 21.335938 22.460938 21.605469 22.539062 21.847656 L 22.71875 22.40625 C 22.746094 22.484375 22.78125 22.554688 22.824219 22.617188 L 22.710938 23.453125 L 21.582031 21.71875 C 21.460938 21.535156 21.21875 21.480469 21.03125 21.589844 C 19.332031 22.605469 18.277344 24.46875 18.277344 26.453125 C 18.277344 27.050781 18.605469 27.882812 20.171875 28.464844 C 21.160156 28.832031 22.480469 29.03125 23.890625 29.03125 C 26.6875 29.03125 29.503906 28.234375 29.503906 26.453125 C 29.503906 24.46875 28.449219 22.605469 26.753906 21.589844 Z M 24.457031 21.625 L 24.292969 22.136719 L 23.492188 22.136719 L 23.328125 21.625 Z M 23.601562 22.957031 L 24.179688 22.957031 L 24.386719 24.503906 L 23.890625 25.261719 L 23.398438 24.503906 Z M 23.890625 28.210938 C 21.203125 28.210938 19.097656 27.4375 19.097656 26.453125 C 19.097656 24.886719 19.863281 23.414062 21.121094 22.511719 L 23.550781 26.234375 C 23.625 26.351562 23.753906 26.421875 23.890625 26.421875 C 24.03125 26.421875 24.15625 26.351562 24.234375 26.234375 L 26.664062 22.511719 C 27.921875 23.414062 28.6875 24.886719 28.6875 26.453125 C 28.6875 27.4375 26.582031 28.210938 23.890625 28.210938 Z M 10.0625 6.511719 L 3.148438 6.511719 C 2.921875 6.511719 2.738281 6.328125 2.738281 6.097656 C 2.738281 5.871094 2.921875 5.6875 3.148438 5.6875 L 10.0625 5.6875 C 10.289062 5.6875 10.472656 5.871094 10.472656 6.097656 C 10.472656 6.328125 10.289062 6.511719 10.0625 6.511719 Z M 2.738281 4.183594 C 2.738281 3.957031 2.921875 3.769531 3.148438 3.769531 L 10.0625 3.769531 C 10.289062 3.769531 10.472656 3.957031 10.472656 4.183594 C 10.472656 4.410156 10.289062 4.59375 10.0625 4.59375 L 3.148438 4.59375 C 2.921875 4.59375 2.738281 4.410156 2.738281 4.183594 Z M 2.738281 2.265625 C 2.738281 2.039062 2.921875 1.855469 3.148438 1.855469 L 10.0625 1.855469 C 10.289062 1.855469 10.472656 2.039062 10.472656 2.265625 C 10.472656 2.492188 10.289062 2.675781 10.0625 2.675781 L 3.148438 2.675781 C 2.921875 2.675781 2.738281 2.492188 2.738281 2.265625 Z M 2.738281 2.265625 " fill-opacity="1" fill-rule="nonzero"/></g></svg>