<svg xmlns="http://www.w3.org/2000/svg" xmlns:xlink="http://www.w3.org/1999/xlink" width="40" zoomAndPan="magnify" viewBox="0 0 30 30.000001" height="40" preserveAspectRatio="xMidYMid meet" version="1.0"><defs><clipPath id="335faa6aac"><path d="M 20 20 L 28.636719 20 L 28.636719 28.648438 L 20 28.648438 Z M 20 20 " clip-rule="nonzero"/></clipPath><clipPath id="9ea27df00f"><path d="M 1.058594 20 L 10 20 L 10 28.648438 L 1.058594 28.648438 Z M 1.058594 20 " clip-rule="nonzero"/></clipPath><clipPath id="0875762e3d"><path d="M 21 0.34375 L 28 0.34375 L 28 10 L 21 10 Z M 21 0.34375 " clip-rule="nonzero"/></clipPath><clipPath id="d93abc784a"><path d="M 2 0.34375 L 9 0.34375 L 9 10 L 2 10 Z M 2 0.34375 " clip-rule="nonzero"/></clipPath></defs><g clip-path="url(#335faa6aac)"><path fill="#000000" d="M 24.636719 20.515625 C 24.371094 20.515625 24.113281 20.539062 23.855469 20.59375 C 23.597656 20.644531 23.34375 20.71875 23.101562 20.820312 C 22.859375 20.921875 22.628906 21.046875 22.410156 21.195312 C 22.191406 21.34375 21.988281 21.511719 21.804688 21.699219 C 21.617188 21.886719 21.453125 22.089844 21.304688 22.3125 C 21.160156 22.53125 21.035156 22.765625 20.9375 23.007812 C 20.835938 23.253906 20.757812 23.507812 20.707031 23.769531 C 20.65625 24.027344 20.632812 24.289062 20.632812 24.554688 C 20.632812 24.820312 20.65625 25.085938 20.707031 25.34375 C 20.757812 25.605469 20.835938 25.859375 20.9375 26.101562 C 21.035156 26.347656 21.160156 26.582031 21.304688 26.800781 C 21.453125 27.023438 21.617188 27.226562 21.804688 27.414062 C 21.988281 27.601562 22.191406 27.769531 22.410156 27.917969 C 22.628906 28.0625 22.859375 28.1875 23.101562 28.289062 C 23.34375 28.390625 23.597656 28.46875 23.855469 28.519531 C 24.113281 28.570312 24.371094 28.597656 24.636719 28.597656 C 24.898438 28.597656 25.15625 28.570312 25.417969 28.519531 C 25.675781 28.46875 25.925781 28.390625 26.167969 28.289062 C 26.410156 28.1875 26.640625 28.0625 26.859375 27.917969 C 27.078125 27.769531 27.28125 27.601562 27.464844 27.414062 C 27.652344 27.226562 27.816406 27.023438 27.964844 26.800781 C 28.109375 26.582031 28.234375 26.347656 28.332031 26.101562 C 28.433594 25.859375 28.511719 25.605469 28.5625 25.34375 C 28.613281 25.085938 28.636719 24.820312 28.636719 24.554688 C 28.636719 24.289062 28.613281 24.027344 28.5625 23.769531 C 28.511719 23.507812 28.433594 23.253906 28.332031 23.007812 C 28.234375 22.765625 28.109375 22.53125 27.964844 22.3125 C 27.816406 22.089844 27.652344 21.886719 27.464844 21.699219 C 27.28125 21.511719 27.078125 21.34375 26.859375 21.195312 C 26.640625 21.046875 26.410156 20.921875 26.167969 20.820312 C 25.925781 20.71875 25.675781 20.644531 25.417969 20.59375 C 25.15625 20.539062 24.898438 20.515625 24.636719 20.515625 Z M 24.636719 27.699219 C 23.863281 27.703125 23.183594 27.449219 22.601562 26.9375 C 22.746094 26.492188 23.003906 26.132812 23.378906 25.859375 C 23.753906 25.585938 24.171875 25.449219 24.636719 25.449219 C 25.097656 25.449219 25.515625 25.585938 25.890625 25.859375 C 26.265625 26.132812 26.523438 26.492188 26.667969 26.9375 C 26.085938 27.449219 25.40625 27.703125 24.636719 27.699219 Z M 23.953125 23.65625 C 23.953125 23.472656 24.019531 23.316406 24.148438 23.183594 C 24.277344 23.050781 24.433594 22.984375 24.617188 22.984375 C 24.800781 22.984375 24.957031 23.046875 25.089844 23.175781 C 25.21875 23.308594 25.285156 23.464844 25.289062 23.648438 C 25.292969 23.835938 25.230469 23.992188 25.101562 24.125 C 24.972656 24.257812 24.816406 24.328125 24.636719 24.332031 C 24.449219 24.335938 24.289062 24.269531 24.15625 24.140625 C 24.019531 24.007812 23.953125 23.847656 23.953125 23.65625 Z M 27.304688 26.1875 C 26.945312 25.523438 26.421875 25.050781 25.730469 24.773438 C 25.820312 24.679688 25.894531 24.578125 25.960938 24.46875 C 26.023438 24.355469 26.074219 24.238281 26.109375 24.117188 C 26.148438 23.992188 26.167969 23.867188 26.171875 23.738281 C 26.179688 23.609375 26.167969 23.484375 26.140625 23.355469 C 26.117188 23.230469 26.078125 23.109375 26.023438 22.992188 C 25.964844 22.878906 25.898438 22.769531 25.816406 22.671875 C 25.738281 22.570312 25.644531 22.484375 25.542969 22.40625 C 25.441406 22.332031 25.328125 22.269531 25.210938 22.21875 C 25.09375 22.171875 24.972656 22.136719 24.847656 22.117188 C 24.71875 22.097656 24.59375 22.09375 24.46875 22.105469 C 24.339844 22.121094 24.214844 22.148438 24.097656 22.191406 C 23.976562 22.234375 23.863281 22.289062 23.757812 22.363281 C 23.652344 22.433594 23.554688 22.515625 23.46875 22.609375 C 23.382812 22.703125 23.308594 22.808594 23.25 22.921875 C 23.1875 23.035156 23.140625 23.152344 23.109375 23.277344 C 23.078125 23.402344 23.0625 23.53125 23.058594 23.65625 C 23.058594 24.097656 23.214844 24.472656 23.527344 24.78125 C 22.839844 25.0625 22.320312 25.53125 21.964844 26.1875 C 21.777344 25.867188 21.644531 25.523438 21.578125 25.15625 C 21.507812 24.792969 21.503906 24.425781 21.5625 24.058594 C 21.621094 23.691406 21.742188 23.34375 21.925781 23.019531 C 22.105469 22.695312 22.339844 22.410156 22.621094 22.171875 C 22.902344 21.929688 23.214844 21.746094 23.5625 21.617188 C 23.90625 21.488281 24.265625 21.421875 24.636719 21.421875 C 25.003906 21.421875 25.363281 21.488281 25.707031 21.617188 C 26.054688 21.746094 26.367188 21.929688 26.652344 22.171875 C 26.933594 22.410156 27.164062 22.695312 27.34375 23.019531 C 27.527344 23.34375 27.648438 23.691406 27.707031 24.058594 C 27.765625 24.425781 27.761719 24.792969 27.695312 25.15625 C 27.625 25.523438 27.496094 25.867188 27.304688 26.1875 Z M 27.304688 26.1875 " fill-opacity="1" fill-rule="nonzero"/></g><g clip-path="url(#9ea27df00f)"><path fill="#000000" d="M 5.0625 20.515625 C 4.796875 20.515625 4.539062 20.539062 4.28125 20.59375 C 4.023438 20.644531 3.773438 20.71875 3.53125 20.820312 C 3.285156 20.921875 3.054688 21.046875 2.835938 21.195312 C 2.617188 21.34375 2.417969 21.511719 2.230469 21.699219 C 2.042969 21.886719 1.878906 22.089844 1.734375 22.3125 C 1.585938 22.53125 1.464844 22.765625 1.363281 23.007812 C 1.261719 23.253906 1.1875 23.507812 1.136719 23.769531 C 1.082031 24.027344 1.058594 24.289062 1.058594 24.554688 C 1.058594 24.820312 1.082031 25.085938 1.136719 25.34375 C 1.1875 25.605469 1.261719 25.859375 1.363281 26.101562 C 1.464844 26.347656 1.585938 26.582031 1.734375 26.800781 C 1.878906 27.023438 2.042969 27.226562 2.230469 27.414062 C 2.417969 27.601562 2.617188 27.769531 2.835938 27.917969 C 3.054688 28.0625 3.285156 28.1875 3.53125 28.289062 C 3.773438 28.390625 4.023438 28.46875 4.28125 28.519531 C 4.539062 28.570312 4.796875 28.597656 5.0625 28.597656 C 5.324219 28.597656 5.585938 28.570312 5.84375 28.519531 C 6.101562 28.46875 6.351562 28.390625 6.59375 28.289062 C 6.835938 28.1875 7.066406 28.0625 7.285156 27.917969 C 7.503906 27.769531 7.707031 27.601562 7.894531 27.414062 C 8.078125 27.226562 8.246094 27.023438 8.390625 26.800781 C 8.535156 26.582031 8.660156 26.347656 8.761719 26.101562 C 8.859375 25.859375 8.9375 25.605469 8.988281 25.34375 C 9.039062 25.085938 9.066406 24.820312 9.066406 24.554688 C 9.066406 24.289062 9.039062 24.027344 8.988281 23.769531 C 8.9375 23.507812 8.859375 23.253906 8.761719 23.007812 C 8.660156 22.765625 8.535156 22.53125 8.390625 22.3125 C 8.246094 22.089844 8.078125 21.886719 7.894531 21.699219 C 7.707031 21.511719 7.503906 21.34375 7.285156 21.195312 C 7.066406 21.046875 6.835938 20.921875 6.59375 20.820312 C 6.351562 20.71875 6.101562 20.644531 5.84375 20.59375 C 5.585938 20.539062 5.324219 20.515625 5.0625 20.515625 Z M 5.0625 27.699219 C 4.289062 27.703125 3.613281 27.449219 3.027344 26.9375 C 3.183594 26.5 3.449219 26.148438 3.820312 25.878906 C 4.191406 25.609375 4.605469 25.464844 5.0625 25.453125 C 5.519531 25.464844 5.933594 25.609375 6.304688 25.878906 C 6.675781 26.148438 6.9375 26.5 7.09375 26.9375 C 6.511719 27.449219 5.835938 27.703125 5.0625 27.699219 Z M 4.382812 23.65625 C 4.382812 23.472656 4.445312 23.316406 4.574219 23.183594 C 4.703125 23.050781 4.859375 22.984375 5.042969 22.984375 C 5.226562 22.984375 5.382812 23.046875 5.515625 23.175781 C 5.644531 23.308594 5.714844 23.464844 5.714844 23.648438 C 5.71875 23.835938 5.65625 23.992188 5.527344 24.125 C 5.398438 24.257812 5.246094 24.328125 5.0625 24.332031 C 4.875 24.335938 4.714844 24.269531 4.582031 24.140625 C 4.449219 24.007812 4.382812 23.847656 4.382812 23.65625 Z M 7.730469 26.1875 C 7.375 25.523438 6.847656 25.050781 6.15625 24.773438 C 6.246094 24.679688 6.320312 24.578125 6.386719 24.46875 C 6.449219 24.355469 6.5 24.238281 6.539062 24.117188 C 6.574219 23.992188 6.59375 23.867188 6.597656 23.738281 C 6.605469 23.609375 6.59375 23.484375 6.570312 23.355469 C 6.542969 23.230469 6.503906 23.109375 6.449219 22.992188 C 6.394531 22.878906 6.324219 22.769531 6.246094 22.671875 C 6.164062 22.570312 6.070312 22.484375 5.96875 22.40625 C 5.867188 22.332031 5.757812 22.269531 5.636719 22.21875 C 5.519531 22.171875 5.398438 22.136719 5.273438 22.117188 C 5.148438 22.097656 5.019531 22.09375 4.894531 22.105469 C 4.765625 22.121094 4.644531 22.148438 4.523438 22.191406 C 4.402344 22.234375 4.289062 22.289062 4.183594 22.363281 C 4.078125 22.433594 3.980469 22.515625 3.894531 22.609375 C 3.808594 22.703125 3.734375 22.808594 3.675781 22.921875 C 3.613281 23.035156 3.566406 23.152344 3.535156 23.277344 C 3.503906 23.402344 3.488281 23.53125 3.488281 23.65625 C 3.480469 24.09375 3.628906 24.46875 3.933594 24.78125 C 3.253906 25.066406 2.742188 25.535156 2.390625 26.1875 C 2.203125 25.867188 2.074219 25.523438 2.003906 25.15625 C 1.933594 24.792969 1.929688 24.425781 1.988281 24.058594 C 2.046875 23.691406 2.167969 23.34375 2.351562 23.019531 C 2.53125 22.695312 2.765625 22.410156 3.046875 22.171875 C 3.328125 21.929688 3.640625 21.746094 3.988281 21.617188 C 4.335938 21.488281 4.691406 21.421875 5.0625 21.421875 C 5.429688 21.421875 5.789062 21.488281 6.136719 21.617188 C 6.480469 21.746094 6.796875 21.929688 7.078125 22.171875 C 7.359375 22.410156 7.589844 22.695312 7.773438 23.019531 C 7.953125 23.34375 8.074219 23.691406 8.132812 24.058594 C 8.195312 24.425781 8.1875 24.792969 8.121094 25.15625 C 8.050781 25.523438 7.921875 25.867188 7.730469 26.1875 Z M 7.730469 26.1875 " fill-opacity="1" fill-rule="nonzero"/></g><path fill="#000000" d="M 17.246094 16.078125 L 17.246094 13.832031 C 17.246094 13.632812 17.15625 13.496094 16.976562 13.417969 L 15.023438 12.574219 C 14.90625 12.527344 14.789062 12.527344 14.675781 12.574219 L 12.722656 13.417969 C 12.542969 13.496094 12.449219 13.632812 12.449219 13.832031 L 12.449219 16.078125 C 12.449219 16.277344 12.542969 16.414062 12.722656 16.492188 L 14.675781 17.335938 C 14.789062 17.382812 14.90625 17.382812 15.023438 17.335938 L 16.976562 16.472656 C 17.148438 16.398438 17.238281 16.265625 17.246094 16.078125 Z M 14.402344 16.238281 L 13.339844 15.789062 L 13.339844 14.507812 L 14.402344 14.953125 Z M 14.847656 14.183594 L 14.023438 13.828125 L 14.847656 13.472656 L 15.671875 13.828125 Z M 16.355469 15.78125 L 15.292969 16.230469 L 15.292969 14.96875 L 16.355469 14.519531 Z M 16.355469 15.78125 " fill-opacity="1" fill-rule="nonzero"/><path fill="#000000" d="M 14.402344 22.3125 L 15.292969 22.3125 L 15.292969 23.207031 L 14.402344 23.207031 Z M 14.402344 22.3125 " fill-opacity="1" fill-rule="nonzero"/><path fill="#000000" d="M 14.402344 20.515625 L 15.292969 20.515625 L 15.292969 21.414062 L 14.402344 21.414062 Z M 14.402344 20.515625 " fill-opacity="1" fill-rule="nonzero"/><path fill="#000000" d="M 14.402344 18.71875 L 15.292969 18.71875 L 15.292969 19.617188 L 14.402344 19.617188 Z M 14.402344 18.71875 " fill-opacity="1" fill-rule="nonzero"/><path fill="#000000" d="M 13.515625 24.105469 L 14.402344 24.105469 L 14.402344 25.003906 L 13.515625 25.003906 Z M 13.515625 24.105469 " fill-opacity="1" fill-rule="nonzero"/><path fill="#000000" d="M 9.953125 24.105469 L 10.84375 24.105469 L 10.84375 25.003906 L 9.953125 25.003906 Z M 9.953125 24.105469 " fill-opacity="1" fill-rule="nonzero"/><path fill="#000000" d="M 11.734375 24.105469 L 12.625 24.105469 L 12.625 25.003906 L 11.734375 25.003906 Z M 11.734375 24.105469 " fill-opacity="1" fill-rule="nonzero"/><path fill="#000000" d="M 18.851562 24.105469 L 19.742188 24.105469 L 19.742188 25.003906 L 18.851562 25.003906 Z M 18.851562 24.105469 " fill-opacity="1" fill-rule="nonzero"/><path fill="#000000" d="M 17.074219 24.105469 L 17.960938 24.105469 L 17.960938 25.003906 L 17.074219 25.003906 Z M 17.074219 24.105469 " fill-opacity="1" fill-rule="nonzero"/><path fill="#000000" d="M 15.292969 24.105469 L 16.183594 24.105469 L 16.183594 25.003906 L 15.292969 25.003906 Z M 15.292969 24.105469 " fill-opacity="1" fill-rule="nonzero"/><path fill="#000000" d="M 21.964844 14.226562 L 22.855469 14.226562 L 22.855469 15.125 L 21.964844 15.125 Z M 21.964844 14.226562 " fill-opacity="1" fill-rule="nonzero"/><path fill="#000000" d="M 18.40625 14.226562 L 19.296875 14.226562 L 19.296875 15.125 L 18.40625 15.125 Z M 18.40625 14.226562 " fill-opacity="1" fill-rule="nonzero"/><path fill="#000000" d="M 23.746094 14.226562 L 24.636719 14.226562 L 24.636719 15.125 L 23.746094 15.125 Z M 23.746094 14.226562 " fill-opacity="1" fill-rule="nonzero"/><path fill="#000000" d="M 20.1875 14.226562 L 21.074219 14.226562 L 21.074219 15.125 L 20.1875 15.125 Z M 20.1875 14.226562 " fill-opacity="1" fill-rule="nonzero"/><path fill="#000000" d="M 6.839844 14.226562 L 7.730469 14.226562 L 7.730469 15.125 L 6.839844 15.125 Z M 6.839844 14.226562 " fill-opacity="1" fill-rule="nonzero"/><path fill="#000000" d="M 10.398438 14.226562 L 11.289062 14.226562 L 11.289062 15.125 L 10.398438 15.125 Z M 10.398438 14.226562 " fill-opacity="1" fill-rule="nonzero"/><path fill="#000000" d="M 8.621094 14.226562 L 9.511719 14.226562 L 9.511719 15.125 L 8.621094 15.125 Z M 8.621094 14.226562 " fill-opacity="1" fill-rule="nonzero"/><path fill="#000000" d="M 5.0625 14.226562 L 5.953125 14.226562 L 5.953125 15.125 L 5.0625 15.125 Z M 5.0625 14.226562 " fill-opacity="1" fill-rule="nonzero"/><g clip-path="url(#0875762e3d)"><path fill="#000000" d="M 26.746094 2.210938 C 26.542969 1.882812 26.285156 1.605469 25.976562 1.378906 C 25.664062 1.148438 25.324219 0.988281 24.949219 0.894531 C 24.578125 0.796875 24.203125 0.777344 23.820312 0.828125 C 23.441406 0.878906 23.082031 1 22.75 1.191406 C 22.414062 1.382812 22.128906 1.628906 21.886719 1.929688 C 21.648438 2.234375 21.46875 2.570312 21.359375 2.941406 C 21.246094 3.3125 21.207031 3.6875 21.238281 4.074219 C 21.273438 4.460938 21.375 4.828125 21.546875 5.175781 L 23.796875 9.496094 C 23.882812 9.652344 24.011719 9.730469 24.191406 9.730469 C 24.367188 9.730469 24.496094 9.652344 24.582031 9.496094 L 26.832031 5.175781 C 27.078125 4.707031 27.195312 4.210938 27.179688 3.679688 C 27.164062 3.152344 27.019531 2.664062 26.746094 2.210938 Z M 26.046875 4.757812 L 24.191406 8.324219 L 22.335938 4.757812 C 22.25 4.59375 22.1875 4.425781 22.148438 4.25 C 22.109375 4.070312 22.089844 3.890625 22.097656 3.710938 C 22.101562 3.527344 22.128906 3.351562 22.179688 3.175781 C 22.230469 3 22.304688 2.835938 22.398438 2.679688 C 22.488281 2.523438 22.601562 2.382812 22.730469 2.253906 C 22.859375 2.128906 23.003906 2.019531 23.160156 1.929688 C 23.316406 1.839844 23.484375 1.773438 23.65625 1.726562 C 23.832031 1.679688 24.011719 1.660156 24.191406 1.660156 C 24.371094 1.660156 24.546875 1.679688 24.722656 1.726562 C 24.898438 1.773438 25.0625 1.839844 25.21875 1.929688 C 25.375 2.019531 25.519531 2.128906 25.648438 2.253906 C 25.777344 2.382812 25.890625 2.523438 25.984375 2.679688 C 26.078125 2.835938 26.148438 3 26.199219 3.175781 C 26.25 3.351562 26.277344 3.527344 26.285156 3.710938 C 26.289062 3.890625 26.273438 4.070312 26.230469 4.25 C 26.191406 4.425781 26.128906 4.59375 26.046875 4.757812 Z M 26.046875 4.757812 " fill-opacity="1" fill-rule="nonzero"/></g><path fill="#000000" d="M 24.191406 2.550781 C 24.011719 2.550781 23.84375 2.585938 23.679688 2.65625 C 23.515625 2.722656 23.371094 2.820312 23.246094 2.945312 C 23.121094 3.074219 23.023438 3.21875 22.957031 3.382812 C 22.890625 3.546875 22.855469 3.71875 22.855469 3.898438 C 22.855469 4.078125 22.890625 4.25 22.957031 4.414062 C 23.023438 4.578125 23.121094 4.726562 23.246094 4.851562 C 23.371094 4.976562 23.515625 5.074219 23.679688 5.144531 C 23.84375 5.210938 24.011719 5.246094 24.191406 5.246094 C 24.367188 5.246094 24.539062 5.210938 24.699219 5.144531 C 24.863281 5.074219 25.007812 4.976562 25.132812 4.851562 C 25.257812 4.726562 25.355469 4.578125 25.421875 4.414062 C 25.492188 4.25 25.523438 4.078125 25.523438 3.898438 C 25.523438 3.71875 25.492188 3.546875 25.421875 3.382812 C 25.355469 3.21875 25.257812 3.074219 25.132812 2.945312 C 25.007812 2.820312 24.863281 2.722656 24.699219 2.65625 C 24.539062 2.585938 24.367188 2.550781 24.191406 2.550781 Z M 24.191406 4.347656 C 24.066406 4.347656 23.960938 4.304688 23.875 4.214844 C 23.789062 4.128906 23.746094 4.023438 23.746094 3.898438 C 23.746094 3.773438 23.789062 3.667969 23.875 3.582031 C 23.960938 3.492188 24.066406 3.449219 24.191406 3.449219 C 24.3125 3.449219 24.417969 3.492188 24.503906 3.582031 C 24.589844 3.667969 24.636719 3.773438 24.636719 3.898438 C 24.636719 4.023438 24.589844 4.128906 24.503906 4.214844 C 24.417969 4.304688 24.3125 4.347656 24.191406 4.347656 Z M 24.191406 4.347656 " fill-opacity="1" fill-rule="nonzero"/><g clip-path="url(#d93abc784a)"><path fill="#000000" d="M 8.0625 2.210938 C 7.859375 1.882812 7.601562 1.605469 7.292969 1.378906 C 6.980469 1.148438 6.640625 0.988281 6.265625 0.894531 C 5.894531 0.796875 5.519531 0.777344 5.136719 0.828125 C 4.757812 0.878906 4.398438 1 4.066406 1.191406 C 3.730469 1.382812 3.445312 1.628906 3.203125 1.929688 C 2.960938 2.234375 2.785156 2.570312 2.675781 2.941406 C 2.5625 3.3125 2.523438 3.6875 2.554688 4.074219 C 2.589844 4.460938 2.691406 4.828125 2.863281 5.175781 L 5.113281 9.496094 C 5.199219 9.652344 5.328125 9.730469 5.507812 9.730469 C 5.683594 9.730469 5.8125 9.652344 5.898438 9.496094 L 8.148438 5.175781 C 8.394531 4.707031 8.511719 4.210938 8.496094 3.679688 C 8.480469 3.152344 8.335938 2.664062 8.0625 2.210938 Z M 7.363281 4.757812 L 5.507812 8.324219 L 3.652344 4.757812 C 3.539062 4.515625 3.476562 4.261719 3.460938 3.996094 C 3.441406 3.730469 3.472656 3.472656 3.554688 3.21875 C 3.632812 2.964844 3.757812 2.734375 3.921875 2.527344 C 4.089844 2.320312 4.289062 2.152344 4.515625 2.023438 C 4.746094 1.890625 4.992188 1.804688 5.253906 1.769531 C 5.511719 1.730469 5.773438 1.742188 6.027344 1.804688 C 6.285156 1.863281 6.523438 1.96875 6.738281 2.121094 C 6.957031 2.273438 7.136719 2.457031 7.285156 2.675781 C 7.480469 2.992188 7.582031 3.335938 7.597656 3.707031 C 7.609375 4.078125 7.53125 4.429688 7.363281 4.757812 Z M 7.363281 4.757812 " fill-opacity="1" fill-rule="nonzero"/></g><path fill="#000000" d="M 5.507812 2.550781 C 5.328125 2.550781 5.160156 2.585938 4.996094 2.65625 C 4.832031 2.722656 4.6875 2.820312 4.5625 2.945312 C 4.4375 3.074219 4.339844 3.21875 4.273438 3.382812 C 4.207031 3.546875 4.171875 3.71875 4.171875 3.898438 C 4.171875 4.078125 4.207031 4.25 4.273438 4.414062 C 4.339844 4.578125 4.4375 4.726562 4.5625 4.851562 C 4.6875 4.976562 4.832031 5.074219 4.996094 5.144531 C 5.160156 5.210938 5.328125 5.246094 5.507812 5.246094 C 5.683594 5.246094 5.855469 5.210938 6.015625 5.144531 C 6.179688 5.074219 6.324219 4.976562 6.449219 4.851562 C 6.574219 4.726562 6.671875 4.578125 6.738281 4.414062 C 6.808594 4.25 6.839844 4.078125 6.839844 3.898438 C 6.839844 3.71875 6.808594 3.546875 6.738281 3.382812 C 6.671875 3.21875 6.574219 3.074219 6.449219 2.945312 C 6.324219 2.820312 6.179688 2.722656 6.015625 2.65625 C 5.855469 2.585938 5.683594 2.550781 5.507812 2.550781 Z M 5.507812 4.347656 C 5.382812 4.347656 5.277344 4.304688 5.191406 4.214844 C 5.105469 4.128906 5.0625 4.023438 5.0625 3.898438 C 5.0625 3.773438 5.105469 3.667969 5.191406 3.582031 C 5.277344 3.492188 5.382812 3.449219 5.507812 3.449219 C 5.628906 3.449219 5.734375 3.492188 5.820312 3.582031 C 5.90625 3.667969 5.953125 3.773438 5.953125 3.898438 C 5.953125 4.023438 5.90625 4.128906 5.820312 4.214844 C 5.734375 4.304688 5.628906 4.347656 5.507812 4.347656 Z M 5.507812 4.347656 " fill-opacity="1" fill-rule="nonzero"/><path fill="#000000" d="M 5.0625 10.636719 L 5.953125 10.636719 L 5.953125 11.53125 L 5.0625 11.53125 Z M 5.0625 10.636719 " fill-opacity="1" fill-rule="nonzero"/><path fill="#000000" d="M 5.0625 12.429688 L 5.953125 12.429688 L 5.953125 13.328125 L 5.0625 13.328125 Z M 5.0625 12.429688 " fill-opacity="1" fill-rule="nonzero"/><path fill="#000000" d="M 23.746094 12.429688 L 24.636719 12.429688 L 24.636719 13.328125 L 23.746094 13.328125 Z M 23.746094 12.429688 " fill-opacity="1" fill-rule="nonzero"/><path fill="#000000" d="M 23.746094 10.636719 L 24.636719 10.636719 L 24.636719 11.53125 L 23.746094 11.53125 Z M 23.746094 10.636719 " fill-opacity="1" fill-rule="nonzero"/></svg>