<svg xmlns="http://www.w3.org/2000/svg" xmlns:xlink="http://www.w3.org/1999/xlink" width="40" zoomAndPan="magnify" viewBox="0 0 30 30.000001" height="40" preserveAspectRatio="xMidYMid meet" version="1.0"><defs><clipPath id="06137dc17c"><path d="M 0.484375 0.144531 L 29.515625 0.144531 L 29.515625 29.03125 L 0.484375 29.03125 Z M 0.484375 0.144531 " clip-rule="nonzero"/></clipPath></defs><g clip-path="url(#06137dc17c)"><path fill="#000000" d="M 15 29.175781 C 14.816406 29.175781 14.664062 29.113281 14.535156 28.984375 L 11.875 26.324219 L 8.242188 27.296875 C 8.066406 27.34375 7.898438 27.324219 7.742188 27.234375 C 7.582031 27.140625 7.480469 27.007812 7.433594 26.832031 L 6.460938 23.199219 L 2.828125 22.226562 C 2.652344 22.179688 2.519531 22.078125 2.429688 21.917969 C 2.335938 21.761719 2.316406 21.59375 2.363281 21.417969 L 3.335938 17.785156 L 0.675781 15.128906 C 0.546875 15 0.484375 14.84375 0.484375 14.660156 C 0.484375 14.480469 0.546875 14.324219 0.675781 14.195312 L 3.335938 11.535156 L 2.363281 7.902344 C 2.316406 7.726562 2.335938 7.5625 2.429688 7.402344 C 2.519531 7.246094 2.652344 7.144531 2.828125 7.097656 L 6.460938 6.121094 L 7.433594 2.492188 C 7.480469 2.316406 7.582031 2.179688 7.742188 2.089844 C 7.898438 2 8.066406 1.976562 8.242188 2.023438 L 11.875 2.996094 L 14.535156 0.339844 C 14.664062 0.210938 14.816406 0.144531 15 0.144531 C 15.183594 0.144531 15.335938 0.210938 15.464844 0.339844 L 18.125 2.996094 L 21.757812 2.023438 C 21.933594 1.976562 22.101562 2 22.257812 2.089844 C 22.417969 2.179688 22.519531 2.316406 22.566406 2.492188 L 23.539062 6.121094 L 27.171875 7.097656 C 27.347656 7.144531 27.480469 7.246094 27.570312 7.402344 C 27.664062 7.5625 27.683594 7.726562 27.636719 7.902344 L 26.664062 11.535156 L 29.324219 14.195312 C 29.453125 14.324219 29.515625 14.480469 29.515625 14.660156 C 29.515625 14.84375 29.453125 15 29.324219 15.128906 L 26.664062 17.785156 L 27.636719 21.417969 C 27.683594 21.59375 27.664062 21.761719 27.570312 21.917969 C 27.480469 22.078125 27.347656 22.179688 27.171875 22.226562 L 23.539062 23.199219 L 22.566406 26.832031 C 22.519531 27.007812 22.417969 27.140625 22.257812 27.234375 C 22.101562 27.324219 21.933594 27.347656 21.757812 27.296875 L 18.125 26.324219 L 15.464844 28.984375 C 15.335938 29.113281 15.183594 29.179688 15 29.175781 Z M 12.070312 24.929688 C 12.253906 24.929688 12.410156 24.992188 12.539062 25.121094 L 15 27.585938 L 17.460938 25.121094 C 17.640625 24.941406 17.855469 24.886719 18.097656 24.953125 L 21.460938 25.851562 L 22.363281 22.492188 C 22.429688 22.246094 22.582031 22.089844 22.828125 22.023438 L 26.191406 21.121094 L 25.289062 17.761719 C 25.226562 17.515625 25.28125 17.300781 25.460938 17.125 L 27.921875 14.660156 L 25.460938 12.199219 C 25.28125 12.019531 25.226562 11.808594 25.289062 11.5625 L 26.191406 8.199219 L 22.828125 7.296875 C 22.582031 7.234375 22.429688 7.078125 22.363281 6.832031 L 21.460938 3.46875 L 18.097656 4.371094 C 17.855469 4.4375 17.640625 4.378906 17.460938 4.199219 L 15 1.738281 L 12.539062 4.199219 C 12.359375 4.378906 12.144531 4.4375 11.902344 4.371094 L 8.539062 3.46875 L 7.636719 6.832031 C 7.570312 7.078125 7.417969 7.234375 7.171875 7.296875 L 3.808594 8.199219 L 4.710938 11.5625 C 4.773438 11.808594 4.71875 12.019531 4.539062 12.199219 L 2.078125 14.660156 L 4.539062 17.125 C 4.71875 17.300781 4.773438 17.515625 4.710938 17.761719 L 3.808594 21.121094 L 7.171875 22.023438 C 7.417969 22.089844 7.570312 22.246094 7.636719 22.492188 L 8.539062 25.851562 L 11.902344 24.953125 C 11.957031 24.9375 12.015625 24.929688 12.070312 24.929688 Z M 12.070312 24.929688 " fill-opacity="1" fill-rule="nonzero"/></g><path fill="#000000" d="M 11.699219 14 C 11.351562 14 11.015625 13.933594 10.691406 13.800781 C 10.367188 13.667969 10.082031 13.476562 9.835938 13.226562 C 9.585938 12.980469 9.394531 12.695312 9.261719 12.371094 C 9.128906 12.050781 9.0625 11.710938 9.0625 11.363281 C 9.0625 11.011719 9.128906 10.675781 9.261719 10.351562 C 9.394531 10.027344 9.585938 9.742188 9.835938 9.496094 C 10.082031 9.25 10.367188 9.058594 10.691406 8.921875 C 11.015625 8.789062 11.351562 8.722656 11.699219 8.722656 C 12.050781 8.722656 12.386719 8.789062 12.710938 8.921875 C 13.035156 9.058594 13.320312 9.25 13.566406 9.496094 C 13.816406 9.742188 14.003906 10.027344 14.140625 10.351562 C 14.273438 10.675781 14.339844 11.011719 14.339844 11.363281 C 14.339844 11.710938 14.273438 12.046875 14.136719 12.371094 C 14.003906 12.695312 13.8125 12.980469 13.566406 13.226562 C 13.320312 13.476562 13.035156 13.664062 12.710938 13.800781 C 12.386719 13.933594 12.050781 14 11.699219 14 Z M 11.699219 10.042969 C 11.527344 10.042969 11.359375 10.074219 11.195312 10.144531 C 11.035156 10.210938 10.890625 10.304688 10.769531 10.429688 C 10.644531 10.554688 10.546875 10.695312 10.480469 10.855469 C 10.414062 11.019531 10.382812 11.1875 10.382812 11.363281 C 10.382812 11.539062 10.414062 11.707031 10.480469 11.867188 C 10.546875 12.027344 10.644531 12.171875 10.769531 12.296875 C 10.890625 12.417969 11.035156 12.515625 11.195312 12.582031 C 11.359375 12.648438 11.527344 12.683594 11.699219 12.683594 C 11.875 12.683594 12.042969 12.648438 12.207031 12.582031 C 12.367188 12.515625 12.511719 12.417969 12.632812 12.296875 C 12.757812 12.171875 12.851562 12.027344 12.921875 11.867188 C 12.988281 11.707031 13.019531 11.539062 13.019531 11.363281 C 13.019531 11.1875 12.988281 11.019531 12.917969 10.855469 C 12.851562 10.695312 12.757812 10.554688 12.632812 10.429688 C 12.511719 10.304688 12.367188 10.210938 12.207031 10.144531 C 12.042969 10.078125 11.875 10.042969 11.699219 10.042969 Z M 11.699219 10.042969 " fill-opacity="1" fill-rule="nonzero"/><path fill="#000000" d="M 18.300781 20.601562 C 17.949219 20.601562 17.613281 20.53125 17.289062 20.398438 C 16.964844 20.265625 16.679688 20.074219 16.433594 19.828125 C 16.183594 19.578125 15.996094 19.292969 15.859375 18.96875 C 15.726562 18.648438 15.660156 18.308594 15.660156 17.960938 C 15.660156 17.609375 15.726562 17.273438 15.859375 16.949219 C 15.996094 16.628906 16.183594 16.339844 16.433594 16.09375 C 16.679688 15.847656 16.964844 15.65625 17.289062 15.523438 C 17.613281 15.386719 17.949219 15.320312 18.300781 15.320312 C 18.648438 15.320312 18.984375 15.386719 19.308594 15.523438 C 19.632812 15.65625 19.917969 15.847656 20.164062 16.09375 C 20.414062 16.339844 20.605469 16.628906 20.738281 16.949219 C 20.871094 17.273438 20.9375 17.609375 20.9375 17.960938 C 20.9375 18.308594 20.871094 18.648438 20.738281 18.96875 C 20.601562 19.292969 20.410156 19.578125 20.164062 19.824219 C 19.917969 20.074219 19.632812 20.265625 19.308594 20.398438 C 18.984375 20.53125 18.648438 20.597656 18.300781 20.601562 Z M 18.300781 16.640625 C 18.125 16.640625 17.957031 16.675781 17.792969 16.742188 C 17.632812 16.808594 17.488281 16.902344 17.367188 17.027344 C 17.242188 17.152344 17.148438 17.292969 17.078125 17.457031 C 17.011719 17.617188 16.980469 17.785156 16.980469 17.960938 C 16.980469 18.136719 17.011719 18.304688 17.078125 18.464844 C 17.148438 18.628906 17.242188 18.769531 17.367188 18.894531 C 17.488281 19.015625 17.632812 19.113281 17.792969 19.179688 C 17.957031 19.246094 18.125 19.28125 18.300781 19.28125 C 18.472656 19.28125 18.640625 19.246094 18.804688 19.179688 C 18.964844 19.113281 19.109375 19.015625 19.230469 18.894531 C 19.355469 18.769531 19.453125 18.628906 19.519531 18.464844 C 19.585938 18.304688 19.617188 18.136719 19.617188 17.960938 C 19.617188 17.785156 19.585938 17.617188 19.519531 17.457031 C 19.449219 17.292969 19.355469 17.152344 19.230469 17.027344 C 19.109375 16.902344 18.964844 16.808594 18.804688 16.742188 C 18.640625 16.675781 18.472656 16.640625 18.300781 16.640625 Z M 18.300781 16.640625 " fill-opacity="1" fill-rule="nonzero"/><path fill="#000000" d="M 11.039062 20.601562 C 10.769531 20.597656 10.570312 20.476562 10.449219 20.234375 C 10.328125 19.992188 10.351562 19.761719 10.511719 19.542969 L 18.429688 8.988281 C 18.539062 8.839844 18.683594 8.753906 18.867188 8.730469 C 19.046875 8.703125 19.207031 8.746094 19.355469 8.855469 C 19.5 8.964844 19.585938 9.109375 19.613281 9.289062 C 19.636719 9.46875 19.597656 9.632812 19.488281 9.777344 L 11.570312 20.335938 C 11.4375 20.511719 11.261719 20.601562 11.039062 20.601562 Z M 11.039062 20.601562 " fill-opacity="1" fill-rule="nonzero"/></svg>