<svg xmlns="http://www.w3.org/2000/svg" xmlns:xlink="http://www.w3.org/1999/xlink" width="256" zoomAndPan="magnify" viewBox="0 0 192 191.999996" height="256" preserveAspectRatio="xMidYMid meet" version="1.0"><path fill="#0f5278" d="M 57.957031 73.992188 L 155.164062 73.992188 L 155.164062 122.265625 L 57.957031 122.265625 Z M 57.957031 73.992188 " fill-opacity="1" fill-rule="nonzero"/><path fill="#1b71a1" d="M 143.398438 127.132812 L 137.519531 127.132812 L 137.519531 117.347656 L 143.398438 117.347656 Z M 131.636719 127.132812 L 125.753906 127.132812 L 125.753906 117.347656 L 131.636719 117.347656 Z M 119.871094 127.132812 L 113.988281 127.132812 L 113.988281 117.347656 L 119.871094 117.347656 Z M 108.109375 127.132812 L 102.226562 127.132812 L 102.226562 117.347656 L 108.109375 117.347656 Z M 96.394531 127.132812 L 90.511719 127.132812 L 90.511719 117.347656 L 96.394531 117.347656 Z M 84.628906 127.132812 L 78.75 127.132812 L 78.75 117.347656 L 84.628906 117.347656 Z M 72.867188 127.132812 L 66.984375 127.132812 L 66.984375 117.347656 L 72.867188 117.347656 Z M 62.828125 113.695312 L 53.039062 113.695312 L 53.039062 107.816406 L 62.828125 107.816406 Z M 160.03125 107.511719 L 150.246094 107.511719 L 150.246094 101.628906 L 160.03125 101.628906 Z M 62.828125 101.933594 L 53.039062 101.933594 L 53.039062 96.050781 L 62.828125 96.050781 Z M 160.03125 95.746094 L 150.246094 95.746094 L 150.246094 89.863281 L 160.03125 89.863281 Z M 62.828125 90.167969 L 53.039062 90.167969 L 53.039062 84.285156 L 62.828125 84.285156 Z M 141.675781 78.859375 L 135.792969 78.859375 L 135.792969 69.074219 L 141.675781 69.074219 Z M 129.914062 78.859375 L 124.03125 78.859375 L 124.03125 69.074219 L 129.914062 69.074219 Z M 118.148438 78.859375 L 112.265625 78.859375 L 112.265625 69.074219 L 118.148438 69.074219 Z M 106.382812 78.859375 L 100.5 78.859375 L 100.5 69.074219 L 106.382812 69.074219 Z M 94.671875 78.859375 L 88.789062 78.859375 L 88.789062 69.074219 L 94.671875 69.074219 Z M 82.90625 78.859375 L 77.023438 78.859375 L 77.023438 69.074219 L 82.90625 69.074219 Z M 71.140625 78.859375 L 65.261719 78.859375 L 65.261719 69.074219 L 71.140625 69.074219 Z M 71.140625 78.859375 " fill-opacity="1" fill-rule="nonzero"/><path fill="#1b71a1" d="M 139.648438 39.816406 L 141.167969 39.816406 L 141.167969 69.226562 L 139.648438 69.226562 Z M 139.648438 39.816406 " fill-opacity="1" fill-rule="nonzero"/><path fill="#1b71a1" d="M 139.648438 39.816406 L 170.578125 39.816406 L 170.578125 41.84375 L 139.648438 41.84375 Z M 139.648438 39.816406 " fill-opacity="1" fill-rule="nonzero"/><path fill="#1b71a1" d="M 170.882812 44.023438 C 174.433594 44.023438 174.433594 38.546875 170.882812 38.546875 C 167.335938 38.546875 167.335938 44.023438 170.882812 44.023438 Z M 170.882812 44.023438 " fill-opacity="1" fill-rule="nonzero"/><path fill="#1b71a1" d="M 126.464844 20.039062 L 128.492188 20.039062 L 128.492188 69.226562 L 126.464844 69.226562 Z M 126.464844 20.039062 " fill-opacity="1" fill-rule="nonzero"/><path fill="#1b71a1" d="M 126.464844 20.039062 L 150.296875 20.039062 L 150.296875 21.5625 L 126.464844 21.5625 Z M 126.464844 20.039062 " fill-opacity="1" fill-rule="nonzero"/><path fill="#1b71a1" d="M 148.773438 5.335938 L 150.296875 5.335938 L 150.296875 21.5625 L 148.773438 21.5625 Z M 148.773438 5.335938 " fill-opacity="1" fill-rule="nonzero"/><path fill="#1b71a1" d="M 149.332031 8.175781 C 152.882812 8.175781 152.882812 2.699219 149.332031 2.699219 C 145.785156 2.699219 145.785156 8.175781 149.332031 8.175781 Z M 149.332031 8.175781 " fill-opacity="1" fill-rule="nonzero"/><path fill="#1b71a1" d="M 113.789062 3.308594 L 115.816406 3.308594 L 115.816406 69.226562 L 113.789062 69.226562 Z M 113.789062 3.308594 " fill-opacity="1" fill-rule="nonzero"/><path fill="#1b71a1" d="M 103.140625 32.71875 L 104.660156 32.71875 L 104.660156 69.226562 L 103.140625 69.226562 Z M 103.140625 32.71875 " fill-opacity="1" fill-rule="nonzero"/><path fill="#1b71a1" d="M 90.460938 47.421875 L 91.984375 47.421875 L 91.984375 69.226562 L 90.460938 69.226562 Z M 90.460938 47.421875 " fill-opacity="1" fill-rule="nonzero"/><path fill="#1b71a1" d="M 75.757812 47.421875 L 90.460938 47.421875 L 90.460938 48.945312 L 75.757812 48.945312 Z M 75.757812 47.421875 " fill-opacity="1" fill-rule="nonzero"/><path fill="#1b71a1" d="M 73.726562 21.5625 L 75.757812 21.5625 L 75.757812 48.945312 L 73.726562 48.945312 Z M 73.726562 21.5625 " fill-opacity="1" fill-rule="nonzero"/><path fill="#1b71a1" d="M 79.304688 56.550781 L 81.335938 56.550781 L 81.335938 69.226562 L 79.304688 69.226562 Z M 79.304688 56.550781 " fill-opacity="1" fill-rule="nonzero"/><path fill="#1b71a1" d="M 61.050781 56.550781 L 79.304688 56.550781 L 79.304688 58.070312 L 61.050781 58.070312 Z M 61.050781 56.550781 " fill-opacity="1" fill-rule="nonzero"/><path fill="#1b71a1" d="M 68.152344 63.648438 L 70.179688 63.648438 L 70.179688 69.226562 L 68.152344 69.226562 Z M 68.152344 63.648438 " fill-opacity="1" fill-rule="nonzero"/><path fill="#1b71a1" d="M 35.699219 63.648438 L 68.152344 63.648438 L 68.152344 65.675781 L 35.699219 65.675781 Z M 35.699219 63.648438 " fill-opacity="1" fill-rule="nonzero"/><path fill="#1b71a1" d="M 35.394531 68.363281 C 38.941406 68.363281 38.941406 62.886719 35.394531 62.886719 C 31.894531 62.886719 31.894531 68.363281 35.394531 68.363281 Z M 35.394531 68.363281 " fill-opacity="1" fill-rule="nonzero"/><path fill="#1b71a1" d="M 60.039062 60.757812 C 63.585938 60.757812 63.585938 55.28125 60.039062 55.28125 C 56.488281 55.28125 56.488281 60.757812 60.039062 60.757812 Z M 60.039062 60.757812 " fill-opacity="1" fill-rule="nonzero"/><path fill="#1b71a1" d="M 73.980469 25.210938 C 77.53125 25.210938 77.53125 19.734375 73.980469 19.734375 C 70.433594 19.734375 70.484375 25.210938 73.980469 25.210938 Z M 73.980469 25.210938 " fill-opacity="1" fill-rule="nonzero"/><path fill="#1b71a1" d="M 102.835938 35.859375 C 106.382812 35.859375 106.382812 30.382812 102.835938 30.382812 C 99.335938 30.382812 99.335938 35.859375 102.835938 35.859375 Z M 102.835938 35.859375 " fill-opacity="1" fill-rule="nonzero"/><path fill="#1b71a1" d="M 114.089844 5.488281 C 117.640625 5.488281 117.640625 0.0117188 114.089844 0.0117188 C 110.542969 0.0117188 110.542969 5.488281 114.089844 5.488281 Z M 114.089844 5.488281 " fill-opacity="1" fill-rule="nonzero"/><path fill="#1b71a1" d="M 159.425781 91.03125 L 186.804688 91.03125 L 186.804688 93.058594 L 159.425781 93.058594 Z M 159.425781 91.03125 " fill-opacity="1" fill-rule="nonzero"/><path fill="#1b71a1" d="M 159.425781 103.707031 L 181.226562 103.707031 L 181.226562 105.734375 L 159.425781 105.734375 Z M 159.425781 103.707031 " fill-opacity="1" fill-rule="nonzero"/><path fill="#1b71a1" d="M 179.707031 105.734375 L 181.226562 105.734375 L 181.226562 131.089844 L 179.707031 131.089844 Z M 179.707031 105.734375 " fill-opacity="1" fill-rule="nonzero"/><path fill="#1b71a1" d="M 186.703125 95.085938 C 190.253906 95.085938 190.253906 89.609375 186.703125 89.609375 C 183.15625 89.609375 183.15625 95.085938 186.703125 95.085938 Z M 186.703125 95.085938 " fill-opacity="1" fill-rule="nonzero"/><path fill="#1b71a1" d="M 180.621094 134.285156 C 184.167969 134.285156 184.167969 128.808594 180.621094 128.808594 C 177.070312 128.808594 177.070312 134.285156 180.621094 134.285156 Z M 180.621094 134.285156 " fill-opacity="1" fill-rule="nonzero"/><path fill="#1b71a1" d="M 139.648438 127.539062 L 141.167969 127.539062 L 141.167969 158.472656 L 139.648438 158.472656 Z M 139.648438 127.539062 " fill-opacity="1" fill-rule="nonzero"/><path fill="#1b71a1" d="M 139.648438 158.472656 L 170.578125 158.472656 L 170.578125 159.992188 L 139.648438 159.992188 Z M 139.648438 158.472656 " fill-opacity="1" fill-rule="nonzero"/><path fill="#1b71a1" d="M 128.492188 127.539062 L 130.519531 127.539062 L 130.519531 171.148438 L 128.492188 171.148438 Z M 128.492188 127.539062 " fill-opacity="1" fill-rule="nonzero"/><path fill="#1b71a1" d="M 128.492188 171.148438 L 157.902344 171.148438 L 157.902344 173.175781 L 128.492188 173.175781 Z M 128.492188 171.148438 " fill-opacity="1" fill-rule="nonzero"/><path fill="#1b71a1" d="M 115.816406 127.539062 L 117.335938 127.539062 L 117.335938 171.148438 L 115.816406 171.148438 Z M 115.816406 127.539062 " fill-opacity="1" fill-rule="nonzero"/><path fill="#1b71a1" d="M 104.761719 189.402344 L 82.855469 189.402344 L 82.855469 187.375 L 104 187.375 L 104.660156 187.019531 L 104.660156 125.511719 L 106.6875 125.511719 L 106.6875 187.78125 Z M 104.761719 189.402344 " fill-opacity="1" fill-rule="nonzero"/><path fill="#1b71a1" d="M 91.984375 125.511719 L 94.011719 125.511719 L 94.011719 174.699219 L 91.984375 174.699219 Z M 91.984375 125.511719 " fill-opacity="1" fill-rule="nonzero"/><path fill="#1b71a1" d="M 79.203125 183.824219 L 61.050781 183.824219 L 61.050781 182.304688 L 78.445312 182.304688 L 79.304688 181.59375 L 79.304688 123.992188 L 81.335938 123.992188 L 81.335938 182.304688 Z M 79.203125 183.824219 " fill-opacity="1" fill-rule="nonzero"/><path fill="#1b71a1" d="M 68.304688 152.894531 L 46.347656 152.894531 L 46.347656 151.371094 L 67.542969 151.371094 L 68.152344 150.613281 L 68.152344 123.992188 L 70.179688 123.992188 L 70.179688 151.320312 Z M 68.304688 152.894531 " fill-opacity="1" fill-rule="nonzero"/><path fill="#1b71a1" d="M 170.273438 162.222656 C 173.824219 162.222656 173.824219 156.746094 170.273438 156.746094 C 166.726562 156.746094 166.726562 162.222656 170.273438 162.222656 Z M 170.273438 162.222656 " fill-opacity="1" fill-rule="nonzero"/><path fill="#1b71a1" d="M 157.191406 175.253906 C 160.742188 175.253906 160.742188 169.777344 157.191406 169.777344 C 153.644531 169.777344 153.695312 175.253906 157.191406 175.253906 Z M 157.191406 175.253906 " fill-opacity="1" fill-rule="nonzero"/><path fill="#1b71a1" d="M 115.917969 174.34375 C 119.464844 174.34375 119.464844 168.867188 115.917969 168.867188 C 112.367188 168.867188 112.367188 174.34375 115.917969 174.34375 Z M 115.917969 174.34375 " fill-opacity="1" fill-rule="nonzero"/><path fill="#1b71a1" d="M 92.1875 178.296875 C 95.734375 178.296875 95.734375 172.820312 92.1875 172.820312 C 88.6875 172.820312 88.6875 178.296875 92.1875 178.296875 Z M 92.1875 178.296875 " fill-opacity="1" fill-rule="nonzero"/><path fill="#1b71a1" d="M 82.5 191.988281 C 86.050781 191.988281 86.050781 186.511719 82.5 186.511719 C 78.953125 186.511719 78.953125 191.988281 82.5 191.988281 Z M 82.5 191.988281 " fill-opacity="1" fill-rule="nonzero"/><path fill="#1b71a1" d="M 60.289062 185.902344 C 63.839844 185.902344 63.839844 180.425781 60.289062 180.425781 C 56.792969 180.425781 56.792969 185.902344 60.289062 185.902344 Z M 60.289062 185.902344 " fill-opacity="1" fill-rule="nonzero"/><path fill="#1b71a1" d="M 45.433594 155.226562 C 48.984375 155.226562 48.984375 149.75 45.433594 149.75 C 41.882812 149.75 41.882812 155.226562 45.433594 155.226562 Z M 45.433594 155.226562 " fill-opacity="1" fill-rule="nonzero"/><path fill="#1b71a1" d="M 18.964844 85.453125 L 55.472656 85.453125 L 55.472656 87.480469 L 18.964844 87.480469 Z M 18.964844 85.453125 " fill-opacity="1" fill-rule="nonzero"/><path fill="#1b71a1" d="M 4.765625 98.128906 L 57.503906 98.128906 L 57.503906 100.15625 L 4.765625 100.15625 Z M 4.765625 98.128906 " fill-opacity="1" fill-rule="nonzero"/><path fill="#1b71a1" d="M 2.738281 67.199219 L 4.765625 67.199219 L 4.765625 100.15625 L 2.738281 100.15625 Z M 2.738281 67.199219 " fill-opacity="1" fill-rule="nonzero"/><path fill="#1b71a1" d="M 23.019531 134.640625 L 20.992188 134.640625 L 20.992188 110.503906 L 21.957031 109.285156 L 57.503906 109.285156 L 57.503906 110.804688 L 22.71875 110.804688 L 23.019531 111.261719 Z M 23.019531 134.640625 " fill-opacity="1" fill-rule="nonzero"/><path fill="#1b71a1" d="M 3.5 70.496094 C 7.046875 70.496094 7.046875 65.019531 3.5 65.019531 C 0 65.019531 0 70.496094 3.5 70.496094 Z M 3.5 70.496094 " fill-opacity="1" fill-rule="nonzero"/><path fill="#1b71a1" d="M 19.320312 89.304688 C 22.867188 89.304688 22.867188 83.832031 19.320312 83.832031 C 15.769531 83.832031 15.769531 89.304688 19.320312 89.304688 Z M 19.320312 89.304688 " fill-opacity="1" fill-rule="nonzero"/><path fill="#1b71a1" d="M 21.144531 138.1875 C 24.695312 138.1875 24.695312 132.710938 21.144531 132.710938 C 17.59375 132.761719 17.59375 138.1875 21.144531 138.1875 Z M 21.144531 138.1875 " fill-opacity="1" fill-rule="nonzero"/></svg>