<svg xmlns="http://www.w3.org/2000/svg" xmlns:xlink="http://www.w3.org/1999/xlink" width="256" zoomAndPan="magnify" viewBox="0 0 192 191.999996" height="256" preserveAspectRatio="xMidYMid meet" version="1.0"><defs><clipPath id="e27ba63561"><path d="M 9.605469 71.421875 L 131.769531 71.421875 L 131.769531 192 L 9.605469 192 Z M 9.605469 71.421875 " clip-rule="nonzero"/></clipPath><clipPath id="bf5a572533"><path d="M 138.019531 4.328125 L 182.101562 4.328125 L 182.101562 48.335938 L 138.019531 48.335938 Z M 138.019531 4.328125 " clip-rule="nonzero"/></clipPath></defs><g clip-path="url(#e27ba63561)"><path fill="#1b71a1" d="M 70.589844 163.351562 C 53.605469 163.351562 39.839844 149.582031 39.839844 132.597656 C 39.839844 115.617188 53.605469 101.847656 70.589844 101.847656 C 87.574219 101.847656 101.34375 115.617188 101.34375 132.597656 C 101.34375 149.582031 87.574219 163.351562 70.589844 163.351562 Z M 116.785156 137.144531 L 131.578125 129.320312 C 131.355469 125.109375 130.707031 121.011719 129.671875 117.066406 L 113.480469 114.828125 C 112.152344 111.628906 110.480469 108.613281 108.507812 105.824219 L 114.765625 90.425781 C 112.011719 87.542969 108.980469 84.929688 105.710938 82.628906 L 91.851562 91.328125 C 88.613281 89.660156 85.15625 88.359375 81.53125 87.484375 L 76.472656 71.804688 C 74.539062 71.621094 72.574219 71.523438 70.589844 71.523438 C 68.605469 71.523438 66.644531 71.621094 64.707031 71.804688 L 59.648438 87.484375 C 56.027344 88.359375 52.566406 89.660156 49.332031 91.328125 L 35.46875 82.628906 C 32.203125 84.929688 29.167969 87.542969 26.414062 90.425781 L 32.675781 105.824219 C 30.703125 108.613281 29.03125 111.628906 27.703125 114.828125 L 11.511719 117.066406 C 10.476562 121.011719 9.828125 125.109375 9.605469 129.320312 L 24.398438 137.144531 C 24.699219 140.246094 25.304688 143.257812 26.1875 146.148438 L 15.179688 158.320312 C 17.011719 162.253906 19.246094 165.957031 21.832031 169.382812 L 38.226562 165.863281 C 40.183594 167.769531 42.308594 169.507812 44.578125 171.046875 L 43.96875 187.582031 C 47.90625 189.492188 52.078125 190.988281 56.433594 192.023438 L 66.683594 178.851562 C 67.972656 178.957031 69.273438 179.015625 70.589844 179.015625 C 71.90625 179.015625 73.210938 178.957031 74.5 178.851562 L 84.746094 192.023438 C 89.101562 190.988281 93.277344 189.492188 97.214844 187.582031 L 96.601562 171.046875 C 98.871094 169.507812 101 167.769531 102.957031 165.863281 L 119.347656 169.382812 C 121.9375 165.957031 124.171875 162.253906 126 158.320312 L 114.996094 146.148438 C 115.875 143.257812 116.484375 140.246094 116.785156 137.144531 " fill-opacity="1" fill-rule="nonzero"/></g><path fill="#1b71a1" d="M 145.070312 103.722656 C 134.605469 103.722656 126.125 95.242188 126.125 84.777344 C 126.125 74.316406 134.605469 65.832031 145.070312 65.832031 C 155.53125 65.832031 164.015625 74.316406 164.015625 84.777344 C 164.015625 95.242188 155.53125 103.722656 145.070312 103.722656 Z M 172.4375 86.476562 L 176.90625 84.113281 C 176.847656 81.222656 176.402344 78.425781 175.621094 75.773438 L 170.730469 75.097656 C 169.789062 72.597656 168.492188 70.273438 166.902344 68.183594 L 168.792969 63.535156 C 166.96875 61.5 164.886719 59.699219 162.597656 58.1875 L 158.410156 60.816406 C 156.015625 59.480469 153.402344 58.492188 150.636719 57.921875 L 149.109375 53.1875 C 147.785156 53.019531 146.4375 52.933594 145.070312 52.933594 C 143.699219 52.933594 142.351562 53.019531 141.03125 53.1875 L 139.503906 57.921875 C 136.734375 58.492188 134.121094 59.480469 131.726562 60.816406 L 127.542969 58.1875 C 125.253906 59.699219 123.171875 61.5 121.347656 63.535156 L 123.238281 68.183594 C 121.648438 70.273438 120.351562 72.597656 119.410156 75.097656 L 114.515625 75.773438 C 113.738281 78.425781 113.292969 81.222656 113.234375 84.113281 L 117.703125 86.476562 C 117.855469 88.96875 118.335938 91.371094 119.113281 93.636719 L 115.789062 97.3125 C 116.949219 100.015625 118.46875 102.527344 120.296875 104.785156 L 125.242188 103.722656 C 126.804688 105.355469 128.566406 106.792969 130.488281 108 L 130.300781 112.996094 C 132.90625 114.363281 135.726562 115.378906 138.695312 115.984375 L 141.789062 112.003906 C 142.867188 112.132812 143.960938 112.199219 145.070312 112.199219 C 146.179688 112.199219 147.273438 112.132812 148.347656 112.003906 L 151.445312 115.984375 C 154.414062 115.378906 157.230469 114.363281 159.839844 112.996094 L 159.652344 108 C 161.574219 106.792969 163.332031 105.355469 164.894531 103.722656 L 169.84375 104.785156 C 171.667969 102.527344 173.191406 100.015625 174.351562 97.3125 L 171.027344 93.636719 C 171.800781 91.371094 172.285156 88.96875 172.4375 86.476562 " fill-opacity="1" fill-rule="nonzero"/><path fill="#1b71a1" d="M 116.054688 40.828125 C 115.65625 41.683594 115.171875 42.488281 114.609375 43.234375 L 111.042969 42.46875 C 110.617188 42.882812 110.152344 43.261719 109.660156 43.597656 L 109.792969 47.191406 C 108.9375 47.609375 108.027344 47.933594 107.082031 48.160156 L 104.851562 45.292969 C 104.570312 45.316406 104.289062 45.328125 104 45.328125 C 103.714844 45.328125 103.433594 45.316406 103.152344 45.292969 L 100.921875 48.160156 C 99.976562 47.933594 99.066406 47.609375 98.210938 47.191406 L 98.34375 43.597656 C 97.851562 43.261719 97.386719 42.882812 96.960938 42.46875 L 93.394531 43.234375 C 92.832031 42.488281 92.347656 41.683594 91.949219 40.828125 L 94.34375 38.179688 C 94.152344 37.550781 94.019531 36.898438 93.953125 36.222656 L 90.734375 34.519531 C 90.785156 33.605469 90.925781 32.710938 91.148438 31.855469 L 94.671875 31.367188 C 94.960938 30.671875 95.324219 30.015625 95.753906 29.40625 L 94.394531 26.058594 C 94.992188 25.433594 95.652344 24.863281 96.363281 24.363281 L 99.378906 26.257812 C 100.082031 25.894531 100.835938 25.609375 101.621094 25.417969 L 102.722656 22.007812 C 103.144531 21.96875 103.570312 21.949219 104 21.949219 C 104.433594 21.949219 104.859375 21.96875 105.28125 22.007812 L 106.382812 25.417969 C 107.171875 25.609375 107.921875 25.894531 108.625 26.257812 L 111.640625 24.363281 C 112.351562 24.863281 113.011719 25.433594 113.613281 26.058594 L 112.25 29.40625 C 112.679688 30.015625 113.042969 30.671875 113.332031 31.367188 L 116.851562 31.855469 C 117.078125 32.710938 117.21875 33.605469 117.269531 34.519531 L 114.050781 36.222656 C 113.984375 36.898438 113.851562 37.550781 113.660156 38.179688 Z M 130.878906 38.179688 L 139.484375 33.625 C 139.355469 31.175781 138.976562 28.789062 138.375 26.496094 L 128.953125 25.195312 C 128.183594 23.332031 127.210938 21.578125 126.0625 19.957031 L 129.703125 10.996094 C 128.101562 9.320312 126.335938 7.800781 124.433594 6.460938 L 116.371094 11.523438 C 114.488281 10.550781 112.476562 9.796875 110.367188 9.285156 L 107.425781 0.164062 C 106.296875 0.0585938 105.15625 0 104 0 C 102.847656 0 101.707031 0.0585938 100.578125 0.164062 L 97.636719 9.285156 C 95.527344 9.796875 93.515625 10.550781 91.632812 11.523438 L 83.570312 6.460938 C 81.667969 7.800781 79.902344 9.320312 78.300781 10.996094 L 81.945312 19.957031 C 80.792969 21.578125 79.824219 23.332031 79.050781 25.195312 L 69.628906 26.496094 C 69.027344 28.789062 68.648438 31.175781 68.519531 33.625 L 77.128906 38.179688 C 77.304688 39.984375 77.65625 41.734375 78.167969 43.417969 L 71.765625 50.496094 C 72.828125 52.785156 74.128906 54.941406 75.636719 56.9375 L 85.171875 54.886719 C 86.3125 55.996094 87.546875 57.007812 88.867188 57.902344 L 88.511719 67.519531 C 90.804688 68.632812 93.234375 69.503906 95.765625 70.105469 L 101.726562 62.441406 C 102.476562 62.503906 103.234375 62.539062 104 62.539062 C 104.769531 62.539062 105.527344 62.503906 106.277344 62.441406 L 112.238281 70.105469 C 114.773438 69.503906 117.199219 68.632812 119.492188 67.519531 L 119.136719 57.902344 C 120.457031 57.007812 121.691406 55.996094 122.832031 54.886719 L 132.367188 56.9375 C 133.875 54.941406 135.175781 52.785156 136.238281 50.496094 L 129.835938 43.417969 C 130.347656 41.734375 130.703125 39.984375 130.878906 38.179688 " fill-opacity="1" fill-rule="nonzero"/><g clip-path="url(#bf5a572533)"><path fill="#1b71a1" d="M 167.773438 29.882812 C 167.523438 30.417969 167.222656 30.921875 166.871094 31.386719 L 164.644531 30.90625 C 164.378906 31.167969 164.089844 31.402344 163.78125 31.609375 L 163.863281 33.855469 C 163.328125 34.117188 162.761719 34.320312 162.171875 34.460938 L 160.78125 32.671875 C 160.605469 32.6875 160.425781 32.691406 160.25 32.691406 C 160.070312 32.691406 159.894531 32.6875 159.71875 32.671875 L 158.324219 34.460938 C 157.734375 34.320312 157.167969 34.117188 156.632812 33.855469 L 156.714844 31.609375 C 156.410156 31.402344 156.121094 31.167969 155.851562 30.90625 L 153.628906 31.386719 C 153.277344 30.921875 152.972656 30.417969 152.722656 29.882812 L 154.21875 28.230469 C 154.101562 27.839844 154.015625 27.429688 153.976562 27.007812 L 151.96875 25.945312 C 151.996094 25.375 152.085938 24.816406 152.226562 24.28125 L 154.425781 23.976562 C 154.605469 23.542969 154.832031 23.132812 155.101562 22.753906 L 154.25 20.664062 C 154.625 20.273438 155.035156 19.917969 155.480469 19.605469 L 157.363281 20.785156 C 157.800781 20.558594 158.269531 20.382812 158.761719 20.265625 L 159.449219 18.136719 C 159.710938 18.109375 159.980469 18.097656 160.25 18.097656 C 160.519531 18.097656 160.785156 18.109375 161.046875 18.136719 L 161.734375 20.265625 C 162.226562 20.382812 162.695312 20.558594 163.136719 20.785156 L 165.015625 19.605469 C 165.460938 19.917969 165.871094 20.273438 166.246094 20.664062 L 165.398438 22.753906 C 165.664062 23.132812 165.890625 23.542969 166.070312 23.976562 L 168.269531 24.28125 C 168.410156 24.816406 168.5 25.375 168.53125 25.945312 L 166.519531 27.007812 C 166.480469 27.429688 166.398438 27.839844 166.277344 28.230469 Z M 177.023438 28.230469 L 182.398438 25.386719 C 182.316406 23.859375 182.082031 22.371094 181.707031 20.9375 L 175.824219 20.125 C 175.34375 18.960938 174.734375 17.867188 174.019531 16.851562 L 176.292969 11.261719 C 175.292969 10.214844 174.191406 9.265625 173.003906 8.429688 L 167.96875 11.589844 C 166.792969 10.984375 165.539062 10.511719 164.222656 10.195312 L 162.386719 4.5 C 161.683594 4.433594 160.96875 4.398438 160.25 4.398438 C 159.527344 4.398438 158.816406 4.433594 158.113281 4.5 L 156.273438 10.195312 C 154.960938 10.511719 153.703125 10.984375 152.527344 11.589844 L 147.492188 8.429688 C 146.304688 9.265625 145.207031 10.214844 144.207031 11.261719 L 146.480469 16.851562 C 145.761719 17.867188 145.152344 18.960938 144.671875 20.125 L 138.792969 20.9375 C 138.417969 22.371094 138.179688 23.859375 138.097656 25.386719 L 143.472656 28.230469 C 143.582031 29.355469 143.800781 30.449219 144.121094 31.5 L 140.125 35.917969 C 140.789062 37.347656 141.601562 38.695312 142.539062 39.9375 L 148.492188 38.660156 C 149.207031 39.351562 149.976562 39.984375 150.800781 40.542969 L 150.578125 46.546875 C 152.007812 47.242188 153.527344 47.785156 155.109375 48.160156 L 158.828125 43.375 C 159.296875 43.414062 159.769531 43.4375 160.25 43.4375 C 160.726562 43.4375 161.199219 43.414062 161.667969 43.375 L 165.390625 48.160156 C 166.972656 47.785156 168.488281 47.242188 169.917969 46.546875 L 169.695312 40.542969 C 170.519531 39.984375 171.292969 39.351562 172.003906 38.660156 L 177.957031 39.9375 C 178.894531 38.695312 179.707031 37.347656 180.371094 35.917969 L 176.375 31.5 C 176.695312 30.449219 176.914062 29.355469 177.023438 28.230469 " fill-opacity="1" fill-rule="nonzero"/></g></svg>